Merriweather-BlackHeadingItalic.ufo
<glyph name="exclam" format="2">
  <advance width="504.9999999999999"/>
  <unicode hex="0021"/>
  <outline>
    <contour>
      <point x="256.8181818181818" y="1764.0" type="line"/>
      <point x="183.45454545454547" y="476.8181818181818" type="line"/>
      <point x="295.0909090909091" y="476.8181818181818" type="line"/>
      <point x="598.9090909090909" y="1764.0" type="line"/>
    </contour>
    <contour>
      <point x="37.90909090909092" y="124.90909090909092" type="curve" smooth="yes"/>
      <point x="37.54545454545454" y="38.45454545454545"/>
      <point x="100.63636363636364" y="-21.272727272727273"/>
      <point x="168.90909090909093" y="-21.272727272727273" type="curve" smooth="yes"/>
      <point x="271.00000000000006" y="-21.272727272727273"/>
      <point x="347.72727272727275" y="51.72727272727272"/>
      <point x="347.72727272727275" y="173.27272727272728" type="curve" smooth="yes"/>
      <point x="347.7272727272727" y="252.72727272727275"/>
      <point x="294.5454545454545" y="319.1818181818182"/>
      <point x="207.27272727272728" y="319.1818181818182" type="curve" smooth="yes"/>
      <point x="113.99999999999999" y="319.1818181818182"/>
      <point x="38.27272727272728" y="238.45454545454544"/>
    </contour>
  </outline>
</glyph>
<glyph name="numbersign" format="2">
  <advance width="1276.4545454545455"/>
  <unicode hex="0023"/>
  <outline>
    <contour>
      <point x="351.0" y="413.0" type="line"/>
      <point x="287.0" y="0.0" type="line"/>
      <point x="373.1818181818182" y="0.0" type="line"/>
      <point x="438.1818181818182" y="413.0" type="line"/>
      <point x="783.1818181818181" y="413.0" type="line"/>
      <point x="720.1818181818181" y="0.0" type="line"/>
      <point x="806.3636363636364" y="0.0" type="line"/>
      <point x="869.3636363636364" y="413.0" type="line"/>
      <point x="1137.3636363636363" y="413.0" type="line"/>
      <point x="1165.3636363636363" y="616.0" type="line"/>
      <point x="901.3636363636364" y="616.0" type="line"/>
      <point x="951.3636363636364" y="907.0" type="line"/>
      <point x="1205.3636363636363" y="907.0" type="line"/>
      <point x="1233.3636363636363" y="1108.0" type="line"/>
      <point x="980.3636363636364" y="1108.0" type="line"/>
      <point x="1050.3636363636363" y="1539.0" type="line"/>
      <point x="963.1818181818181" y="1539.0" type="line"/>
      <point x="893.1818181818181" y="1108.0" type="line"/>
      <point x="549.1818181818181" y="1108.0" type="line"/>
      <point x="617.1818181818181" y="1539.0" type="line"/>
      <point x="531.0" y="1539.0" type="line"/>
      <point x="463.0" y="1108.0" type="line"/>
      <point x="204.0" y="1108.0" type="line"/>
      <point x="176.0" y="907.0" type="line"/>
      <point x="432.0" y="907.0" type="line"/>
      <point x="385.0" y="616.0" type="line"/>
      <point x="137.0" y="616.0" type="line"/>
      <point x="109.0" y="413.0" type="line"/>
    </contour>
    <contour>
      <point x="815.1818181818181" y="616.0" type="line"/>
      <point x="470.1818181818182" y="616.0" type="line"/>
      <point x="519.1818181818181" y="907.0" type="line"/>
      <point x="864.1818181818181" y="907.0" type="line"/>
    </contour>
  </outline>
</glyph>
<glyph name="dollar" format="2">
  <advance width="1217.909090909091"/>
  <unicode hex="0024"/>
  <outline>
    <contour>
      <point x="423.45454545454544" y="-254.54545454545453" type="line"/>
      <point x="551.3636363636364" y="-254.54545454545456" type="line"/>
      <point x="590.0" y="-23.18181818181818" type="line"/>
      <point x="918.0" y="4.7272727272727275"/>
      <point x="1109.2727272727273" y="198.45454545454544"/>
      <point x="1108.909090909091" y="445.45454545454544" type="curve" smooth="yes"/>
      <point x="1108.909090909091" y="650.1818181818182"/>
      <point x="969.9090909090909" y="757.2727272727273"/>
      <point x="816.6363636363636" y="858.2727272727273" type="curve"/>
      <point x="623.8181818181818" y="976.5454545454544"/>
      <point x="542.0" y="1061.5454545454547"/>
      <point x="542.0" y="1192.4545454545455" type="curve" smooth="yes"/>
      <point x="542.0000000000001" y="1323.2727272727273"/>
      <point x="632.909090909091" y="1423.090909090909"/>
      <point x="758.5454545454546" y="1423.090909090909" type="curve" smooth="yes"/>
      <point x="817.5454545454545" y="1423.0909090909092"/>
      <point x="884.5454545454545" y="1401.909090909091"/>
      <point x="910.1818181818181" y="1371.1818181818182" type="curve"/>
      <point x="924.1818181818181" y="1133.2727272727273" type="line"/>
      <point x="1118.0" y="1133.2727272727273" type="line"/>
      <point x="1180.9090909090908" y="1432.0" type="line"/>
      <point x="1128.9090909090908" y="1444.7272727272727"/>
      <point x="992.0" y="1492.5454545454545"/>
      <point x="859.0" y="1501.909090909091" type="curve"/>
      <point x="896.2727272727273" y="1730.3636363636365" type="line"/>
      <point x="767.6363636363637" y="1730.3636363636363" type="line"/>
      <point x="731.7272727272727" y="1502.6363636363637" type="line"/>
      <point x="422.09090909090907" y="1496.0909090909092"/>
      <point x="211.54545454545456" y="1319.1818181818182"/>
      <point x="211.54545454545456" y="1044.7272727272725" type="curve" smooth="yes"/>
      <point x="211.54545454545453" y="815.5454545454544"/>
      <point x="375.6363636363636" y="703.0"/>
      <point x="507.18181818181813" y="620.0909090909091" type="curve"/>
      <point x="677.3636363636365" y="513.3636363636364"/>
      <point x="758.6363636363637" y="435.6363636363636"/>
      <point x="758.6363636363637" y="307.0909090909091" type="curve" smooth="yes"/>
      <point x="758.6363636363637" y="173.09090909090907"/>
      <point x="670.5454545454545" y="61.0"/>
      <point x="512.5454545454546" y="61.0" type="curve" smooth="yes"/>
      <point x="444.27272727272725" y="61.0"/>
      <point x="378.72727272727275" y="84.54545454545455"/>
      <point x="325.6363636363636" y="128.27272727272725" type="curve"/>
      <point x="315.0" y="382.3636363636364" type="line"/>
      <point x="128.27272727272728" y="382.3636363636364" type="line"/>
      <point x="61.81818181818183" y="68.27272727272727" type="line"/>
      <point x="113.81818181818181" y="54.09090909090909"/>
      <point x="261.4545454545455" y="-9.09090909090909"/>
      <point x="461.99999999999994" y="-21.81818181818182" type="curve"/>
    </contour>
  </outline>
</glyph>
<glyph name="percent" format="2">
  <advance width="1828.3636363636365"/>
  <unicode hex="0025"/>
  <outline>
    <contour>
      <point x="449.7272727272727" y="704.0" type="curve" smooth="yes"/>
      <point x="698.090909090909" y="704.0"/>
      <point x="872.3636363636364" y="914.0909090909091"/>
      <point x="872.3636363636364" y="1158.0" type="curve" smooth="yes"/>
      <point x="872.3636363636364" y="1329.8181818181818"/>
      <point x="786.0" y="1454.7272727272727"/>
      <point x="586.090909090909" y="1454.7272727272727" type="curve" smooth="yes"/>
      <point x="337.5454545454545" y="1454.7272727272727"/>
      <point x="160.1818181818182" y="1251.3636363636365"/>
      <point x="160.1818181818182" y="1013.4545454545454" type="curve" smooth="yes"/>
      <point x="160.1818181818182" y="833.1818181818182"/>
      <point x="258.6363636363636" y="704.0"/>
    </contour>
    <contour>
      <point x="470.72727272727275" y="776.090909090909" type="curve" smooth="yes"/>
      <point x="407.6363636363636" y="776.090909090909"/>
      <point x="381.2727272727273" y="843.2727272727274"/>
      <point x="381.2727272727273" y="977.2727272727273" type="curve" smooth="yes"/>
      <point x="381.2727272727273" y="1182.7272727272727"/>
      <point x="454.1818181818182" y="1384.5454545454545"/>
      <point x="560.6363636363636" y="1384.5454545454545" type="curve" smooth="yes"/>
      <point x="621.5454545454545" y="1384.5454545454545"/>
      <point x="648.0909090909091" y="1319.6363636363635"/>
      <point x="648.0909090909091" y="1188.1818181818182" type="curve" smooth="yes"/>
      <point x="648.0909090909091" y="985.0909090909091"/>
      <point x="577.7272727272727" y="776.090909090909"/>
    </contour>
    <contour>
      <point x="1337.6363636363635" y="1548.5454545454545" type="line"/>
      <point x="450.6363636363636" y="-37.09090909090909" type="line"/>
      <point x="554.0" y="-37.09090909090909" type="line"/>
      <point x="1441.0000000000002" y="1548.5454545454545" type="line"/>
    </contour>
    <contour>
      <point x="1310.090909090909" y="52.81818181818182" type="curve" smooth="yes"/>
      <point x="1558.8181818181818" y="52.81818181818182"/>
      <point x="1733.4545454545455" y="262.90909090909093"/>
      <point x="1733.4545454545455" y="506.81818181818187" type="curve" smooth="yes"/>
      <point x="1733.4545454545455" y="678.6363636363637"/>
      <point x="1647.0909090909088" y="802.8181818181819"/>
      <point x="1446.0909090909092" y="802.8181818181819" type="curve" smooth="yes"/>
      <point x="1197.5454545454545" y="802.8181818181819"/>
      <point x="1021.2727272727273" y="600.1818181818181"/>
      <point x="1021.2727272727273" y="362.27272727272725" type="curve" smooth="yes"/>
      <point x="1021.2727272727273" y="182.0"/>
      <point x="1119.3636363636365" y="52.81818181818182"/>
    </contour>
    <contour>
      <point x="1330.727272727273" y="124.90909090909092" type="curve" smooth="yes"/>
      <point x="1268.3636363636363" y="124.90909090909092"/>
      <point x="1241.6363636363635" y="192.09090909090907"/>
      <point x="1241.6363636363635" y="326.0909090909091" type="curve" smooth="yes"/>
      <point x="1241.6363636363635" y="531.5454545454545"/>
      <point x="1314.5454545454547" y="733.0"/>
      <point x="1420.6363636363635" y="733.0" type="curve" smooth="yes"/>
      <point x="1481.5454545454547" y="733.0"/>
      <point x="1508.8181818181818" y="668.4545454545454"/>
      <point x="1508.8181818181818" y="537.0" type="curve" smooth="yes"/>
      <point x="1508.8181818181818" y="333.90909090909093"/>
      <point x="1437.7272727272727" y="124.90909090909092"/>
    </contour>
  </outline>
</glyph>
<glyph name="ampersand" format="2">
  <advance width="1616.2727272727273"/>
  <unicode hex="0026"/>
  <outline>
    <contour>
      <point x="580.0909090909091" y="-18.81818181818182" type="curve" smooth="yes"/>
      <point x="761.3636363636364" y="-18.81818181818182"/>
      <point x="880.4545454545454" y="5.454545454545456"/>
      <point x="961.9090909090909" y="48.63636363636363" type="curve"/>
      <point x="1026.1818181818182" y="19.090909090909086"/>
      <point x="1098.3636363636365" y="-14.0"/>
      <point x="1214.0909090909092" y="-14.0" type="curve" smooth="yes"/>
      <point x="1317.3636363636363" y="-14.0"/>
      <point x="1431.0909090909092" y="-0.18181818181818177"/>
      <point x="1466.0" y="20.454545454545453" type="curve"/>
      <point x="1469.8181818181818" y="96.54545454545453" type="line"/>
      <point x="1424.6363636363635" y="100.09090909090911"/>
      <point x="1362.6363636363637" y="120.36363636363636"/>
      <point x="1307.8181818181818" y="161.0" type="curve"/>
      <point x="1288.8181818181818" y="175.63636363636363"/>
      <point x="1265.6363636363635" y="194.36363636363637"/>
      <point x="1241.6363636363637" y="223.0909090909091" type="curve"/>
      <point x="1358.8181818181818" y="326.54545454545456"/>
      <point x="1436.4545454545455" y="482.27272727272725"/>
      <point x="1440.2727272727273" y="614.1818181818181" type="curve" smooth="yes"/>
      <point x="1441.5454545454545" y="637.4545454545455"/>
      <point x="1441.5454545454547" y="653.9999999999999"/>
      <point x="1441.5454545454545" y="665.1818181818181" type="curve"/>
      <point x="1450.0" y="665.1818181818181"/>
      <point x="1461.3636363636363" y="665.1818181818181"/>
      <point x="1470.727272727273" y="665.1818181818181" type="curve" smooth="yes"/>
      <point x="1500.909090909091" y="665.1818181818181"/>
      <point x="1544.8181818181818" y="671.8181818181818"/>
      <point x="1582.1818181818182" y="691.2727272727273" type="curve"/>
      <point x="1581.5454545454545" y="798.9090909090909" type="line"/>
      <point x="1544.5454545454547" y="776.0"/>
      <point x="1481.818181818182" y="777.1818181818181"/>
      <point x="1435.2727272727275" y="777.1818181818181" type="curve" smooth="yes"/>
      <point x="1332.5454545454547" y="777.1818181818181"/>
      <point x="1280.9090909090908" y="797.0"/>
      <point x="1191.7272727272727" y="797.0" type="curve" smooth="yes"/>
      <point x="1135.3636363636363" y="797.0"/>
      <point x="1098.6363636363637" y="786.0909090909091"/>
      <point x="1081.9090909090908" y="769.3636363636364" type="curve"/>
      <point x="1081.9090909090908" y="667.0909090909091" type="line"/>
      <point x="1106.7272727272727" y="686.0"/>
      <point x="1139.1818181818182" y="685.7272727272727"/>
      <point x="1179.909090909091" y="685.7272727272727" type="curve" smooth="yes"/>
      <point x="1202.5454545454545" y="685.7272727272727"/>
      <point x="1222.2727272727273" y="683.1818181818182"/>
      <point x="1234.0909090909088" y="678.7272727272726" type="curve"/>
      <point x="1241.181818181818" y="659.7272727272727"/>
      <point x="1246.090909090909" y="614.6363636363636"/>
      <point x="1246.090909090909" y="558.9090909090909" type="curve" smooth="yes"/>
      <point x="1246.090909090909" y="447.1818181818182"/>
      <point x="1205.7272727272727" y="351.6363636363637"/>
      <point x="1154.8181818181818" y="296.90909090909093" type="curve"/>
      <point x="1066.9090909090908" y="387.72727272727275"/>
      <point x="934.0" y="584.8181818181819"/>
      <point x="793.0" y="802.6363636363636" type="curve"/>
      <point x="971.9090909090908" y="881.0909090909091"/>
      <point x="1228.0" y="992.2727272727273"/>
      <point x="1228.0" y="1231.6363636363635" type="curve" smooth="yes"/>
      <point x="1228.0" y="1392.6363636363637"/>
      <point x="1115.7272727272727" y="1509.0"/>
      <point x="858.0" y="1509.0" type="curve" smooth="yes"/>
      <point x="564.1818181818181" y="1509.0"/>
      <point x="326.5454545454545" y="1356.4545454545455"/>
      <point x="326.5454545454545" y="1066.4545454545453" type="curve" smooth="yes"/>
      <point x="326.5454545454545" y="966.6363636363637"/>
      <point x="381.6363636363637" y="838.1818181818181"/>
      <point x="449.7272727272727" y="717.909090909091" type="curve"/>
      <point x="231.27272727272725" y="659.5454545454545"/>
      <point x="56.00000000000001" y="527.2727272727273"/>
      <point x="56.00000000000001" y="308.9090909090909" type="curve" smooth="yes"/>
      <point x="56.00000000000001" y="107.36363636363637"/>
      <point x="245.6363636363636" y="-18.81818181818182"/>
    </contour>
    <contour>
      <point x="689.3636363636363" y="63.45454545454545" type="curve" smooth="yes"/>
      <point x="507.6363636363636" y="63.45454545454545"/>
      <point x="365.4545454545455" y="185.1818181818182"/>
      <point x="365.4545454545455" y="386.72727272727275" type="curve" smooth="yes"/>
      <point x="365.4545454545455" y="533.0909090909091"/>
      <point x="424.4545454545454" y="591.8181818181819"/>
      <point x="493.1818181818182" y="645.4545454545454" type="curve"/>
      <point x="617.6363636363635" y="431.0909090909091"/>
      <point x="752.4545454545454" y="247.54545454545453"/>
      <point x="877.8181818181818" y="114.81818181818183" type="curve"/>
      <point x="818.8181818181819" y="80.36363636363636"/>
      <point x="752.7272727272727" y="63.45454545454545"/>
    </contour>
    <contour>
      <point x="756.0" y="866.0" type="curve"/>
      <point x="694.8181818181818" y="965.0909090909091"/>
      <point x="661.4545454545455" y="1067.3636363636363"/>
      <point x="661.4545454545455" y="1174.0" type="curve" smooth="yes"/>
      <point x="661.4545454545455" y="1339.818181818182"/>
      <point x="725.0909090909091" y="1428.818181818182"/>
      <point x="846.9090909090908" y="1428.818181818182" type="curve" smooth="yes"/>
      <point x="929.1818181818181" y="1428.818181818182"/>
      <point x="956.8181818181819" y="1358.5454545454545"/>
      <point x="956.8181818181819" y="1261.6363636363637" type="curve" smooth="yes"/>
      <point x="956.8181818181819" y="1095.3636363636363"/>
      <point x="871.909090909091" y="947.0909090909091"/>
    </contour>
  </outline>
</glyph>
<glyph name="quotesingle" format="2">
  <advance width="579.6363636363636"/>
  <unicode hex="0027"/>
  <outline>
    <contour>
      <point x="300.3636363636364" y="1669.6363636363637" type="line"/>
      <point x="269.3636363636364" y="881.6363636363636" type="line"/>
      <point x="383.45454545454544" y="881.6363636363636" type="line"/>
      <point x="588.8181818181818" y="1669.6363636363637" type="line"/>
    </contour>
  </outline>
</glyph>
<glyph name="parenleft" format="2">
  <advance width="898.0"/>
  <unicode hex="0028"/>
  <outline>
    <contour>
      <point x="167.27272727272728" y="575.0909090909091" type="curve" smooth="yes"/>
      <point x="167.27272727272728" y="3.7272727272727266"/>
      <point x="521.0000000000001" y="-235.0"/>
      <point x="613.3636363636363" y="-285.5454545454545" type="curve"/>
      <point x="699.181818181818" y="-241.9090909090909" type="line"/>
      <point x="629.1818181818182" y="-177.54545454545453"/>
      <point x="460.1818181818182" y="113.54545454545455"/>
      <point x="460.1818181818182" y="528.0909090909091" type="curve" smooth="yes"/>
      <point x="460.1818181818182" y="1011.2727272727273"/>
      <point x="606.0" y="1347.7272727272727"/>
      <point x="959.3636363636364" y="1628.090909090909" type="curve"/>
      <point x="884.5454545454545" y="1680.0" type="line"/>
      <point x="470.3636363636363" y="1480.6363636363637"/>
      <point x="167.27272727272728" y="1102.181818181818"/>
    </contour>
  </outline>
</glyph>
<glyph name="asterisk" format="2">
  <advance width="1217.9999999999998"/>
  <unicode hex="002A"/>
  <outline>
    <contour>
      <point x="159.8181818181818" y="1034.4545454545455" type="line"/>
      <point x="272.3636363636364" y="775.8181818181818" type="line"/>
      <point x="571.909090909091" y="1020.2727272727273" type="line"/>
      <point x="635.2727272727274" y="1077.2727272727273" type="line"/>
      <point x="602.0" y="997.5454545454545" type="line"/>
      <point x="488.9090909090909" y="630.090909090909" type="line"/>
      <point x="782.3636363636364" y="628.090909090909" type="line"/>
      <point x="750.1818181818182" y="985.8181818181818" type="line"/>
      <point x="740.3636363636364" y="1075.090909090909" type="line"/>
      <point x="792.3636363636364" y="1015.9090909090908" type="line"/>
      <point x="1046.1818181818182" y="776.5454545454545" type="line"/>
      <point x="1205.0909090909092" y="1012.7272727272727" type="line"/>
      <point x="862.909090909091" y="1130.9090909090908" type="line"/>
      <point x="792.9090909090909" y="1151.2727272727273" type="line"/>
      <point x="872.2727272727274" y="1171.3636363636363" type="line"/>
      <point x="1240.909090909091" y="1287.5454545454545" type="line"/>
      <point x="1128.7272727272727" y="1537.818181818182" type="line"/>
      <point x="824.4545454545455" y="1291.7272727272727" type="line"/>
      <point x="754.5454545454545" y="1232.090909090909" type="line"/>
      <point x="790.7272727272727" y="1317.4545454545453" type="line"/>
      <point x="903.8181818181819" y="1683.909090909091" type="line"/>
      <point x="611.7272727272729" y="1687.909090909091" type="line"/>
      <point x="637.0909090909091" y="1329.181818181818" type="line"/>
      <point x="651.0909090909091" y="1235.2727272727273" type="line"/>
      <point x="593.6363636363636" y="1296.7272727272725" type="line"/>
      <point x="343.18181818181813" y="1537.090909090909" type="line"/>
      <point x="182.36363636363637" y="1295.2727272727273" type="line"/>
      <point x="523.0909090909091" y="1177.7272727272727" type="line"/>
      <point x="601.5454545454546" y="1158.3636363636365" type="line"/>
      <point x="515.0" y="1138.5454545454545" type="line"/>
    </contour>
  </outline>
</glyph>
<glyph name="plus" format="2">
  <advance width="1175.4545454545455"/>
  <unicode hex="002B"/>
  <outline>
    <contour>
      <point x="498.4545454545454" y="349.09090909090907" type="line"/>
      <point x="468.6363636363636" y="134.0909090909091" type="line"/>
      <point x="603.9090909090909" y="134.0909090909091" type="line"/>
      <point x="634.4545454545455" y="349.09090909090907" type="line"/>
      <point x="656.5454545454546" y="539.0" type="line"/>
      <point x="827.9090909090909" y="536.8181818181818" type="line"/>
      <point x="1024.0000000000002" y="536.8181818181818" type="line"/>
      <point x="1036.9090909090908" y="656.8181818181819" type="line"/>
      <point x="847.7272727272726" y="656.8181818181819" type="line"/>
      <point x="673.3636363636364" y="653.1818181818182" type="line"/>
      <point x="703.9090909090909" y="844.3636363636364" type="line"/>
      <point x="732.4545454545455" y="1052.5454545454545" type="line"/>
      <point x="596.8181818181819" y="1052.5454545454545" type="line"/>
      <point x="568.2727272727273" y="844.3636363636364" type="line"/>
      <point x="545.4545454545455" y="653.1818181818182" type="line"/>
      <point x="345.45454545454544" y="656.8181818181819" type="line"/>
      <point x="171.72727272727275" y="656.8181818181819" type="line"/>
      <point x="158.81818181818178" y="536.8181818181818" type="line"/>
      <point x="325.6363636363637" y="536.8181818181818" type="line"/>
      <point x="526.3636363636364" y="539.0" type="line"/>
    </contour>
  </outline>
</glyph>
<glyph name="comma" format="2">
  <advance width="455.0"/>
  <unicode hex="002C"/>
  <outline>
    <contour>
      <point x="20.727272727272727" y="120.54545454545455" type="line"/>
      <point x="19.545454545454547" y="78.63636363636363" type="line"/>
      <point x="73.0" y="73.9090909090909"/>
      <point x="112.27272727272728" y="-16.181818181818183"/>
      <point x="112.27272727272728" y="-97.72727272727272" type="curve" smooth="yes"/>
      <point x="112.27272727272728" y="-189.27272727272725"/>
      <point x="63.272727272727266" y="-341.27272727272725"/>
      <point x="-43.45454545454545" y="-403.27272727272725" type="curve"/>
      <point x="-44.18181818181819" y="-420.72727272727275" type="line"/>
      <point x="-5.181818181818183" y="-473.90909090909093" type="line"/>
      <point x="180.27272727272728" y="-393.3636363636364"/>
      <point x="341.81818181818176" y="-219.0909090909091"/>
      <point x="341.81818181818176" y="-0.4545454545454546" type="curve" smooth="yes"/>
      <point x="341.81818181818176" y="115.09090909090908"/>
      <point x="283.9090909090909" y="247.8181818181818"/>
      <point x="168.63636363636363" y="277.45454545454544" type="curve"/>
    </contour>
  </outline>
</glyph>
<glyph name="hyphen" format="2">
  <advance width="1001.1818181818182"/>
  <unicode hex="002D"/>
  <outline>
    <contour>
      <point x="866.1818181818181" y="654.9090909090909" type="line"/>
      <point x="172.36363636363637" y="654.9090909090909" type="line"/>
      <point x="154.54545454545456" y="530.5454545454545" type="line"/>
      <point x="848.3636363636365" y="530.5454545454545" type="line"/>
    </contour>
  </outline>
</glyph>
<glyph name="period" format="2">
  <advance width="454.18181818181813"/>
  <unicode hex="002E"/>
  <outline>
    <contour>
      <point x="28.727272727272723" y="119.81818181818181" type="curve" smooth="yes"/>
      <point x="28.363636363636363" y="36.54545454545455"/>
      <point x="88.9090909090909" y="-21.272727272727273"/>
      <point x="154.63636363636363" y="-21.272727272727273" type="curve" smooth="yes"/>
      <point x="253.54545454545453" y="-21.272727272727273"/>
      <point x="327.09090909090907" y="49.18181818181819"/>
      <point x="327.09090909090907" y="165.6363636363636" type="curve" smooth="yes"/>
      <point x="327.09090909090907" y="242.5454545454546"/>
      <point x="275.8181818181818" y="306.45454545454544"/>
      <point x="191.72727272727272" y="306.45454545454544" type="curve" smooth="yes"/>
      <point x="102.27272727272725" y="306.45454545454544"/>
      <point x="29.09090909090909" y="228.9090909090909"/>
    </contour>
  </outline>
</glyph>
<glyph name="one" format="2">
  <advance width="840.7272727272727"/>
  <unicode hex="0031"/>
  <anchor x="461.3636363636364" y="1660.0" name="top"/>
  <outline>
    <contour>
      <point x="13.000000000000002" y="67.0" type="line"/>
      <point x="4.272727272727273" y="0.0" type="line"/>
      <point x="737.0" y="0.0" type="line"/>
      <point x="745.0000000000001" y="67.0" type="line"/>
      <point x="553.9090909090909" y="98.18181818181817" type="line"/>
      <point x="741.0" y="1463.6363636363637" type="line"/>
      <point x="566.6363636363636" y="1506.0" type="line"/>
      <point x="462.6363636363637" y="1414.181818181818"/>
      <point x="297.7272727272728" y="1319.0909090909092"/>
      <point x="122.9090909090909" y="1270.6363636363635" type="curve"/>
      <point x="140.0909090909091" y="1183.0" type="line"/>
      <point x="217.72727272727275" y="1191.2727272727273"/>
      <point x="319.18181818181813" y="1210.2727272727273"/>
      <point x="373.5454545454545" y="1223.8181818181818" type="curve"/>
      <point x="219.27272727272728" y="98.18181818181819" type="line"/>
    </contour>
  </outline>
</glyph>
<glyph name="two" format="2">
  <advance width="1112.7272727272727"/>
  <unicode hex="0032"/>
  <outline>
    <contour>
      <point x="46.18181818181817" y="0.0" type="line"/>
      <point x="955.1818181818181" y="0.0" type="line"/>
      <point x="1059.0909090909092" y="411.4545454545455" type="line"/>
      <point x="967.0" y="439.0909090909091" type="line"/>
      <point x="860.8181818181818" y="270.4545454545455" type="line"/>
      <point x="191.0" y="183.8181818181818" type="line"/>
      <point x="569.1818181818182" y="428.9090909090909"/>
      <point x="1059.4545454545455" y="761.909090909091"/>
      <point x="1057.5454545454545" y="1153.909090909091" type="curve" smooth="yes"/>
      <point x="1056.2727272727273" y="1366.9090909090908"/>
      <point x="892.9090909090909" y="1502.0"/>
      <point x="656.090909090909" y="1502.0" type="curve" smooth="yes"/>
      <point x="432.72727272727275" y="1502.0"/>
      <point x="258.27272727272725" y="1408.4545454545455"/>
      <point x="136.0" y="1270.7272727272727" type="curve"/>
      <point x="177.54545454545456" y="1201.4545454545455" type="line"/>
      <point x="264.0" y="1278.4545454545455"/>
      <point x="359.81818181818187" y="1331.6363636363635"/>
      <point x="478.2727272727273" y="1331.6363636363635" type="curve" smooth="yes"/>
      <point x="596.0" y="1331.6363636363635"/>
      <point x="701.5454545454545" y="1254.4545454545455"/>
      <point x="702.8181818181818" y="1092.3636363636365" type="curve" smooth="yes"/>
      <point x="705.3636363636363" y="775.0909090909092"/>
      <point x="321.81818181818176" y="360.54545454545456"/>
      <point x="-10.27272727272727" y="145.1818181818182" type="curve"/>
    </contour>
  </outline>
</glyph>
<glyph name="three" format="2">
  <advance width="1033.4545454545455"/>
  <unicode hex="0033"/>
  <outline>
    <contour>
      <point x="284.7272727272727" y="-16.545454545454547" type="curve" smooth="yes"/>
      <point x="644.4545454545455" y="-16.545454545454547"/>
      <point x="981.3636363636364" y="188.45454545454547"/>
      <point x="981.3636363636364" y="468.6363636363636" type="curve" smooth="yes"/>
      <point x="981.3636363636363" y="691.6363636363636"/>
      <point x="784.5454545454546" y="791.6363636363636"/>
      <point x="516.5454545454545" y="751.0" type="curve"/>
      <point x="789.9090909090909" y="842.8181818181819"/>
      <point x="999.4545454545456" y="1010.3636363636361"/>
      <point x="999.4545454545456" y="1219.4545454545455" type="curve" smooth="yes"/>
      <point x="999.4545454545455" y="1379.818181818182"/>
      <point x="864.9090909090908" y="1496.0"/>
      <point x="626.1818181818181" y="1496.0" type="curve" smooth="yes"/>
      <point x="389.5454545454546" y="1496.0"/>
      <point x="206.1818181818182" y="1388.2727272727273"/>
      <point x="111.9090909090909" y="1287.8181818181818" type="curve"/>
      <point x="148.27272727272725" y="1215.7272727272727" type="line"/>
      <point x="240.27272727272728" y="1283.7272727272727"/>
      <point x="339.5454545454545" y="1328.4545454545455"/>
      <point x="467.3636363636363" y="1328.4545454545457" type="curve" smooth="yes"/>
      <point x="571.0" y="1328.4545454545455"/>
      <point x="657.4545454545455" y="1265.0"/>
      <point x="657.4545454545455" y="1159.9090909090908" type="curve" smooth="yes"/>
      <point x="657.4545454545455" y="989.3636363636364"/>
      <point x="506.27272727272725" y="830.1818181818181"/>
      <point x="272.0909090909091" y="763.5454545454546" type="curve"/>
      <point x="258.3636363636364" y="671.5454545454546" type="line"/>
      <point x="293.0" y="681.5454545454546"/>
      <point x="331.0" y="691.6363636363636"/>
      <point x="386.72727272727275" y="701.6363636363636" type="curve"/>
      <point x="565.7272727272726" y="702.0909090909091"/>
      <point x="613.4545454545454" y="604.0909090909091"/>
      <point x="613.4545454545454" y="485.45454545454544" type="curve" smooth="yes"/>
      <point x="613.4545454545454" y="278.90909090909093"/>
      <point x="443.6363636363636" y="98.63636363636364"/>
      <point x="202.72727272727275" y="98.63636363636364" type="curve" smooth="yes"/>
      <point x="107.18181818181816" y="98.63636363636364"/>
      <point x="53.72727272727273" y="112.09090909090908"/>
      <point x="4.272727272727273" y="129.72727272727275" type="curve"/>
      <point x="-19.90909090909091" y="39.81818181818181" type="line"/>
      <point x="53.45454545454547" y="8.181818181818182"/>
      <point x="138.45454545454547" y="-16.545454545454547"/>
    </contour>
  </outline>
</glyph>
<glyph name="four" format="2">
  <advance width="1180.7272727272727"/>
  <unicode hex="0034"/>
  <outline>
    <contour>
      <point x="572.8181818181819" y="0.0" type="line"/>
      <point x="909.2727272727271" y="0.0" type="line"/>
      <point x="954.6363636363636" y="321.3636363636364" type="line"/>
      <point x="1135.2727272727273" y="321.0" type="line"/>
      <point x="1158.3636363636365" y="506.8181818181818" type="line"/>
      <point x="979.8181818181818" y="492.3636363636363" type="line"/>
      <point x="1032.909090909091" y="879.6363636363636" type="line"/>
      <point x="728.4545454545455" y="832.0" type="line"/>
      <point x="649.0" y="470.8181818181818" type="line"/>
      <point x="172.8181818181818" y="432.54545454545456" type="line"/>
      <point x="231.1818181818182" y="486.2727272727273"/>
      <point x="290.45454545454544" y="539.0909090909091"/>
      <point x="336.9090909090909" y="591.5454545454546" type="curve"/>
      <point x="439.3636363636364" y="702.090909090909"/>
      <point x="755.909090909091" y="1174.1818181818182"/>
      <point x="877.9999999999999" y="1385.8181818181818" type="curve"/>
      <point x="601.3636363636364" y="1507.0" type="line"/>
      <point x="524.909090909091" y="1507.0" type="line"/>
      <point x="408.3636363636363" y="1205.0"/>
      <point x="204.45454545454547" y="715.4545454545455"/>
      <point x="21.545454545454543" y="445.27272727272725" type="curve"/>
      <point x="93.36363636363636" y="321.0" type="line"/>
      <point x="620.909090909091" y="321.3636363636364" type="line"/>
    </contour>
  </outline>
</glyph>
<glyph name="five" format="2">
  <advance width="1067.1818181818182"/>
  <unicode hex="0035"/>
  <outline>
    <contour>
      <point x="51.36363636363636" y="105.0" type="curve"/>
      <point x="36.90909090909092" y="20.363636363636363" type="line"/>
      <point x="94.0909090909091" y="-6.636363636363637"/>
      <point x="192.0" y="-26.545454545454547"/>
      <point x="273.0909090909091" y="-26.545454545454547" type="curve" smooth="yes"/>
      <point x="676.9090909090909" y="-26.545454545454547"/>
      <point x="1012.1818181818182" y="209.63636363636365"/>
      <point x="1012.1818181818182" y="551.9090909090909" type="curve" smooth="yes"/>
      <point x="1012.1818181818182" y="777.6363636363637"/>
      <point x="870.9090909090909" y="914.6363636363636"/>
      <point x="662.4545454545456" y="914.6363636363636" type="curve" smooth="yes"/>
      <point x="500.0" y="914.6363636363636"/>
      <point x="363.0909090909091" y="854.090909090909"/>
      <point x="247.63636363636363" y="774.7272727272727" type="curve"/>
      <point x="413.1818181818182" y="1206.6363636363637" type="line"/>
      <point x="999.6363636363637" y="1205.909090909091" type="line"/>
      <point x="1069.0" y="1514.0" type="line"/>
      <point x="959.6363636363636" y="1514.0" type="line"/>
      <point x="935.0" y="1486.0" type="line"/>
      <point x="277.3636363636364" y="1486.0" type="line"/>
      <point x="116.27272727272728" y="728.7272727272727" type="line"/>
      <point x="178.81818181818178" y="686.5454545454546" type="line"/>
      <point x="247.0909090909091" y="723.2727272727273"/>
      <point x="321.5454545454545" y="760.4545454545454"/>
      <point x="448.27272727272725" y="760.4545454545454" type="curve" smooth="yes"/>
      <point x="591.8181818181818" y="760.4545454545454"/>
      <point x="668.2727272727273" y="660.3636363636364"/>
      <point x="668.2727272727273" y="501.0909090909091" type="curve" smooth="yes"/>
      <point x="668.2727272727273" y="260.99999999999994"/>
      <point x="507.5454545454545" y="75.63636363636363"/>
      <point x="221.0" y="75.63636363636363" type="curve" smooth="yes"/>
      <point x="154.45454545454547" y="75.63636363636363"/>
      <point x="94.9090909090909" y="90.0909090909091"/>
    </contour>
  </outline>
</glyph>
<glyph name="six" format="2">
  <advance width="1191.090909090909"/>
  <unicode hex="0036"/>
  <outline>
    <contour>
      <point x="571.2727272727273" y="-28.636363636363637" type="curve" smooth="yes"/>
      <point x="905.4545454545455" y="-28.636363636363637"/>
      <point x="1149.6363636363635" y="235.27272727272728"/>
      <point x="1149.6363636363635" y="586.8181818181819" type="curve" smooth="yes"/>
      <point x="1149.6363636363635" y="817.7272727272727"/>
      <point x="997.090909090909" y="963.3636363636364"/>
      <point x="794.7272727272727" y="963.3636363636364" type="curve" smooth="yes"/>
      <point x="652.4545454545455" y="963.3636363636364"/>
      <point x="506.18181818181813" y="887.9090909090909"/>
      <point x="447.5454545454545" y="788.2727272727273" type="curve"/>
      <point x="503.09090909090907" y="1074.7272727272727"/>
      <point x="718.909090909091" y="1373.1818181818182"/>
      <point x="1018.0000000000001" y="1448.2727272727273" type="curve"/>
      <point x="985.7272727272729" y="1524.090909090909" type="line"/>
      <point x="472.18181818181813" y="1456.3636363636363"/>
      <point x="63.81818181818183" y="1034.181818181818"/>
      <point x="63.81818181818183" y="535.9090909090909" type="curve" smooth="yes"/>
      <point x="63.81818181818183" y="230.27272727272725"/>
      <point x="235.45454545454547" y="-28.636363636363637"/>
    </contour>
    <contour>
      <point x="579.4545454545454" y="57.27272727272728" type="curve" smooth="yes"/>
      <point x="456.72727272727275" y="57.272727272727266"/>
      <point x="407.0" y="191.27272727272725"/>
      <point x="407.0" y="404.6363636363636" type="curve" smooth="yes"/>
      <point x="407.0" y="498.90909090909105"/>
      <point x="415.0" y="585.6363636363636"/>
      <point x="430.81818181818187" y="681.9090909090909" type="curve"/>
      <point x="475.9090909090909" y="749.1818181818181"/>
      <point x="553.0909090909091" y="801.2727272727273"/>
      <point x="641.5454545454545" y="801.2727272727273" type="curve" smooth="yes"/>
      <point x="727.7272727272727" y="801.2727272727273"/>
      <point x="803.9090909090909" y="716.3636363636363"/>
      <point x="803.9090909090909" y="519.818181818182" type="curve" smooth="yes"/>
      <point x="803.9090909090909" y="257.45454545454544"/>
      <point x="721.2727272727274" y="57.27272727272728"/>
    </contour>
  </outline>
</glyph>
<glyph name="seven" format="2">
  <advance width="1076.6363636363635"/>
  <unicode hex="0037"/>
  <outline>
    <contour>
      <point x="979.2727272727273" y="1212.2727272727273" type="line"/>
      <point x="232.45454545454544" y="0.0" type="line"/>
      <point x="593.7272727272729" y="-2.0" type="line"/>
      <point x="1162.9090909090908" y="1436.0" type="line"/>
      <point x="1126.3636363636365" y="1486.0" type="line"/>
      <point x="193.63636363636363" y="1486.0" type="line"/>
      <point x="123.81818181818181" y="1015.818181818182" type="line"/>
      <point x="237.9090909090909" y="997.9090909090909" type="line"/>
      <point x="345.18181818181813" y="1212.2727272727273" type="line"/>
    </contour>
  </outline>
</glyph>
<glyph name="eight" format="2">
  <advance width="1153.909090909091"/>
  <unicode hex="0038"/>
  <outline>
    <contour>
      <point x="526.4545454545455" y="-21.090909090909093" type="curve" smooth="yes"/>
      <point x="862.9090909090909" y="-21.090909090909093"/>
      <point x="1082.2727272727273" y="173.0909090909091"/>
      <point x="1083.8181818181818" y="412.3636363636364" type="curve" smooth="yes"/>
      <point x="1085.3636363636363" y="603.5454545454545"/>
      <point x="952.9090909090909" y="715.0909090909091"/>
      <point x="790.9090909090909" y="826.5454545454545" type="curve"/>
      <point x="982.3636363636363" y="884.1818181818182"/>
      <point x="1142.5454545454547" y="1022.3636363636364"/>
      <point x="1143.7272727272727" y="1201.4545454545455" type="curve" smooth="yes"/>
      <point x="1144.909090909091" y="1382.9090909090908"/>
      <point x="952.2727272727273" y="1502.0"/>
      <point x="710.5454545454545" y="1502.0" type="curve" smooth="yes"/>
      <point x="393.72727272727275" y="1502.0"/>
      <point x="187.36363636363637" y="1302.4545454545455"/>
      <point x="185.54545454545453" y="1079.5454545454547" type="curve" smooth="yes"/>
      <point x="185.00000000000003" y="936.8181818181818"/>
      <point x="276.3636363636363" y="818.0000000000001"/>
      <point x="403.54545454545456" y="718.6363636363637" type="curve"/>
      <point x="203.72727272727275" y="678.4545454545455"/>
      <point x="29.54545454545454" y="536.1818181818182"/>
      <point x="30.636363636363633" y="343.6363636363636" type="curve" smooth="yes"/>
      <point x="31.36363636363636" y="93.45454545454545"/>
      <point x="302.3636363636364" y="-21.090909090909093"/>
    </contour>
    <contour>
      <point x="726.0909090909091" y="878.0" type="curve"/>
      <point x="588.6363636363637" y="963.9090909090909"/>
      <point x="489.72727272727275" y="1059.818181818182"/>
      <point x="489.3636363636364" y="1202.6363636363635" type="curve" smooth="yes"/>
      <point x="489.0" y="1345.7272727272725"/>
      <point x="586.2727272727274" y="1425.7272727272727"/>
      <point x="702.5454545454546" y="1425.7272727272727" type="curve" smooth="yes"/>
      <point x="822.1818181818181" y="1425.7272727272727"/>
      <point x="893.2727272727273" y="1335.5454545454545"/>
      <point x="892.3636363636364" y="1196.0" type="curve" smooth="yes"/>
      <point x="891.4545454545455" y="1065.0909090909092"/>
      <point x="819.4545454545455" y="942.3636363636364"/>
    </contour>
    <contour>
      <point x="546.4545454545455" y="60.81818181818182" type="curve" smooth="yes"/>
      <point x="390.27272727272725" y="53.81818181818182"/>
      <point x="297.4545454545455" y="175.45454545454544"/>
      <point x="297.0909090909091" y="334.0" type="curve" smooth="yes"/>
      <point x="296.72727272727275" y="487.54545454545456"/>
      <point x="373.7272727272727" y="614.909090909091"/>
      <point x="471.45454545454544" y="669.1818181818181" type="curve"/>
      <point x="632.090909090909" y="555.9090909090909"/>
      <point x="756.3636363636364" y="455.6363636363636"/>
      <point x="756.7272727272726" y="308.54545454545456" type="curve" smooth="yes"/>
      <point x="757.0909090909091" y="156.90909090909088"/>
      <point x="677.3636363636364" y="66.54545454545455"/>
    </contour>
  </outline>
</glyph>
<glyph name="nine" format="2">
  <advance width="1201.090909090909"/>
  <unicode hex="0039"/>
  <outline>
    <contour>
      <point x="277.6363636363636" y="-45.36363636363636" type="line"/>
      <point x="800.0909090909091" y="22.727272727272723"/>
      <point x="1197.0909090909088" y="456.1818181818182"/>
      <point x="1198.181818181818" y="954.9090909090909" type="curve" smooth="yes"/>
      <point x="1198.9090909090908" y="1250.909090909091"/>
      <point x="1033.1818181818182" y="1504.090909090909"/>
      <point x="686.909090909091" y="1503.7272727272727" type="curve" smooth="yes"/>
      <point x="358.3636363636364" y="1503.3636363636365"/>
      <point x="107.72727272727273" y="1273.0909090909092"/>
      <point x="107.72727272727273" y="943.5454545454546" type="curve" smooth="yes"/>
      <point x="107.72727272727273" y="697.6363636363636"/>
      <point x="265.27272727272725" y="508.3636363636364"/>
      <point x="489.27272727272725" y="508.3636363636364" type="curve" smooth="yes"/>
      <point x="619.4545454545454" y="508.3636363636364"/>
      <point x="740.0000000000001" y="565.5454545454545"/>
      <point x="805.7272727272726" y="679.5454545454546" type="curve"/>
      <point x="761.6363636363635" y="417.27272727272725"/>
      <point x="542.1818181818181" y="96.0"/>
      <point x="242.7272727272727" y="32.36363636363636" type="curve"/>
    </contour>
    <contour>
      <point x="619.1818181818182" y="665.5454545454545" type="curve" smooth="yes"/>
      <point x="523.4545454545456" y="665.5454545454545"/>
      <point x="452.0" y="778.8181818181819"/>
      <point x="452.0" y="975.5454545454545" type="curve" smooth="yes"/>
      <point x="452.0" y="1179.8181818181815"/>
      <point x="522.5454545454545" y="1420.3636363636365"/>
      <point x="686.3636363636364" y="1420.3636363636365" type="curve" smooth="yes"/>
      <point x="805.8181818181819" y="1420.3636363636363"/>
      <point x="853.2727272727273" y="1271.7272727272727"/>
      <point x="853.2727272727274" y="1062.9090909090908" type="curve" smooth="yes"/>
      <point x="853.2727272727273" y="950.2727272727273"/>
      <point x="841.818181818182" y="876.0000000000001"/>
      <point x="820.5454545454546" y="781.2727272727274" type="curve"/>
      <point x="770.9090909090909" y="710.8181818181819"/>
      <point x="690.4545454545455" y="665.5454545454545"/>
    </contour>
  </outline>
</glyph>
<glyph name="less" format="2">
  <advance width="1159.181818181818"/>
  <unicode hex="003C"/>
  <outline>
    <contour>
      <point x="119.27272727272727" y="635.6363636363636" type="line"/>
      <point x="107.09090909090908" y="545.3636363636364" type="line"/>
      <point x="942.7272727272727" y="91.27272727272727" type="line"/>
      <point x="959.7272727272726" y="235.54545454545453" type="line"/>
      <point x="289.36363636363643" y="586.2727272727273" type="line"/>
      <point x="1055.4545454545455" y="936.0909090909091" type="line"/>
      <point x="1075.3636363636365" y="1092.909090909091" type="line"/>
    </contour>
  </outline>
</glyph>
<glyph name="equal" format="2">
  <advance width="1137.9999999999998"/>
  <unicode hex="003D"/>
  <outline>
    <contour>
      <point x="207.36363636363637" y="912.5454545454545" type="line"/>
      <point x="190.27272727272725" y="790.0" type="line"/>
      <point x="1020.5454545454546" y="790.0" type="line"/>
      <point x="1037.6363636363635" y="912.5454545454545" type="line"/>
    </contour>
    <contour>
      <point x="136.63636363636365" y="395.72727272727275" type="line"/>
      <point x="119.9090909090909" y="273.1818181818182" type="line"/>
      <point x="950.1818181818181" y="273.1818181818182" type="line"/>
      <point x="967.2727272727274" y="395.72727272727275" type="line"/>
    </contour>
  </outline>
</glyph>
<glyph name="question" format="2">
  <advance width="882.9090909090909"/>
  <unicode hex="003F"/>
  <outline>
    <contour>
      <point x="274.7272727272728" y="453.6363636363636" type="curve"/>
      <point x="287.45454545454544" y="451.6363636363636" type="line"/>
      <point x="379.0" y="478.90909090909093" type="line"/>
      <point x="367.7272727272727" y="513.9090909090909"/>
      <point x="363.90909090909093" y="582.3636363636364"/>
      <point x="366.72727272727275" y="655.3636363636364" type="curve" smooth="yes"/>
      <point x="370.1818181818182" y="745.3636363636364"/>
      <point x="426.5454545454545" y="784.4545454545454"/>
      <point x="508.2727272727273" y="830.090909090909" type="curve" smooth="yes"/>
      <point x="625.9999999999999" y="894.7272727272727"/>
      <point x="745.7272727272727" y="969.1818181818181"/>
      <point x="823.3636363636364" y="1054.909090909091" type="curve" smooth="yes"/>
      <point x="903.5454545454545" y="1138.5454545454545"/>
      <point x="959.1818181818181" y="1247.6363636363637"/>
      <point x="959.1818181818181" y="1385.909090909091" type="curve" smooth="yes"/>
      <point x="959.1818181818181" y="1550.5454545454545"/>
      <point x="865.4545454545455" y="1754.6363636363637"/>
      <point x="542.5454545454545" y="1754.6363636363637" type="curve" smooth="yes"/>
      <point x="335.8181818181818" y="1754.6363636363637"/>
      <point x="215.9090909090909" y="1667.1818181818182"/>
      <point x="192.63636363636363" y="1648.1818181818182" type="curve"/>
      <point x="166.72727272727275" y="1532.0" type="line"/>
      <point x="197.63636363636365" y="1549.2727272727273"/>
      <point x="286.81818181818187" y="1586.7272727272727"/>
      <point x="390.6363636363636" y="1586.7272727272727" type="curve" smooth="yes"/>
      <point x="549.090909090909" y="1586.7272727272727"/>
      <point x="650.1818181818182" y="1506.909090909091"/>
      <point x="647.6363636363636" y="1296.0000000000002" type="curve" smooth="yes"/>
      <point x="646.9090909090909" y="1220.818181818182"/>
      <point x="630.090909090909" y="1154.7272727272725"/>
      <point x="605.6363636363636" y="1115.0" type="curve"/>
      <point x="562.6363636363636" y="1055.9090909090908"/>
      <point x="500.72727272727275" y="1003.7272727272727"/>
      <point x="417.99999999999994" y="951.4545454545454" type="curve" smooth="yes"/>
      <point x="307.9090909090909" y="877.5454545454546"/>
      <point x="218.54545454545456" y="813.909090909091"/>
      <point x="217.27272727272728" y="694.3636363636364" type="curve" smooth="yes"/>
      <point x="216.0" y="607.9090909090909"/>
      <point x="254.8181818181818" y="497.6363636363636"/>
    </contour>
    <contour>
      <point x="228.63636363636365" y="124.90909090909092" type="curve" smooth="yes"/>
      <point x="228.27272727272728" y="38.45454545454545"/>
      <point x="291.3636363636364" y="-21.272727272727273"/>
      <point x="359.6363636363636" y="-21.272727272727273" type="curve" smooth="yes"/>
      <point x="461.72727272727275" y="-21.272727272727273"/>
      <point x="538.4545454545454" y="51.72727272727272"/>
      <point x="538.4545454545454" y="173.27272727272728" type="curve" smooth="yes"/>
      <point x="538.4545454545454" y="252.72727272727275"/>
      <point x="485.27272727272725" y="319.1818181818182"/>
      <point x="398.0" y="319.1818181818182" type="curve" smooth="yes"/>
      <point x="304.7272727272727" y="319.1818181818182"/>
      <point x="229.00000000000003" y="238.45454545454544"/>
    </contour>
  </outline>
</glyph>
<glyph name="at" format="2">
  <advance width="1882.090909090909"/>
  <unicode hex="0040"/>
  <outline>
    <contour>
      <point x="59.36363636363636" y="312.0" type="curve" smooth="yes"/>
      <point x="59.36363636363636" y="-176.0909090909091"/>
      <point x="387.1818181818182" y="-500.0"/>
      <point x="855.3636363636364" y="-500.0" type="curve" smooth="yes"/>
      <point x="1038.818181818182" y="-500.0"/>
      <point x="1207.0909090909088" y="-452.0909090909091"/>
      <point x="1313.6363636363637" y="-368.1818181818182" type="curve"/>
      <point x="1292.4545454545455" y="-307.72727272727275" type="line"/>
      <point x="1206.909090909091" y="-372.0909090909091"/>
      <point x="1033.3636363636363" y="-427.90909090909093"/>
      <point x="872.4545454545455" y="-427.2727272727273" type="curve" smooth="yes"/>
      <point x="484.99999999999994" y="-426.0"/>
      <point x="216.81818181818178" y="-129.0"/>
      <point x="216.81818181818178" y="347.8181818181818" type="curve" smooth="yes"/>
      <point x="216.81818181818178" y="879.090909090909"/>
      <point x="574.6363636363636" y="1389.8181818181818"/>
      <point x="1091.6363636363637" y="1389.8181818181818" type="curve" smooth="yes"/>
      <point x="1392.7272727272727" y="1389.8181818181818"/>
      <point x="1701.7272727272727" y="1211.6363636363637"/>
      <point x="1701.7272727272727" y="795.0909090909091" type="curve" smooth="yes"/>
      <point x="1701.7272727272727" y="438.0"/>
      <point x="1502.4545454545453" y="106.81818181818183"/>
      <point x="1396.4545454545455" y="106.81818181818183" type="curve" smooth="yes"/>
      <point x="1366.3636363636363" y="106.81818181818183"/>
      <point x="1347.5454545454545" y="121.09090909090908"/>
      <point x="1347.5454545454545" y="176.63636363636363" type="curve" smooth="yes"/>
      <point x="1347.5454545454543" y="200.09090909090912"/>
      <point x="1346.6363636363637" y="228.63636363636365"/>
      <point x="1352.1818181818182" y="278.3636363636364" type="curve" smooth="yes"/>
      <point x="1374.7272727272727" y="450.18181818181824"/>
      <point x="1442.4545454545455" y="808.2727272727274"/>
      <point x="1496.3636363636363" y="980.5454545454545" type="curve"/>
      <point x="1261.4545454545453" y="944.5454545454545" type="line"/>
      <point x="1203.6363636363637" y="975.5454545454546"/>
      <point x="1111.6363636363635" y="997.6363636363636"/>
      <point x="1033.4545454545455" y="997.6363636363636" type="curve" smooth="yes"/>
      <point x="677.5454545454545" y="997.6363636363636"/>
      <point x="472.99999999999994" y="667.6363636363637"/>
      <point x="473.00000000000006" y="364.8181818181818" type="curve" smooth="yes"/>
      <point x="472.6363636363636" y="99.63636363636363"/>
      <point x="627.2727272727273" y="-35.54545454545455"/>
      <point x="742.4545454545455" y="-35.54545454545455" type="curve" smooth="yes"/>
      <point x="916.3636363636364" y="-35.54545454545455"/>
      <point x="1031.4545454545455" y="147.1818181818182"/>
      <point x="1151.6363636363637" y="397.1818181818182" type="curve"/>
      <point x="1106.8181818181818" y="250.27272727272725"/>
      <point x="1098.7272727272727" y="162.63636363636363"/>
      <point x="1098.7272727272725" y="119.18181818181817" type="curve" smooth="yes"/>
      <point x="1098.7272727272725" y="24.54545454545455"/>
      <point x="1145.6363636363635" y="-27.0"/>
      <point x="1231.8181818181818" y="-27.0" type="curve" smooth="yes"/>
      <point x="1527.9090909090908" y="-27.0"/>
      <point x="1845.2727272727275" y="333.81818181818187"/>
      <point x="1845.2727272727275" y="828.7272727272726" type="curve" smooth="yes"/>
      <point x="1845.2727272727275" y="1254.4545454545455"/>
      <point x="1482.3636363636363" y="1462.7272727272727"/>
      <point x="1150.5454545454545" y="1462.7272727272727" type="curve" smooth="yes"/>
      <point x="564.909090909091" y="1462.7272727272727"/>
      <point x="59.36363636363636" y="998.2727272727274"/>
    </contour>
    <contour>
      <point x="763.6363636363636" y="391.6363636363636" type="curve" smooth="yes"/>
      <point x="764.2727272727273" y="714.3636363636364"/>
      <point x="882.5454545454545" y="910.8181818181819"/>
      <point x="1016.6363636363636" y="910.8181818181819" type="curve" smooth="yes"/>
      <point x="1100.2727272727273" y="910.8181818181819"/>
      <point x="1169.4545454545455" y="871.3636363636364"/>
      <point x="1218.090909090909" y="814.2727272727273" type="curve"/>
      <point x="1152.2727272727275" y="510.6363636363636"/>
      <point x="994.7272727272726" y="153.0"/>
      <point x="871.5454545454545" y="153.0" type="curve" smooth="yes"/>
      <point x="804.5454545454546" y="153.0"/>
      <point x="764.2727272727273" y="238.54545454545456"/>
    </contour>
  </outline>
</glyph>
<glyph name="A" format="2">
  <advance width="1243.6363636363635"/>
  <unicode hex="0041"/>
  <anchor x="480.36363636363626" y="0.0" name="bottom"/>
  <anchor x="987.2727272727273" y="0.0" name="ogonek"/>
  <anchor x="749.1818181818182" y="1486.0" name="top"/>
  <outline>
    <contour>
      <point x="-168.45454545454547" y="0.0" type="line"/>
      <point x="312.54545454545456" y="0.0" type="line"/>
      <point x="318.6363636363636" y="62.27272727272727" type="line"/>
      <point x="120.0" y="91.54545454545455" type="line"/>
      <point x="560.7272727272726" y="1148.9999999999998" type="line"/>
      <point x="656.0" y="1404.818181818182" type="line"/>
      <point x="606.8181818181819" y="1383.3636363636365" type="line"/>
      <point x="631.6363636363636" y="1095.0" type="line"/>
      <point x="758.8181818181818" y="93.45454545454547" type="line"/>
      <point x="605.7272727272727" y="62.27272727272729" type="line"/>
      <point x="601.090909090909" y="0.0" type="line"/>
      <point x="1269.3636363636365" y="0.0" type="line"/>
      <point x="1274.090909090909" y="62.27272727272729" type="line"/>
      <point x="1142.9090909090912" y="94.18181818181817" type="line"/>
      <point x="922.8181818181819" y="1490.0" type="line"/>
      <point x="602.9090909090909" y="1488.7272727272727" type="line"/>
      <point x="-26.363636363636367" y="93.45454545454547" type="line"/>
      <point x="-164.27272727272728" y="62.27272727272728" type="line"/>
    </contour>
    <contour>
      <point x="184.72727272727275" y="456.63636363636357" type="line"/>
      <point x="877.0" y="456.63636363636357" type="line"/>
      <point x="870.0909090909091" y="550.1818181818182" type="line"/>
      <point x="223.18181818181816" y="550.1818181818182" type="line"/>
    </contour>
  </outline>
</glyph>
<glyph name="B" format="2">
  <advance width="1325.8181818181818"/>
  <unicode hex="0042"/>
  <anchor x="556.3636363636365" y="0.0" name="bottom"/>
  <anchor x="771.1818181818184" y="1486.0" name="top"/>
  <outline>
    <contour>
      <point x="159.18181818181816" y="1486.0" type="line"/>
      <point x="151.63636363636363" y="1424.1818181818182" type="line"/>
      <point x="278.3636363636363" y="1391.9090909090908" type="line"/>
      <point x="101.63636363636361" y="93.45454545454547" type="line"/>
      <point x="-30.545454545454547" y="61.63636363636365" type="line"/>
      <point x="-36.63636363636363" y="0.0" type="line"/>
      <point x="259.90909090909093" y="0.0" type="line" smooth="yes"/>
      <point x="371.4545454545455" y="0.0"/>
      <point x="451.4545454545455" y="-20.0"/>
      <point x="616.0909090909091" y="-20.0" type="curve" smooth="yes"/>
      <point x="1012.0000000000001" y="-20.0"/>
      <point x="1280.3636363636363" y="119.45454545454545"/>
      <point x="1280.3636363636363" y="473.36363636363643" type="curve" smooth="yes"/>
      <point x="1280.3636363636363" y="643.4545454545455"/>
      <point x="1151.4545454545455" y="780.7272727272726"/>
      <point x="912.9090909090909" y="779.5454545454545" type="curve"/>
      <point x="1159.6363636363637" y="826.8181818181818"/>
      <point x="1291.9090909090908" y="969.2727272727273"/>
      <point x="1288.9999999999998" y="1189.0000000000002" type="curve" smooth="yes"/>
      <point x="1286.8181818181818" y="1343.272727272727"/>
      <point x="1177.9090909090908" y="1502.0"/>
      <point x="822.090909090909" y="1502.0" type="curve" smooth="yes"/>
      <point x="641.6363636363637" y="1502.0"/>
      <point x="595.3636363636363" y="1486.7272727272727"/>
      <point x="470.27272727272725" y="1486.0" type="curve" smooth="yes"/>
    </contour>
    <contour>
      <point x="442.90909090909093" y="20.999999999999996" type="line"/>
      <point x="539.5454545454546" y="731.8181818181818" type="line"/>
      <point x="485.4545454545454" y="710.9090909090909" type="line"/>
      <point x="531.6363636363636" y="717.5454545454545"/>
      <point x="565.9090909090909" y="720.1818181818182"/>
      <point x="651.4545454545454" y="720.1818181818182" type="curve" smooth="yes"/>
      <point x="816.5454545454546" y="720.1818181818182"/>
      <point x="914.0909090909091" y="643.0"/>
      <point x="916.2727272727274" y="471.90909090909093" type="curve" smooth="yes"/>
      <point x="919.9090909090909" y="206.54545454545456"/>
      <point x="806.2727272727273" y="62.18181818181818"/>
      <point x="612.9090909090909" y="62.18181818181818" type="curve" smooth="yes"/>
      <point x="529.1818181818182" y="62.18181818181818"/>
      <point x="438.72727272727263" y="86.45454545454547"/>
      <point x="369.72727272727275" y="112.72727272727273" type="curve"/>
    </contour>
    <contour>
      <point x="546.1818181818181" y="789.6363636363636" type="line"/>
      <point x="639.4545454545455" y="1465.8181818181818" type="line"/>
      <point x="534.6363636363636" y="1341.4545454545457" type="line"/>
      <point x="606.0909090909092" y="1414.090909090909"/>
      <point x="670.0" y="1419.0909090909092"/>
      <point x="732.3636363636364" y="1419.0909090909092" type="curve" smooth="yes"/>
      <point x="862.0" y="1419.0909090909092"/>
      <point x="946.9090909090909" y="1331.5454545454547"/>
      <point x="949.0909090909091" y="1173.1818181818182" type="curve" smooth="yes"/>
      <point x="952.0" y="930.3636363636364"/>
      <point x="806.3636363636364" y="809.2727272727273"/>
      <point x="662.7272727272727" y="809.2727272727273" type="curve" smooth="yes"/>
      <point x="567.5454545454545" y="809.2727272727273"/>
      <point x="558.6363636363637" y="807.6363636363637"/>
      <point x="522.4545454545455" y="810.909090909091" type="curve"/>
    </contour>
  </outline>
</glyph>
<glyph name="C" format="2">
  <advance width="1254.6363636363633"/>
  <unicode hex="0043"/>
  <anchor x="658.2727272727273" y="0.0" name="bottom"/>
  <anchor x="824.2727272727274" y="1486.0" name="top"/>
  <outline>
    <contour>
      <point x="628.0" y="-20.454545454545453" type="curve" smooth="yes"/>
      <point x="932.5454545454545" y="-20.454545454545453"/>
      <point x="1047.090909090909" y="62.72727272727272"/>
      <point x="1130.6363636363637" y="84.18181818181819" type="curve"/>
      <point x="1197.4545454545455" y="443.3636363636364" type="line"/>
      <point x="1006.9999999999999" y="443.3636363636364" type="line"/>
      <point x="987.0" y="368.3636363636364"/>
      <point x="931.8181818181819" y="206.90909090909093"/>
      <point x="903.5454545454545" y="165.90909090909088" type="curve"/>
      <point x="857.2727272727273" y="97.0909090909091"/>
      <point x="763.0909090909091" y="72.54545454545455"/>
      <point x="696.5454545454545" y="72.54545454545455" type="curve" smooth="yes"/>
      <point x="504.99999999999994" y="72.54545454545455"/>
      <point x="450.1818181818182" y="338.18181818181813"/>
      <point x="446.54545454545456" y="580.9090909090909" type="curve" smooth="yes"/>
      <point x="443.6363636363636" y="1003.0000000000001"/>
      <point x="578.7272727272729" y="1422.2727272727273"/>
      <point x="846.2727272727273" y="1422.2727272727273" type="curve" smooth="yes"/>
      <point x="896.6363636363636" y="1422.2727272727273"/>
      <point x="947.3636363636364" y="1415.909090909091"/>
      <point x="978.5454545454546" y="1392.5454545454547" type="curve"/>
      <point x="1005.7272727272727" y="1025.2727272727273" type="line"/>
      <point x="1241.7272727272725" y="1025.2727272727273" type="line"/>
      <point x="1307.4545454545453" y="1450.0" type="line"/>
      <point x="1200.4545454545455" y="1452.5454545454545"/>
      <point x="1095.0" y="1505.2727272727273"/>
      <point x="871.2727272727273" y="1505.2727272727273" type="curve" smooth="yes"/>
      <point x="345.54545454545456" y="1505.2727272727273"/>
      <point x="62.63636363636364" y="1096.2727272727273"/>
      <point x="62.63636363636363" y="605.4545454545455" type="curve" smooth="yes"/>
      <point x="62.63636363636364" y="286.72727272727275"/>
      <point x="195.36363636363637" y="-20.454545454545453"/>
    </contour>
  </outline>
</glyph>
<glyph name="D" format="2">
  <advance width="1436.0"/>
  <unicode hex="0044"/>
  <anchor x="363.02218181818176" y="748.0" name="bar"/>
  <anchor x="578.2727272727274" y="0.0" name="bottom"/>
  <anchor x="799.5454545454545" y="1486.0" name="top"/>
  <outline>
    <contour>
      <point x="159.90909090909088" y="1486.0" type="line"/>
      <point x="153.09090909090907" y="1423.8181818181818" type="line"/>
      <point x="278.3636363636364" y="1392.272727272727" type="line"/>
      <point x="100.18181818181816" y="93.09090909090911" type="line"/>
      <point x="-37.81818181818181" y="61.27272727272728" type="line"/>
      <point x="-45.36363636363637" y="0.0" type="line"/>
      <point x="275.6363636363636" y="0.0" type="line" smooth="yes"/>
      <point x="360.27272727272725" y="0.0"/>
      <point x="504.54545454545456" y="-20.454545454545453"/>
      <point x="594.1818181818181" y="-20.454545454545453" type="curve" smooth="yes"/>
      <point x="1170.1818181818182" y="-20.454545454545453"/>
      <point x="1435.9090909090908" y="388.72727272727275"/>
      <point x="1435.9090909090908" y="914.6363636363636" type="curve" smooth="yes"/>
      <point x="1435.909090909091" y="1228.636363636364"/>
      <point x="1290.2727272727275" y="1502.7272727272727"/>
      <point x="842.5454545454545" y="1502.0" type="curve" smooth="yes"/>
      <point x="726.5454545454546" y="1502.0"/>
      <point x="599.4545454545455" y="1486.7272727272727"/>
      <point x="469.1818181818182" y="1486.0" type="curve"/>
    </contour>
    <contour>
      <point x="451.8181818181818" y="41.36363636363637" type="line"/>
      <point x="644.9090909090909" y="1435.8181818181818" type="line"/>
      <point x="615.4545454545454" y="1385.6363636363637" type="line"/>
      <point x="642.7272727272727" y="1400.7272727272727"/>
      <point x="682.8181818181818" y="1421.9090909090908"/>
      <point x="783.8181818181819" y="1421.9090909090908" type="curve" smooth="yes"/>
      <point x="991.9090909090911" y="1421.9090909090908"/>
      <point x="1063.090909090909" y="1252.5454545454545"/>
      <point x="1063.090909090909" y="913.7272727272726" type="curve" smooth="yes"/>
      <point x="1063.090909090909" y="558.0909090909091"/>
      <point x="955.2727272727273" y="60.90909090909091"/>
      <point x="595.2727272727271" y="60.90909090909091" type="curve" smooth="yes"/>
      <point x="495.5454545454545" y="60.90909090909091"/>
      <point x="452.8181818181818" y="93.90909090909092"/>
      <point x="386.6363636363637" y="105.54545454545455" type="curve"/>
    </contour>
  </outline>
</glyph>
<glyph name="E" format="2">
  <advance width="1249.0909090909092"/>
  <unicode hex="0045"/>
  <anchor x="579.909090909091" y="0.0" name="bottom"/>
  <anchor x="892.3636363636363" y="0.0" name="ogonek"/>
  <anchor x="724.7272727272727" y="1486.0" name="top"/>
  <anchor x="140.99999999999997" y="1486.0" name="topleft"/>
  <outline>
    <contour>
      <point x="-44.63636363636363" y="0.0" type="line"/>
      <point x="1107.3636363636363" y="0.0" type="line"/>
      <point x="1212.7272727272727" y="451.4545454545455" type="line"/>
      <point x="1040.8181818181818" y="468.6363636363637" type="line"/>
      <point x="862.2727272727273" y="115.72727272727273" type="line"/>
      <point x="462.3636363636363" y="86.81818181818183" type="line"/>
      <point x="547.4545454545455" y="720.090909090909" type="line"/>
      <point x="970.2727272727273" y="700.6363636363636" type="line"/>
      <point x="996.7272727272726" y="850.4545454545454" type="line"/>
      <point x="560.4545454545454" y="816.3636363636363" type="line"/>
      <point x="641.1818181818181" y="1411.090909090909" type="line"/>
      <point x="962.5454545454545" y="1385.090909090909" type="line"/>
      <point x="1046.090909090909" y="1115.2727272727273" type="line"/>
      <point x="1196.181818181818" y="1115.2727272727273" type="line"/>
      <point x="1222.1818181818182" y="1486.0" type="line"/>
      <point x="159.18181818181816" y="1486.0" type="line"/>
      <point x="151.63636363636363" y="1424.1818181818182" type="line"/>
      <point x="278.3636363636363" y="1391.9090909090908" type="line"/>
      <point x="100.54545454545453" y="93.0909090909091" type="line"/>
      <point x="-35.72727272727273" y="62.27272727272728" type="line"/>
    </contour>
  </outline>
</glyph>
<glyph name="F" format="2">
  <advance width="1164.1818181818182"/>
  <unicode hex="0046"/>
  <anchor x="761.9090909090909" y="1486.0" name="top"/>
  <outline>
    <contour>
      <point x="-39.18181818181819" y="0.0" type="line"/>
      <point x="738.0" y="0.0" type="line"/>
      <point x="743.4545454545454" y="61.909090909090914" type="line"/>
      <point x="463.3636363636364" y="106.45454545454545" type="line"/>
      <point x="546.0000000000001" y="711.7272727272726" type="line"/>
      <point x="971.9090909090909" y="689.3636363636364" type="line"/>
      <point x="996.9090909090911" y="837.0000000000001" type="line"/>
      <point x="559.0" y="808.3636363636364" type="line"/>
      <point x="641.1818181818182" y="1410.3636363636363" type="line"/>
      <point x="969.7272727272727" y="1385.090909090909" type="line"/>
      <point x="1036.181818181818" y="1110.1818181818182" type="line"/>
      <point x="1203.3636363636365" y="1110.1818181818182" type="line"/>
      <point x="1231.5454545454547" y="1486.0" type="line"/>
      <point x="159.1818181818182" y="1486.0" type="line"/>
      <point x="150.90909090909093" y="1424.1818181818182" type="line"/>
      <point x="277.6363636363636" y="1391.9090909090908" type="line"/>
      <point x="99.81818181818181" y="93.09090909090911" type="line"/>
      <point x="-31.636363636363633" y="61.27272727272728" type="line"/>
    </contour>
  </outline>
</glyph>
<glyph name="G" format="2">
  <advance width="1379.6363636363635"/>
  <unicode hex="0047"/>
  <anchor x="949.0170909090909" y="397.0" name="bar"/>
  <anchor x="650.2727272727273" y="0.0" name="bottom"/>
  <anchor x="883.2727272727274" y="1486.0" name="top"/>
  <outline>
    <contour>
      <point x="631.3636363636363" y="-20.454545454545453" type="curve" smooth="yes"/>
      <point x="806.6363636363636" y="-20.454545454545453"/>
      <point x="934.5454545454546" y="20.636363636363637"/>
      <point x="1045.0" y="48.72727272727273" type="curve" smooth="yes"/>
      <point x="1099.1818181818182" y="62.81818181818182"/>
      <point x="1160.9090909090908" y="75.63636363636364"/>
      <point x="1207.3636363636363" y="75.63636363636364" type="curve"/>
      <point x="1303.6363636363637" y="728.6363636363636" type="line"/>
      <point x="779.5454545454545" y="728.6363636363636" type="line"/>
      <point x="769.8181818181818" y="654.0909090909091" type="line"/>
      <point x="944.3636363636364" y="621.5454545454546" type="line"/>
      <point x="870.7272727272727" y="109.72727272727272" type="line"/>
      <point x="817.8181818181819" y="83.54545454545455"/>
      <point x="746.1818181818181" y="68.9090909090909"/>
      <point x="674.9090909090909" y="68.9090909090909" type="curve" smooth="yes"/>
      <point x="481.90909090909093" y="68.9090909090909"/>
      <point x="434.54545454545456" y="354.18181818181813"/>
      <point x="434.54545454545456" y="580.909090909091" type="curve" smooth="yes"/>
      <point x="434.54545454545456" y="1041.1818181818182"/>
      <point x="574.6363636363635" y="1422.2727272727273"/>
      <point x="852.3636363636365" y="1422.2727272727273" type="curve" smooth="yes"/>
      <point x="937.0" y="1422.2727272727273"/>
      <point x="1000.3636363636364" y="1394.818181818182"/>
      <point x="1028.6363636363637" y="1370.3636363636365" type="curve"/>
      <point x="1053.2727272727273" y="1098.3636363636363" type="line"/>
      <point x="1278.1818181818182" y="1098.3636363636363" type="line"/>
      <point x="1336.7272727272727" y="1444.909090909091" type="line"/>
      <point x="1307.1818181818182" y="1446.3636363636365"/>
      <point x="1281.1818181818182" y="1450.3636363636365"/>
      <point x="1254.8181818181818" y="1455.6363636363635" type="curve"/>
      <point x="1171.7272727272727" y="1473.090909090909"/>
      <point x="1077.3636363636365" y="1505.2727272727273"/>
      <point x="856.6363636363637" y="1505.2727272727273" type="curve" smooth="yes"/>
      <point x="327.0" y="1505.2727272727273"/>
      <point x="59.54545454545454" y="1097.7272727272727"/>
      <point x="63.18181818181818" y="601.8181818181819" type="curve" smooth="yes"/>
      <point x="65.36363636363636" y="286.7272727272727"/>
      <point x="208.63636363636365" y="-20.454545454545453"/>
    </contour>
  </outline>
</glyph>
<glyph name="H" format="2">
  <advance width="1521.1818181818182"/>
  <unicode hex="0048"/>
  <anchor x="702.1818181818182" y="0.0" name="bottom"/>
  <anchor x="1422.5454545454547" y="0.0" name="bottomright"/>
  <anchor x="898.4545454545455" y="1486.0" name="top"/>
  <outline>
    <contour>
      <point x="-39.18181818181818" y="0.0" type="line"/>
      <point x="599.1818181818182" y="0.0" type="line"/>
      <point x="606.5454545454546" y="61.27272727272728" type="line"/>
      <point x="460.72727272727275" y="93.09090909090911" type="line"/>
      <point x="638.5454545454544" y="1391.9090909090908" type="line"/>
      <point x="798.2727272727274" y="1424.1818181818182" type="line"/>
      <point x="805.1818181818182" y="1486.0" type="line"/>
      <point x="159.18181818181816" y="1486.0" type="line"/>
      <point x="150.9090909090909" y="1424.1818181818182" type="line"/>
      <point x="277.6363636363636" y="1391.9090909090908" type="line"/>
      <point x="99.81818181818181" y="93.09090909090911" type="line"/>
      <point x="-32.36363636363636" y="61.27272727272728" type="line"/>
    </contour>
    <contour>
      <point x="474.54545454545456" y="715.9999999999999" type="line"/>
      <point x="1080.5454545454547" y="715.9999999999999" type="line"/>
      <point x="1080.5454545454547" y="806.8181818181819" type="line"/>
      <point x="474.5454545454546" y="806.8181818181819" type="line"/>
    </contour>
    <contour>
      <point x="787.1818181818182" y="0.0" type="line"/>
      <point x="1421.6363636363635" y="0.0" type="line"/>
      <point x="1429.818181818182" y="61.909090909090914" type="line"/>
      <point x="1300.5454545454545" y="93.09090909090911" type="line"/>
      <point x="1478.0" y="1392.272727272727" type="line"/>
      <point x="1616.2727272727275" y="1423.8181818181818" type="line"/>
      <point x="1621.9090909090912" y="1486.0" type="line"/>
      <point x="987.9090909090909" y="1486.0" type="line"/>
      <point x="980.3636363636364" y="1423.8181818181818" type="line"/>
      <point x="1117.0909090909092" y="1392.272727272727" type="line"/>
      <point x="939.6363636363636" y="93.09090909090911" type="line"/>
      <point x="795.4545454545455" y="61.909090909090914" type="line"/>
    </contour>
  </outline>
</glyph>
<glyph name="I" format="2">
  <advance width="719.8181818181819"/>
  <unicode hex="0049"/>
  <anchor x="290.3636363636364" y="0.0" name="bottom"/>
  <anchor x="489.4545454545455" y="-164.0" name="btm"/>
  <anchor x="302.72727272727275" y="0.0" name="ogonek"/>
  <anchor x="494.72727272727275" y="1486.0" name="top"/>
  <anchor x="180.45454545454544" y="1486.0" name="topleft"/>
  <outline>
    <contour>
      <point x="-37.09090909090909" y="0.0" type="line"/>
      <point x="612.1818181818182" y="0.0" type="line"/>
      <point x="618.2727272727273" y="61.90909090909092" type="line"/>
      <point x="480.0909090909091" y="93.09090909090911" type="line"/>
      <point x="657.909090909091" y="1391.9090909090908" type="line"/>
      <point x="811.2727272727273" y="1424.1818181818182" type="line"/>
      <point x="818.1818181818182" y="1486.0" type="line"/>
      <point x="163.45454545454547" y="1486.0" type="line"/>
      <point x="155.1818181818182" y="1424.1818181818182" type="line"/>
      <point x="296.3636363636363" y="1391.9090909090908" type="line"/>
      <point x="119.18181818181819" y="93.09090909090911" type="line"/>
      <point x="-30.272727272727266" y="61.90909090909092" type="line"/>
    </contour>
  </outline>
</glyph>
<glyph name="J" format="2">
  <advance width="667.6363636363637"/>
  <unicode hex="004A"/>
  <anchor x="230.90909090909088" y="-164.0" name="btm"/>
  <anchor x="459.9090909090909" y="1486.0" name="top"/>
  <outline>
    <contour>
      <point x="-144.36363636363637" y="-320.7272727272727" type="line"/>
      <point x="199.36363636363637" y="-267.45454545454544"/>
      <point x="383.9090909090909" y="-103.45454545454544"/>
      <point x="449.27272727272725" y="116.0" type="curve" smooth="yes"/>
      <point x="503.909090909091" y="312.3636363636364"/>
      <point x="550.2727272727273" y="789.3636363636365"/>
      <point x="624.6363636363636" y="1391.909090909091" type="curve"/>
      <point x="759.0909090909091" y="1424.1818181818182" type="line"/>
      <point x="767.4545454545456" y="1486.0" type="line"/>
      <point x="140.3636363636364" y="1486.0" type="line"/>
      <point x="132.09090909090912" y="1424.1818181818182" type="line"/>
      <point x="270.27272727272725" y="1391.181818181818" type="line"/>
      <point x="227.27272727272725" y="967.1818181818181"/>
      <point x="169.8181818181818" y="497.6363636363636"/>
      <point x="109.9090909090909" y="123.45454545454544" type="curve" smooth="yes"/>
      <point x="84.18181818181819" y="-36.09090909090909"/>
      <point x="1.4545454545454533" y="-187.09090909090907"/>
      <point x="-184.54545454545456" y="-252.0909090909091" type="curve"/>
    </contour>
  </outline>
</glyph>
<glyph name="K" format="2">
  <advance width="1470.4545454545455"/>
  <unicode hex="004B"/>
  <anchor x="784.0" y="0.0" name="bottom"/>
  <anchor x="907.0" y="1486.0" name="top"/>
  <outline>
    <contour>
      <point x="-40.27272727272727" y="0.0" type="line"/>
      <point x="601.0" y="0.0" type="line"/>
      <point x="608.7272727272726" y="61.63636363636364" type="line"/>
      <point x="461.09090909090907" y="93.45454545454547" type="line"/>
      <point x="636.3636363636364" y="1391.9090909090908" type="line"/>
      <point x="796.090909090909" y="1424.1818181818182" type="line"/>
      <point x="803.0" y="1486.0" type="line"/>
      <point x="159.18181818181816" y="1486.0" type="line"/>
      <point x="151.63636363636365" y="1424.1818181818182" type="line"/>
      <point x="277.6363636363636" y="1391.9090909090908" type="line"/>
      <point x="102.36363636363636" y="93.45454545454547" type="line"/>
      <point x="-31.999999999999996" y="61.63636363636365" type="line"/>
    </contour>
    <contour>
      <point x="487.6363636363637" y="518.3636363636363" type="line"/>
      <point x="1366.5454545454547" y="1394.4545454545457" type="line"/>
      <point x="1498.4545454545455" y="1425.4545454545455" type="line"/>
      <point x="1505.9999999999998" y="1486.0" type="line"/>
      <point x="1058.4545454545453" y="1486.0" type="line"/>
      <point x="1051.6363636363637" y="1426.1818181818182" type="line"/>
      <point x="1198.272727272727" y="1394.4545454545457" type="line"/>
      <point x="478.6363636363636" y="640.1818181818182" type="line"/>
    </contour>
    <contour>
      <point x="1429.6363636363637" y="0.0" type="line"/>
      <point x="1440.3636363636365" y="65.45454545454545" type="line"/>
      <point x="1348.090909090909" y="92.9090909090909" type="line"/>
      <point x="1282.4545454545457" y="131.0909090909091"/>
      <point x="1198.818181818182" y="333.45454545454544"/>
      <point x="1110.5454545454545" y="538.0909090909091" type="curve" smooth="yes"/>
      <point x="1036.2727272727273" y="709.6363636363635"/>
      <point x="973.6363636363637" y="878.9999999999999"/>
      <point x="925.1818181818181" y="987.5454545454545" type="curve"/>
      <point x="672.9090909090909" y="745.4545454545455" type="line"/>
      <point x="718.2727272727274" y="630.6363636363636"/>
      <point x="803.090909090909" y="345.8181818181818"/>
      <point x="860.9999999999999" y="206.5454545454545" type="curve" smooth="yes"/>
      <point x="918.7272727272726" y="64.72727272727272"/>
      <point x="932.5454545454546" y="2.1818181818181817"/>
      <point x="994.3636363636365" y="0.0" type="curve"/>
    </contour>
  </outline>
</glyph>
<glyph name="L" format="2">
  <advance width="1236.1818181818182"/>
  <unicode hex="004C"/>
  <anchor x="552.6363636363635" y="0.0" name="bottom"/>
  <anchor x="842.9090909090908" y="1110.0" name="car"/>
  <anchor x="954.7272727272726" y="1618.0" name="caron"/>
  <anchor x="377.6363636363637" y="743.0" name="center"/>
  <anchor x="502.90909090909093" y="1486.0" name="top"/>
  <anchor x="1366.2483636363634" y="1486.0" name="topright"/>
  <outline>
    <contour>
      <point x="-36.63636363636364" y="0.0" type="line"/>
      <point x="1068.1818181818182" y="0.0" type="line"/>
      <point x="1181.909090909091" y="537.0909090909091" type="line"/>
      <point x="1008.909090909091" y="557.1818181818181" type="line"/>
      <point x="807.4545454545455" y="106.1818181818182" type="line"/>
      <point x="461.27272727272725" y="79.18181818181817" type="line"/>
      <point x="639.1818181818181" y="1391.9090909090908" type="line"/>
      <point x="799.3636363636364" y="1424.1818181818182" type="line"/>
      <point x="806.2727272727273" y="1486.0" type="line"/>
      <point x="159.18181818181816" y="1486.0" type="line"/>
      <point x="150.9090909090909" y="1424.1818181818182" type="line"/>
      <point x="277.6363636363636" y="1391.9090909090908" type="line"/>
      <point x="102.36363636363636" y="93.45454545454547" type="line"/>
      <point x="-29.09090909090909" y="61.63636363636365" type="line"/>
    </contour>
  </outline>
</glyph>
<glyph name="M" format="2">
  <advance width="1890.7272727272725"/>
  <unicode hex="004D"/>
  <anchor x="812.9090909090909" y="0.0" name="bottom"/>
  <anchor x="1840.296" y="-1.1102230246251565e-16" name="bottomright"/>
  <anchor x="1066.9090909090908" y="1486.0" name="top"/>
  <outline>
    <contour>
      <point x="-93.9090909090909" y="0.0" type="line"/>
      <point x="401.54545454545456" y="0.0" type="line"/>
      <point x="408.3636363636364" y="60.36363636363637" type="line"/>
      <point x="219.9090909090909" y="93.45454545454544" type="line"/>
      <point x="423.9090909090909" y="1021.0000000000002" type="line"/>
      <point x="496.45454545454544" y="1362.0" type="line"/>
      <point x="527.5454545454544" y="1025.909090909091" type="line"/>
      <point x="634.8181818181816" y="0.0" type="line"/>
      <point x="889.1818181818181" y="-0.7272727272727273" type="line"/>
      <point x="1273.0000000000002" y="1034.0000000000002" type="line"/>
      <point x="1392.6363636363637" y="1371.9090909090908" type="line"/>
      <point x="1372.0000000000002" y="1015.2727272727274" type="line"/>
      <point x="1318.909090909091" y="93.45454545454547" type="line"/>
      <point x="1150.8181818181818" y="62.363636363636374" type="line"/>
      <point x="1144.7272727272725" y="0.0" type="line"/>
      <point x="1840.4545454545453" y="0.0" type="line"/>
      <point x="1846.5454545454543" y="60.363636363636374" type="line"/>
      <point x="1675.6363636363637" y="93.45454545454545" type="line"/>
      <point x="1723.818181818182" y="1391.9090909090908" type="line"/>
      <point x="1898.3636363636365" y="1424.818181818182" type="line"/>
      <point x="1906.6363636363635" y="1486.0" type="line"/>
      <point x="1326.909090909091" y="1486.0" type="line"/>
      <point x="999.0909090909091" y="565.8181818181819" type="line"/>
      <point x="921.4545454545454" y="321.45454545454544" type="line"/>
      <point x="903.3636363636364" y="565.8181818181819" type="line"/>
      <point x="825.7272727272727" y="1486.0" type="line"/>
      <point x="225.8181818181818" y="1486.0" type="line"/>
      <point x="216.1818181818182" y="1424.181818181818" type="line"/>
      <point x="392.1818181818182" y="1391.909090909091" type="line"/>
      <point x="68.45454545454545" y="93.45454545454545" type="line"/>
      <point x="-86.36363636363636" y="60.363636363636374" type="line"/>
    </contour>
  </outline>
</glyph>
<glyph name="N" format="2">
  <advance width="1458.7272727272727"/>
  <unicode hex="004E"/>
  <anchor x="702.3636363636365" y="0.0" name="bottom"/>
  <anchor x="887.2727272727274" y="1486.0" name="top"/>
  <outline>
    <contour>
      <point x="-36.54545454545454" y="0.0" type="line"/>
      <point x="436.18181818181813" y="0.0" type="line"/>
      <point x="443.0" y="60.0" type="line"/>
      <point x="261.36363636363643" y="93.09090909090911" type="line"/>
      <point x="405.45454545454544" y="1419.9090909090908" type="line"/>
      <point x="346.45454545454544" y="1413.3636363636363" type="line"/>
      <point x="470.4545454545454" y="1022.3636363636364" type="line"/>
      <point x="904.7272727272726" y="0.0" type="line"/>
      <point x="1181.909090909091" y="0.0" type="line"/>
      <point x="1373.272727272727" y="1391.0" type="line"/>
      <point x="1537.090909090909" y="1423.8181818181818" type="line"/>
      <point x="1542.0" y="1486.0" type="line"/>
      <point x="1079.4545454545455" y="1486.0" type="line"/>
      <point x="1072.6363636363635" y="1423.8181818181818" type="line"/>
      <point x="1242.2727272727273" y="1391.0" type="line"/>
      <point x="1108.3636363636363" y="202.54545454545456" type="line"/>
      <point x="1157.7272727272725" y="242.54545454545453" type="line"/>
      <point x="1044.1818181818182" y="563.8181818181819" type="line"/>
      <point x="660.3636363636364" y="1486.0" type="line"/>
      <point x="164.63636363636363" y="1486.0" type="line"/>
      <point x="155.0" y="1421.9090909090908" type="line"/>
      <point x="299.09090909090907" y="1390.9999999999998" type="line"/>
      <point x="118.54545454545456" y="93.0909090909091" type="line"/>
      <point x="-32.36363636363636" y="60.0" type="line"/>
    </contour>
  </outline>
</glyph>
<glyph name="O" format="2">
  <advance width="1395.6363636363635"/>
  <unicode hex="004F"/>
  <anchor x="634.2727272727274" y="0.0" name="bottom"/>
  <anchor x="734.3636363636364" y="740.8181818181819" name="center"/>
  <anchor x="739.6363636363636" y="0.0" name="ogonek"/>
  <anchor x="832.909090909091" y="1486.0" name="top"/>
  <anchor x="168.27272727272725" y="1486.0" name="topleft"/>
  <anchor x="1009.7272727272727" y="1486.0" name="topright"/>
  <outline>
    <contour>
      <point x="621.7272727272727" y="-22.545454545454547" type="curve" smooth="yes"/>
      <point x="1150.3636363636365" y="-22.545454545454547"/>
      <point x="1394.2727272727273" y="421.6363636363637"/>
      <point x="1394.2727272727273" y="893.0" type="curve" smooth="yes"/>
      <point x="1394.2727272727273" y="1195.2727272727273"/>
      <point x="1265.909090909091" y="1505.3636363636363"/>
      <point x="837.2727272727274" y="1505.3636363636363" type="curve" smooth="yes"/>
      <point x="306.5454545454545" y="1505.3636363636363"/>
      <point x="62.272727272727266" y="1061.090909090909"/>
      <point x="62.27272727272728" y="595.2727272727273" type="curve" smooth="yes"/>
      <point x="62.27272727272727" y="289.45454545454544"/>
      <point x="191.9090909090909" y="-22.545454545454547"/>
    </contour>
    <contour>
      <point x="640.8181818181818" y="58.36363636363636" type="curve" smooth="yes"/>
      <point x="468.09090909090907" y="58.36363636363636"/>
      <point x="435.81818181818176" y="302.54545454545456"/>
      <point x="435.8181818181818" y="576.0909090909091" type="curve" smooth="yes"/>
      <point x="435.81818181818176" y="1014.0000000000001"/>
      <point x="561.9090909090909" y="1423.4545454545453"/>
      <point x="814.3636363636365" y="1424.090909090909" type="curve" smooth="yes"/>
      <point x="996.1818181818181" y="1424.7272727272725"/>
      <point x="1020.0" y="1179.9999999999998"/>
      <point x="1020.0" y="913.4545454545454" type="curve" smooth="yes"/>
      <point x="1020.0" y="466.5454545454545"/>
      <point x="893.0" y="58.36363636363636"/>
    </contour>
  </outline>
</glyph>
<glyph name="P" format="2">
  <advance width="1271.8181818181818"/>
  <unicode hex="0050"/>
  <anchor x="853.588090909091" y="625.0" name="tick"/>
  <anchor x="756.6363636363636" y="1486.0" name="top"/>
  <outline>
    <contour>
      <point x="-44.272727272727266" y="0.0" type="line"/>
      <point x="722.7272727272727" y="0.0" type="line"/>
      <point x="728.0909090909091" y="60.0" type="line"/>
      <point x="463.3636363636364" y="106.45454545454544" type="line"/>
      <point x="645.3636363636364" y="1450.3636363636365" type="line"/>
      <point x="587.7272727272727" y="1396.181818181818" type="line"/>
      <point x="638.3636363636364" y="1411.3636363636365"/>
      <point x="680.6363636363636" y="1418.7272727272727"/>
      <point x="730.0909090909091" y="1418.7272727272727" type="curve" smooth="yes"/>
      <point x="874.090909090909" y="1418.7272727272727"/>
      <point x="943.6363636363636" y="1308.181818181818"/>
      <point x="943.6363636363635" y="1117.090909090909" type="curve" smooth="yes"/>
      <point x="942.909090909091" y="910.0"/>
      <point x="845.1818181818182" y="633.8181818181819"/>
      <point x="620.5454545454545" y="633.8181818181819" type="curve" smooth="yes"/>
      <point x="572.6363636363637" y="633.8181818181819"/>
      <point x="526.8181818181818" y="641.5454545454545"/>
      <point x="480.5454545454545" y="653.3636363636363" type="curve"/>
      <point x="478.0" y="558.1818181818182" type="line"/>
      <point x="516.7272727272727" y="550.7272727272726"/>
      <point x="595.0909090909091" y="545.0000000000001"/>
      <point x="650.6363636363636" y="545.0000000000001" type="curve" smooth="yes"/>
      <point x="1153.272727272727" y="545.0000000000001"/>
      <point x="1314.9999999999998" y="844.4545454545455"/>
      <point x="1310.6363636363637" y="1114.5454545454545" type="curve" smooth="yes"/>
      <point x="1307.7272727272727" y="1367.4545454545455"/>
      <point x="1157.0909090909092" y="1500.090909090909"/>
      <point x="804.5454545454545" y="1498.8181818181818" type="curve" smooth="yes"/>
      <point x="673.3636363636364" y="1498.1818181818182"/>
      <point x="562.4545454545454" y="1486.0"/>
      <point x="458.81818181818187" y="1486.0" type="curve" smooth="yes"/>
      <point x="159.18181818181816" y="1486.0" type="line"/>
      <point x="150.9090909090909" y="1424.1818181818182" type="line"/>
      <point x="278.3636363636364" y="1391.9090909090908" type="line"/>
      <point x="99.8181818181818" y="93.09090909090911" type="line"/>
      <point x="-37.45454545454545" y="61.27272727272728" type="line"/>
    </contour>
  </outline>
</glyph>
<glyph name="R" format="2">
  <advance width="1401.9090909090905"/>
  <unicode hex="0052"/>
  <anchor x="711.4545454545455" y="0.0" name="bottom"/>
  <anchor x="736.6363636363636" y="1486.0" name="top"/>
  <outline>
    <contour>
      <point x="-39.18181818181819" y="0.0" type="line"/>
      <point x="594.2727272727274" y="0.0" type="line"/>
      <point x="601.6363636363635" y="61.27272727272728" type="line"/>
      <point x="451.45454545454544" y="93.09090909090911" type="line"/>
      <point x="636.7272727272727" y="1451.7272727272727" type="line"/>
      <point x="602.2727272727274" y="1394.909090909091" type="line"/>
      <point x="639.1818181818181" y="1415.272727272727"/>
      <point x="693.8181818181819" y="1419.0909090909088"/>
      <point x="735.0" y="1419.0909090909088" type="curve" smooth="yes"/>
      <point x="883.7272727272727" y="1419.0909090909088"/>
      <point x="952.4545454545455" y="1310.0909090909092"/>
      <point x="954.6363636363635" y="1139.818181818182" type="curve" smooth="yes"/>
      <point x="958.2727272727273" y="929.2727272727274"/>
      <point x="874.090909090909" y="722.6363636363636"/>
      <point x="660.7272727272727" y="724.5454545454545" type="curve" smooth="yes"/>
      <point x="625.7272727272727" y="725.0909090909091"/>
      <point x="555.6363636363636" y="727.3636363636365"/>
      <point x="521.8181818181818" y="730.0" type="curve"/>
      <point x="510.99999999999994" y="636.7272727272727" type="line"/>
      <point x="560.0" y="636.3636363636364"/>
      <point x="633.0" y="635.6363636363636"/>
      <point x="685.8181818181819" y="637.0909090909091" type="curve" smooth="yes"/>
      <point x="729.7272727272727" y="592.3636363636363"/>
      <point x="776.5454545454545" y="407.8181818181818"/>
      <point x="823.0909090909092" y="245.63636363636365" type="curve" smooth="yes"/>
      <point x="857.6363636363636" y="124.90909090909092"/>
      <point x="905.5454545454545" y="0.0"/>
      <point x="952.6363636363637" y="0.0" type="curve"/>
      <point x="1341.9090909090908" y="0.0" type="line"/>
      <point x="1349.4545454545455" y="62.909090909090914" type="line"/>
      <point x="1254.2727272727273" y="73.18181818181817"/>
      <point x="1222.909090909091" y="201.72727272727275"/>
      <point x="1172.0909090909092" y="339.90909090909093" type="curve" smooth="yes"/>
      <point x="1119.7272727272727" y="487.3636363636364"/>
      <point x="1032.8181818181818" y="684.5454545454546"/>
      <point x="868.3636363636364" y="693.2727272727273" type="curve"/>
      <point x="810.9090909090909" y="648.7272727272729" type="line"/>
      <point x="1139.7272727272727" y="674.5454545454545"/>
      <point x="1308.9090909090908" y="896.2727272727273"/>
      <point x="1308.9090909090908" y="1132.1818181818182" type="curve" smooth="yes"/>
      <point x="1308.9090909090908" y="1354.090909090909"/>
      <point x="1187.9090909090908" y="1500.090909090909"/>
      <point x="796.4545454545454" y="1500.090909090909" type="curve" smooth="yes"/>
      <point x="656.0000000000001" y="1500.090909090909"/>
      <point x="579.3636363636364" y="1486.0"/>
      <point x="452.2727272727273" y="1486.0" type="curve" smooth="yes"/>
      <point x="159.18181818181816" y="1486.0" type="line"/>
      <point x="151.27272727272725" y="1423.8181818181818" type="line"/>
      <point x="277.6363636363636" y="1391.9090909090908" type="line"/>
      <point x="99.8181818181818" y="93.09090909090911" type="line"/>
      <point x="-32.36363636363637" y="61.27272727272728" type="line"/>
    </contour>
  </outline>
</glyph>
<glyph name="S" format="2">
  <advance width="1106.4545454545455"/>
  <unicode hex="0053"/>
  <anchor x="468.5454545454545" y="0.0" name="bottom"/>
  <anchor x="692.9090909090909" y="1486.0" name="top"/>
  <outline>
    <contour>
      <point x="468.72727272727275" y="-23.272727272727273" type="curve" smooth="yes"/>
      <point x="856.8181818181819" y="-23.272727272727273"/>
      <point x="1051.3636363636365" y="178.72727272727272"/>
      <point x="1051.3636363636363" y="426.9090909090909" type="curve" smooth="yes"/>
      <point x="1051.3636363636363" y="619.090909090909"/>
      <point x="915.1818181818182" y="746.4545454545455"/>
      <point x="755.6363636363636" y="850.4545454545455" type="curve" smooth="yes"/>
      <point x="564.9999999999999" y="974.2727272727274"/>
      <point x="470.18181818181813" y="1050.9999999999998"/>
      <point x="470.18181818181813" y="1177.6363636363635" type="curve" smooth="yes"/>
      <point x="470.18181818181813" y="1330.7272727272727"/>
      <point x="557.2727272727274" y="1423.3636363636365"/>
      <point x="697.3636363636364" y="1423.3636363636365" type="curve" smooth="yes"/>
      <point x="768.0000000000001" y="1423.3636363636365"/>
      <point x="821.0" y="1402.2727272727273"/>
      <point x="850.1818181818181" y="1377.2727272727273" type="curve"/>
      <point x="869.3636363636364" y="1138.0" type="line"/>
      <point x="1065.7272727272727" y="1138.0" type="line"/>
      <point x="1116.3636363636365" y="1432.0" type="line"/>
      <point x="1055.7272727272727" y="1468.0"/>
      <point x="923.8181818181818" y="1504.0"/>
      <point x="718.1818181818184" y="1504.0" type="curve" smooth="yes"/>
      <point x="415.4545454545454" y="1504.0"/>
      <point x="156.45454545454544" y="1357.7272727272727"/>
      <point x="156.45454545454544" y="1047.7272727272725" type="curve" smooth="yes"/>
      <point x="156.45454545454544" y="848.1818181818182"/>
      <point x="296.72727272727275" y="720.4545454545455"/>
      <point x="464.27272727272725" y="610.4545454545454" type="curve" smooth="yes"/>
      <point x="644.2727272727273" y="492.6363636363637"/>
      <point x="709.5454545454546" y="419.72727272727275"/>
      <point x="709.5454545454545" y="292.6363636363636" type="curve" smooth="yes"/>
      <point x="709.5454545454545" y="157.54545454545453"/>
      <point x="640.8181818181819" y="58.72727272727273"/>
      <point x="472.27272727272725" y="58.72727272727273" type="curve" smooth="yes"/>
      <point x="385.09090909090907" y="58.72727272727273"/>
      <point x="308.90909090909093" y="101.81818181818183"/>
      <point x="274.45454545454544" y="139.8181818181818" type="curve"/>
      <point x="261.8181818181818" y="382.0" type="line"/>
      <point x="68.0909090909091" y="382.0" type="line"/>
      <point x="9.454545454545455" y="74.0" type="line"/>
      <point x="56.09090909090909" y="38.0"/>
      <point x="275.0" y="-23.272727272727273"/>
    </contour>
  </outline>
</glyph>
<glyph name="T" format="2">
  <advance width="1394.5454545454545"/>
  <unicode hex="0054"/>
  <anchor x="638.6363636363636" y="0.0" name="bottom"/>
  <anchor x="1075.7272727272727" y="0.0" name="bottomright"/>
  <anchor x="735.305090909091" y="743.0" name="center"/>
  <anchor x="828.6363636363636" y="1486.0" name="top"/>
  <outline>
    <contour>
      <point x="234.72727272727272" y="0.0" type="line"/>
      <point x="1069.6363636363635" y="0.0" type="line"/>
      <point x="1075.8181818181815" y="65.18181818181817" type="line"/>
      <point x="829.0" y="94.72727272727272" type="line"/>
      <point x="1007.090909090909" y="1410.3636363636365" type="line"/>
      <point x="1193.7272727272727" y="1395.9090909090908" type="line"/>
      <point x="1248.6363636363637" y="939.0909090909091" type="line"/>
      <point x="1405.7272727272727" y="939.0909090909091" type="line"/>
      <point x="1466.0909090909092" y="1486.0" type="line"/>
      <point x="203.36363636363637" y="1486.0" type="line"/>
      <point x="101.36363636363636" y="939.0909090909091" type="line"/>
      <point x="275.0" y="939.0909090909091" type="line"/>
      <point x="456.09090909090907" y="1395.9090909090908" type="line"/>
      <point x="646.1818181818182" y="1410.3636363636365" type="line"/>
      <point x="468.0909090909091" y="94.72727272727272" type="line"/>
      <point x="243.00000000000006" y="65.18181818181817" type="line"/>
    </contour>
  </outline>
</glyph>
<glyph name="U" format="2">
  <advance width="1362.0909090909092"/>
  <unicode hex="0055"/>
  <anchor x="669.0" y="0.0" name="bottom"/>
  <anchor x="824.090909090909" y="20.0" name="ogonek"/>
  <anchor x="870.0" y="1486.0" name="top"/>
  <anchor x="1285.4545454545455" y="1484.090909090909" name="topright"/>
  <outline>
    <contour>
      <point x="1354.0000000000002" y="1391.9090909090912" type="line"/>
      <point x="1481.909090909091" y="1424.909090909091" type="line"/>
      <point x="1488.2727272727273" y="1486.0" type="line"/>
      <point x="1074.4545454545455" y="1486.0" type="line"/>
      <point x="1067.6363636363637" y="1424.909090909091" type="line"/>
      <point x="1227.8181818181815" y="1390.6363636363635" type="line"/>
      <point x="1134.181818181818" y="638.090909090909" type="line" smooth="yes"/>
      <point x="1088.818181818182" y="279.27272727272725"/>
      <point x="991.3636363636364" y="108.45454545454545"/>
      <point x="741.1818181818182" y="108.45454545454545" type="curve" smooth="yes"/>
      <point x="552.9090909090909" y="108.45454545454545"/>
      <point x="491.18181818181813" y="242.45454545454547"/>
      <point x="491.18181818181813" y="398.6363636363636" type="curve" smooth="yes"/>
      <point x="491.1818181818181" y="458.0"/>
      <point x="497.8181818181818" y="531.2727272727274"/>
      <point x="508.4545454545454" y="609.2727272727274" type="curve" smooth="yes"/>
      <point x="614.0909090909091" y="1391.9090909090908" type="line"/>
      <point x="781.3636363636365" y="1424.909090909091" type="line"/>
      <point x="787.5454545454545" y="1486.0" type="line"/>
      <point x="144.36363636363635" y="1486.0" type="line"/>
      <point x="136.8181818181818" y="1424.1818181818182" type="line"/>
      <point x="251.0" y="1391.9090909090908" type="line"/>
      <point x="144.63636363636365" y="599.090909090909" type="line" smooth="yes"/>
      <point x="137.36363636363637" y="541.0909090909092"/>
      <point x="134.8181818181818" y="487.72727272727275"/>
      <point x="134.8181818181818" y="437.7272727272727" type="curve" smooth="yes"/>
      <point x="134.8181818181818" y="150.72727272727275"/>
      <point x="283.99999999999994" y="-20.0"/>
      <point x="653.4545454545454" y="-20.0" type="curve" smooth="yes"/>
      <point x="1047.4545454545455" y="-20.0"/>
      <point x="1187.2727272727275" y="199.72727272727275"/>
      <point x="1244.0" y="611.3636363636364" type="curve" smooth="yes"/>
    </contour>
  </outline>
</glyph>
<glyph name="V" format="2">
  <advance width="1280.0"/>
  <unicode hex="0056"/>
  <anchor x="959.5454545454546" y="1660.0" name="top"/>
  <outline>
    <contour>
      <point x="403.27272727272725" y="-3.636363636363636" type="line"/>
      <point x="703.0909090909091" y="-3.6363636363636367" type="line"/>
      <point x="1304.909090909091" y="1394.4545454545455" type="line"/>
      <point x="1434.3636363636365" y="1425.4545454545455" type="line"/>
      <point x="1441.9090909090908" y="1486.0" type="line"/>
      <point x="1007.818181818182" y="1486.0" type="line"/>
      <point x="1001.0000000000001" y="1425.4545454545455" type="line"/>
      <point x="1162.5454545454543" y="1394.4545454545455" type="line"/>
      <point x="757.9999999999999" y="386.5454545454546" type="line"/>
      <point x="654.090909090909" y="95.0909090909091" type="line"/>
      <point x="701.0909090909091" y="123.63636363636363" type="line"/>
      <point x="665.7272727272726" y="481.3636363636363" type="line"/>
      <point x="561.8181818181818" y="1392.5454545454545" type="line"/>
      <point x="709.4545454545455" y="1422.909090909091" type="line"/>
      <point x="715.909090909091" y="1486.0" type="line"/>
      <point x="80.0" y="1486.0" type="line"/>
      <point x="72.36363636363637" y="1423.6363636363635" type="line"/>
      <point x="191.36363636363635" y="1392.5454545454545" type="line"/>
    </contour>
  </outline>
</glyph>
<glyph name="W" format="2">
  <advance width="1951.636363636364"/>
  <unicode hex="0057"/>
  <anchor x="865.5454545454545" y="0.0" name="bottom"/>
  <anchor x="1121.5454545454547" y="1486.0" name="top"/>
  <outline>
    <contour>
      <point x="371.81818181818187" y="-3.6363636363636367" type="line"/>
      <point x="676.7272727272727" y="-3.6363636363636367" type="line"/>
      <point x="1159.727272727273" y="1239.5454545454545" type="line"/>
      <point x="1075.2727272727273" y="1351.1818181818182" type="line"/>
      <point x="722.6363636363636" y="385.81818181818187" type="line"/>
      <point x="623.6363636363636" y="100.18181818181819" type="line"/>
      <point x="677.9999999999999" y="129.45454545454544" type="line"/>
      <point x="628.909090909091" y="481.3636363636363" type="line"/>
      <point x="510.9090909090909" y="1391.090909090909" type="line"/>
      <point x="657.7272727272727" y="1422.909090909091" type="line"/>
      <point x="663.1818181818181" y="1486.0" type="line"/>
      <point x="41.18181818181818" y="1486.0" type="line"/>
      <point x="34.18181818181819" y="1423.6363636363635" type="line"/>
      <point x="146.9090909090909" y="1391.818181818182" type="line"/>
    </contour>
    <contour>
      <point x="1149.2727272727273" y="-3.6363636363636367" type="line"/>
      <point x="1456.0000000000002" y="-3.6363636363636367" type="line"/>
      <point x="2032.6363636363635" y="1394.4545454545455" type="line"/>
      <point x="2167.3636363636365" y="1426.1818181818182" type="line"/>
      <point x="2173.9090909090914" y="1486.0" type="line"/>
      <point x="1739.3636363636365" y="1486.0" type="line"/>
      <point x="1733.2727272727275" y="1425.090909090909" type="line"/>
      <point x="1889.6363636363635" y="1393.7272727272727" type="line"/>
      <point x="1510.0909090909092" y="386.1818181818182" type="line"/>
      <point x="1402.7272727272725" y="101.27272727272728" type="line"/>
      <point x="1457.2727272727273" y="129.0909090909091" type="line"/>
      <point x="1424.7272727272725" y="481.3636363636364" type="line"/>
      <point x="1323.2727272727273" y="1391.818181818182" type="line"/>
      <point x="1483.1818181818182" y="1422.5454545454545" type="line"/>
      <point x="1489.2727272727273" y="1486.0" type="line"/>
      <point x="846.5454545454546" y="1486.0" type="line"/>
      <point x="840.3636363636363" y="1423.6363636363635" type="line"/>
      <point x="962.4545454545454" y="1391.818181818182" type="line"/>
    </contour>
  </outline>
</glyph>
<glyph name="X" format="2">
  <advance width="1372.5454545454543"/>
  <unicode hex="0058"/>
  <anchor x="622.3636363636365" y="0.0" name="bottom"/>
  <anchor x="1312.6363636363635" y="0.0" name="bottomright"/>
  <anchor x="727.6363636363637" y="746.0" name="center"/>
  <anchor x="943.8181818181819" y="1660.0" name="top"/>
  <outline>
    <contour>
      <point x="-50.727272727272734" y="0.0" type="line"/>
      <point x="427.7272727272727" y="0.0" type="line"/>
      <point x="435.1818181818182" y="61.636363636363654" type="line"/>
      <point x="271.45454545454544" y="94.0909090909091" type="line"/>
      <point x="644.9090909090909" y="626.4545454545455" type="line"/>
      <point x="855.090909090909" y="790.1818181818182" type="line"/>
      <point x="1336.9090909090908" y="1391.9090909090908" type="line"/>
      <point x="1473.9999999999998" y="1424.1818181818182" type="line"/>
      <point x="1481.6363636363637" y="1486.0" type="line"/>
      <point x="1042.8181818181818" y="1486.0" type="line"/>
      <point x="1034.3636363636365" y="1424.1818181818182" type="line"/>
      <point x="1180.6363636363635" y="1391.909090909091" type="line"/>
      <point x="813.6363636363636" y="877.5454545454546" type="line"/>
      <point x="602.2727272727273" y="719.8181818181818" type="line"/>
      <point x="113.63636363636364" y="94.0909090909091" type="line"/>
      <point x="-43.18181818181818" y="61.636363636363654" type="line"/>
    </contour>
    <contour>
      <point x="642.4545454545455" y="0.0" type="line"/>
      <point x="1308.090909090909" y="0.0" type="line"/>
      <point x="1316.0" y="61.636363636363654" type="line"/>
      <point x="1180.5454545454545" y="94.72727272727273" type="line"/>
      <point x="874.3636363636363" y="833.4545454545454" type="line"/>
      <point x="843.7272727272726" y="896.6363636363636" type="line"/>
      <point x="674.9090909090909" y="1392.9090909090908" type="line"/>
      <point x="832.3636363636364" y="1426.818181818182" type="line"/>
      <point x="842.1818181818182" y="1486.6363636363637" type="line"/>
      <point x="171.9090909090909" y="1486.6363636363637" type="line"/>
      <point x="162.63636363636365" y="1424.818181818182" type="line"/>
      <point x="290.54545454545456" y="1391.909090909091" type="line"/>
      <point x="579.5454545454545" y="678.4545454545455" type="line"/>
      <point x="609.4545454545455" y="607.3636363636365" type="line"/>
      <point x="790.1818181818182" y="94.36363636363637" type="line"/>
      <point x="637.7272727272729" y="61.636363636363654" type="line"/>
    </contour>
  </outline>
</glyph>
<glyph name="Y" format="2">
  <advance width="1224.0"/>
  <unicode hex="0059"/>
  <anchor x="546.8181818181819" y="0.0" name="bottom"/>
  <anchor x="612.1818181818181" y="469.0" name="center"/>
  <anchor x="770.4545454545454" y="1486.0" name="top"/>
  <anchor x="163.00000000000003" y="1486.0" name="topleft"/>
  <outline>
    <contour>
      <point x="146.0" y="0.0" type="line"/>
      <point x="976.7272727272727" y="0.0" type="line"/>
      <point x="982.9090909090909" y="62.27272727272728" type="line"/>
      <point x="741.0" y="101.09090909090907" type="line"/>
      <point x="826.6363636363637" y="738.0909090909091" type="line"/>
      <point x="736.4545454545454" y="529.3636363636364" type="line"/>
      <point x="1262.6363636363637" y="1394.4545454545455" type="line"/>
      <point x="1395.3636363636365" y="1424.1818181818182" type="line"/>
      <point x="1403.6363636363635" y="1486.0" type="line"/>
      <point x="969.7272727272727" y="1486.0" type="line"/>
      <point x="962.9090909090909" y="1424.1818181818182" type="line"/>
      <point x="1107.0" y="1394.4545454545453" type="line"/>
      <point x="812.9090909090909" y="855.3636363636364" type="line"/>
      <point x="683.7272727272727" y="606.5454545454545" type="line"/>
      <point x="783.5454545454546" y="665.9090909090909" type="line"/>
      <point x="716.8181818181819" y="889.0909090909091" type="line"/>
      <point x="542.5454545454546" y="1391.909090909091" type="line"/>
      <point x="695.2727272727273" y="1424.1818181818182" type="line"/>
      <point x="703.9090909090909" y="1486.0" type="line"/>
      <point x="58.09090909090909" y="1486.0" type="line"/>
      <point x="48.36363636363636" y="1423.8181818181818" type="line"/>
      <point x="160.72727272727272" y="1394.8181818181818" type="line"/>
      <point x="507.5454545454546" y="510.09090909090907" type="line"/>
      <point x="473.0909090909091" y="774.7272727272726" type="line"/>
      <point x="384.1818181818182" y="100.72727272727272" type="line"/>
      <point x="153.54545454545456" y="62.27272727272728" type="line"/>
    </contour>
  </outline>
</glyph>
<glyph name="Z" format="2">
  <advance width="1296.272727272727"/>
  <unicode hex="005A"/>
  <anchor x="577.9090909090909" y="0.0" name="bottom"/>
  <anchor x="779.8181818181819" y="1486.0" name="top"/>
  <outline>
    <contour>
      <point x="-23.0" y="0.0" type="line"/>
      <point x="1145.8181818181818" y="0.0" type="line"/>
      <point x="1250.1818181818182" y="453.81818181818187" type="line"/>
      <point x="1082.5454545454545" y="483.6363636363636" type="line"/>
      <point x="882.3636363636364" y="113.90909090909092" type="line"/>
      <point x="354.9090909090909" y="82.72727272727272" type="line"/>
      <point x="484.3636363636364" y="218.27272727272725" type="line"/>
      <point x="1364.3636363636363" y="1436.3636363636365" type="line"/>
      <point x="1345.1818181818185" y="1486.0" type="line"/>
      <point x="239.1818181818182" y="1486.0" type="line"/>
      <point x="165.72727272727272" y="1076.909090909091" type="line"/>
      <point x="341.3636363636364" y="1069.272727272727" type="line"/>
      <point x="490.81818181818187" y="1384.4545454545455" type="line"/>
      <point x="975.7272727272729" y="1406.272727272727" type="line"/>
      <point x="842.2727272727273" y="1270.3636363636365" type="line"/>
      <point x="-43.0" y="49.727272727272734" type="line"/>
    </contour>
  </outline>
</glyph>
<glyph name="bracketleft" format="2">
  <advance width="846.0"/>
  <unicode hex="005B"/>
  <outline>
    <contour>
      <point x="322.6363636363636" y="-285.54545454545456" type="curve" smooth="yes"/>
      <point x="428.6363636363636" y="-285.54545454545456"/>
      <point x="518.8181818181818" y="-266.1818181818182"/>
      <point x="603.6363636363636" y="-243.36363636363637" type="curve"/>
      <point x="611.909090909091" y="-175.0909090909091" type="line"/>
      <point x="378.54545454545456" y="-174.36363636363635" type="line"/>
      <point x="615.4545454545454" y="1572.2727272727273" type="line"/>
      <point x="848.8181818181818" y="1572.2727272727273" type="line"/>
      <point x="858.9090909090909" y="1637.8181818181818" type="line"/>
      <point x="809.2727272727274" y="1649.9090909090908"/>
      <point x="689.6363636363636" y="1680.0"/>
      <point x="590.2727272727273" y="1680.0" type="curve" smooth="yes"/>
      <point x="436.0" y="1680.0"/>
      <point x="336.00000000000006" y="1634.272727272727"/>
      <point x="312.5454545454545" y="1462.3636363636363" type="curve" smooth="yes"/>
      <point x="104.36363636363636" y="-67.9090909090909" type="line" smooth="yes"/>
      <point x="79.81818181818181" y="-239.45454545454544"/>
      <point x="152.72727272727272" y="-285.54545454545456"/>
    </contour>
  </outline>
</glyph>
<glyph name="backslash" format="2">
  <advance width="899.5454545454545"/>
  <unicode hex="005C"/>
  <outline>
    <contour>
      <point x="715.7272727272727" y="-354.0" type="line"/>
      <point x="842.5454545454545" y="-354.0" type="line"/>
      <point x="278.5454545454545" y="1568.0" type="line"/>
      <point x="153.72727272727272" y="1568.0" type="line"/>
    </contour>
  </outline>
</glyph>
<glyph name="asciicircum" format="2">
  <advance width="1227.090909090909"/>
  <unicode hex="005E"/>
  <outline>
    <contour>
      <point x="671.2727272727273" y="1496.0" type="line"/>
      <point x="137.45454545454547" y="404.0" type="line"/>
      <point x="284.8181818181818" y="404.0" type="line"/>
      <point x="706.9090909090909" y="1265.6363636363637" type="line"/>
      <point x="905.3636363636364" y="404.0" type="line"/>
      <point x="1057.818181818182" y="404.0" type="line"/>
      <point x="796.0" y="1496.0" type="line"/>
    </contour>
  </outline>
</glyph>
<glyph name="grave" format="2">
  <advance width="842.1818181818182"/>
  <unicode hex="0060"/>
  <anchor x="661.8181818181818" y="1110.0" name="_top"/>
  <anchor x="745.6363636363636" y="1701.0" name="top"/>
  <outline>
    <contour>
      <point x="727.7272727272726" y="1173.0000000000002" type="curve"/>
      <point x="785.3636363636364" y="1223.6363636363635" type="line"/>
      <point x="486.09090909090907" y="1692.9090909090908" type="line"/>
      <point x="288.8181818181818" y="1510.1818181818185" type="line"/>
      <point x="390.27272727272725" y="1390.7272727272727"/>
      <point x="615.9090909090909" y="1223.5454545454545"/>
    </contour>
  </outline>
</glyph>
<glyph name="a" format="2">
  <advance width="1129.5454545454543"/>
  <unicode hex="0061"/>
  <anchor x="527.8181818181819" y="0.0" name="bottom"/>
  <anchor x="1132.8181818181818" y="1622.0" name="caron"/>
  <anchor x="889.6363636363637" y="7.272727272727273" name="ogonek"/>
  <anchor x="700.909090909091" y="1108.0" name="top"/>
  <outline>
    <contour>
      <point x="958.090909090909" y="197.72727272727275" type="curve" smooth="yes"/>
      <point x="1083.181818181818" y="1063.4545454545455" type="line"/>
      <point x="903.6363636363636" y="1025.2727272727273" type="line"/>
      <point x="844.9999999999999" y="1046.5454545454547"/>
      <point x="771.2727272727271" y="1066.6363636363635"/>
      <point x="689.8181818181818" y="1066.6363636363635" type="curve" smooth="yes"/>
      <point x="259.90909090909093" y="1066.6363636363635"/>
      <point x="32.909090909090914" y="733.7272727272727"/>
      <point x="32.909090909090914" y="357.0909090909091" type="curve" smooth="yes"/>
      <point x="32.909090909090914" y="117.0909090909091"/>
      <point x="176.27272727272725" y="-21.90909090909091"/>
      <point x="367.09090909090907" y="-21.90909090909091" type="curve" smooth="yes"/>
      <point x="515.8181818181818" y="-21.90909090909091"/>
      <point x="619.909090909091" y="87.81818181818183"/>
      <point x="664.4545454545455" y="189.81818181818184" type="curve"/>
      <point x="655.1818181818182" y="124.36363636363636" type="line"/>
      <point x="651.0909090909091" y="46.72727272727273"/>
      <point x="695.6363636363637" y="-21.90909090909091"/>
      <point x="803.1818181818181" y="-21.90909090909091" type="curve" smooth="yes"/>
      <point x="951.3636363636364" y="-21.90909090909091"/>
      <point x="1057.3636363636365" y="59.27272727272727"/>
      <point x="1105.8181818181818" y="121.0" type="curve"/>
      <point x="1079.7272727272725" y="177.9090909090909" type="line"/>
      <point x="1043.6363636363637" y="144.1818181818182"/>
      <point x="1018.2727272727273" y="133.27272727272728"/>
      <point x="991.6363636363637" y="133.27272727272728" type="curve" smooth="yes"/>
      <point x="966.4545454545454" y="133.27272727272728"/>
      <point x="951.7272727272727" y="147.54545454545453"/>
    </contour>
    <contour>
      <point x="748.9090909090909" y="956.4545454545454" type="curve"/>
      <point x="649.8181818181818" y="281.8181818181818" type="line"/>
      <point x="624.2727272727274" y="213.45454545454544"/>
      <point x="558.0" y="122.54545454545455"/>
      <point x="495.72727272727275" y="122.54545454545455" type="curve" smooth="yes"/>
      <point x="435.90909090909093" y="122.54545454545455"/>
      <point x="376.0909090909091" y="172.36363636363637"/>
      <point x="376.0909090909091" y="334.72727272727275" type="curve" smooth="yes"/>
      <point x="376.0909090909091" y="599.4545454545456"/>
      <point x="435.90909090909093" y="987.6363636363637"/>
      <point x="676.0909090909091" y="987.6363636363637" type="curve" smooth="yes"/>
      <point x="713.7272727272726" y="987.6363636363637"/>
      <point x="737.9999999999999" y="970.9999999999999"/>
    </contour>
  </outline>
</glyph>
<glyph name="b" format="2">
  <advance width="1124.8181818181818"/>
  <unicode hex="0062"/>
  <anchor x="445.00000000000006" y="0.0" name="bottom"/>
  <anchor x="816.6363636363636" y="1108.7272727272725" name="top"/>
  <outline>
    <contour>
      <point x="466.0909090909091" y="898.3636363636364" type="curve"/>
      <point x="569.0" y="1604.090909090909" type="line"/>
      <point x="522.7272727272726" y="1634.0" type="line"/>
      <point x="121.81818181818184" y="1585.8181818181818" type="line"/>
      <point x="111.36363636363636" y="1534.727272727273" type="line"/>
      <point x="233.72727272727275" y="1493.3636363636365" type="line"/>
      <point x="15.72727272727273" y="-25.727272727272727" type="line"/>
      <point x="200.0" y="15.636363636363635" type="line"/>
      <point x="261.0" y="-3.0909090909090917"/>
      <point x="345.8181818181818" y="-22.545454545454547"/>
      <point x="420.0909090909091" y="-22.545454545454547" type="curve" smooth="yes"/>
      <point x="848.9090909090909" y="-22.545454545454547"/>
      <point x="1081.5454545454545" y="312.0"/>
      <point x="1081.5454545454545" y="676.3636363636363" type="curve" smooth="yes"/>
      <point x="1081.5454545454545" y="944.7272727272727"/>
      <point x="953.0909090909091" y="1071.090909090909"/>
      <point x="767.1818181818181" y="1071.090909090909" type="curve" smooth="yes"/>
      <point x="637.7272727272727" y="1071.090909090909"/>
      <point x="517.3636363636364" y="989.0000000000001"/>
    </contour>
    <contour>
      <point x="352.54545454545456" y="94.18181818181819" type="curve"/>
      <point x="447.99999999999994" y="755.7272727272726" type="line"/>
      <point x="475.90909090909093" y="829.5454545454545"/>
      <point x="554.7272727272729" y="932.2727272727273"/>
      <point x="633.1818181818181" y="932.2727272727273" type="curve" smooth="yes"/>
      <point x="713.0909090909091" y="932.2727272727273"/>
      <point x="740.9090909090909" y="845.4545454545454"/>
      <point x="740.9090909090909" y="713.2727272727274" type="curve" smooth="yes"/>
      <point x="740.9090909090909" y="420.1818181818182"/>
      <point x="660.0" y="61.54545454545454"/>
      <point x="435.909090909091" y="61.54545454545454" type="curve" smooth="yes"/>
      <point x="392.0" y="61.54545454545454"/>
      <point x="365.5454545454546" y="78.81818181818181"/>
    </contour>
  </outline>
</glyph>
<glyph name="c" format="2">
  <advance width="882.1818181818182"/>
  <unicode hex="0063"/>
  <anchor x="427.0" y="0.0" name="bottom"/>
  <anchor x="637.0909090909091" y="1109.4545454545455" name="top"/>
  <outline>
    <contour>
      <point x="762.1818181818181" y="741.9090909090909" type="curve" smooth="yes"/>
      <point x="842.7272727272726" y="741.909090909091" type="line"/>
      <point x="919.8181818181819" y="1032.4545454545453" type="line"/>
      <point x="850.7272727272727" y="1057.181818181818"/>
      <point x="739.9999999999999" y="1068.5454545454545"/>
      <point x="661.2727272727273" y="1068.5454545454545" type="curve" smooth="yes"/>
      <point x="237.63636363636365" y="1068.5454545454545"/>
      <point x="27.272727272727273" y="731.4545454545454"/>
      <point x="29.454545454545453" y="405.9090909090909" type="curve" smooth="yes"/>
      <point x="30.909090909090907" y="128.3636363636364"/>
      <point x="183.54545454545453" y="-22.545454545454547"/>
      <point x="419.1818181818182" y="-22.545454545454547" type="curve" smooth="yes"/>
      <point x="638.7272727272726" y="-22.545454545454547"/>
      <point x="775.6363636363635" y="97.0"/>
      <point x="839.4545454545456" y="190.27272727272728" type="curve"/>
      <point x="800.090909090909" y="254.90909090909093" type="line"/>
      <point x="753.4545454545455" y="195.8181818181818"/>
      <point x="659.2727272727273" y="127.09090909090908"/>
      <point x="556.1818181818181" y="127.09090909090908" type="curve" smooth="yes"/>
      <point x="455.8181818181818" y="127.09090909090908"/>
      <point x="384.3636363636363" y="201.0"/>
      <point x="382.18181818181813" y="423.9090909090909" type="curve" smooth="yes"/>
      <point x="379.63636363636357" y="749.7272727272727"/>
      <point x="507.09090909090907" y="976.0"/>
      <point x="609.4545454545454" y="976.0" type="curve" smooth="yes"/>
      <point x="669.9999999999999" y="976.0"/>
      <point x="711.8181818181818" y="893.6363636363635"/>
    </contour>
  </outline>
</glyph>
<glyph name="d" format="2">
  <advance width="1160.0909090909092"/>
  <unicode hex="0064"/>
  <anchor x="443.0" y="0.0" name="bottom"/>
  <anchor x="1272.090909090909" y="1622.0" name="caron"/>
  <anchor x="429.5454545454546" y="1110.0" name="top"/>
  <outline>
    <contour>
      <point x="979.4545454545455" y="197.81818181818184" type="curve"/>
      <point x="1184.7272727272725" y="1604.090909090909" type="line"/>
      <point x="1137.7272727272725" y="1634.0" type="line"/>
      <point x="704.5454545454546" y="1584.3636363636365" type="line"/>
      <point x="694.8181818181819" y="1534.0" type="line"/>
      <point x="845.8181818181819" y="1491.3636363636365" type="line"/>
      <point x="783.9090909090909" y="1058.1818181818182" type="line"/>
      <point x="757.8181818181818" y="1065.818181818182"/>
      <point x="721.4545454545455" y="1071.7272727272727"/>
      <point x="685.7272727272727" y="1071.7272727272727" type="curve" smooth="yes"/>
      <point x="244.27272727272725" y="1071.7272727272727"/>
      <point x="34.90909090909091" y="733.7272727272726"/>
      <point x="34.90909090909091" y="368.4545454545455" type="curve" smooth="yes"/>
      <point x="34.90909090909091" y="120.09090909090907"/>
      <point x="174.0" y="-21.90909090909091"/>
      <point x="364.18181818181813" y="-21.90909090909091" type="curve" smooth="yes"/>
      <point x="536.4545454545454" y="-21.90909090909091"/>
      <point x="639.909090909091" y="98.54545454545456"/>
      <point x="681.8181818181818" y="203.8181818181818" type="curve"/>
      <point x="674.909090909091" y="134.54545454545453" type="line" smooth="yes"/>
      <point x="672.9090909090909" y="50.72727272727272"/>
      <point x="713.9090909090909" y="-21.90909090909091"/>
      <point x="828.909090909091" y="-21.90909090909091" type="curve" smooth="yes"/>
      <point x="976.7272727272727" y="-21.90909090909091"/>
      <point x="1081.3636363636365" y="61.81818181818182"/>
      <point x="1130.1818181818178" y="121.0" type="curve"/>
      <point x="1104.0909090909092" y="177.90909090909093" type="line"/>
      <point x="1066.909090909091" y="144.45454545454547"/>
      <point x="1037.8181818181818" y="133.27272727272728"/>
      <point x="1011.5454545454546" y="133.27272727272728" type="curve" smooth="yes"/>
      <point x="985.2727272727274" y="133.27272727272728"/>
      <point x="973.4545454545455" y="150.45454545454544"/>
    </contour>
    <contour>
      <point x="767.0000000000001" y="950.2727272727273" type="curve"/>
      <point x="668.5454545454546" y="297.45454545454544" type="line"/>
      <point x="641.0909090909091" y="222.18181818181816"/>
      <point x="567.1818181818181" y="122.54545454545453"/>
      <point x="494.0909090909091" y="122.54545454545453" type="curve" smooth="yes"/>
      <point x="433.09090909090907" y="122.54545454545453"/>
      <point x="375.6363636363636" y="176.00000000000003"/>
      <point x="375.6363636363636" y="335.9090909090909" type="curve" smooth="yes"/>
      <point x="375.6363636363636" y="598.4545454545454"/>
      <point x="437.0" y="987.6363636363636"/>
      <point x="680.1818181818181" y="987.6363636363636" type="curve" smooth="yes"/>
      <point x="724.5454545454546" y="987.6363636363636"/>
      <point x="753.1818181818181" y="968.9090909090909"/>
    </contour>
  </outline>
</glyph>
<glyph name="e" format="2">
  <advance width="966.2727272727273"/>
  <unicode hex="0065"/>
  <anchor x="464.18181818181813" y="0.0" name="bottom"/>
  <anchor x="541.5454545454545" y="0.0" name="ogonek"/>
  <anchor x="629.090909090909" y="1108.7272727272727" name="top"/>
  <outline>
    <contour>
      <point x="888.2727272727273" y="204.99999999999997" type="curve"/>
      <point x="848.2727272727273" y="269.6363636363637" type="line"/>
      <point x="793.7272727272727" y="204.45454545454544"/>
      <point x="702.7272727272727" y="128.63636363636363"/>
      <point x="570.1818181818181" y="128.63636363636363" type="curve" smooth="yes"/>
      <point x="416.4545454545455" y="128.63636363636363"/>
      <point x="363.72727272727275" y="266.1818181818182"/>
      <point x="373.63636363636357" y="456.6363636363636" type="curve"/>
      <point x="586.5454545454546" y="462.6363636363637"/>
      <point x="962.0" y="545.0909090909091"/>
      <point x="958.7272727272729" y="853.7272727272727" type="curve" smooth="yes"/>
      <point x="957.2727272727274" y="980.2727272727273"/>
      <point x="871.0" y="1076.1818181818182"/>
      <point x="652.4545454545454" y="1076.1818181818182" type="curve" smooth="yes"/>
      <point x="293.45454545454544" y="1076.1818181818182"/>
      <point x="23.727272727272727" y="791.6363636363636"/>
      <point x="25.181818181818187" y="399.5454545454545" type="curve" smooth="yes"/>
      <point x="25.90909090909091" y="189.63636363636363"/>
      <point x="140.90909090909093" y="-23.636363636363633"/>
      <point x="426.27272727272725" y="-23.636363636363633" type="curve" smooth="yes"/>
      <point x="672.4545454545454" y="-23.636363636363633"/>
      <point x="832.7272727272727" y="123.45454545454547"/>
    </contour>
    <contour>
      <point x="580.5454545454545" y="986.9090909090909" type="curve" smooth="yes"/>
      <point x="628.6363636363636" y="986.9090909090909"/>
      <point x="660.0909090909091" y="954.9090909090909"/>
      <point x="661.5454545454546" y="862.7272727272726" type="curve" smooth="yes"/>
      <point x="664.8181818181819" y="663.0000000000001"/>
      <point x="480.6363636363637" y="543.3636363636364"/>
      <point x="376.18181818181813" y="525.909090909091" type="curve"/>
      <point x="390.27272727272725" y="714.6363636363636"/>
      <point x="449.9090909090909" y="986.9090909090909"/>
    </contour>
  </outline>
</glyph>
<glyph name="f" format="2">
  <advance width="636.909090909091"/>
  <unicode hex="0066"/>
  <anchor x="218.09090909090912" y="1461.4545454545455" name="top"/>
  <outline>
    <contour>
      <point x="220.72727272727275" y="1151.3636363636363" type="curve" smooth="yes"/>
      <point x="204.0909090909091" y="1042.0909090909092" type="line"/>
      <point x="84.18181818181817" y="987.0909090909091" type="line"/>
      <point x="71.81818181818183" y="926.818181818182" type="line"/>
      <point x="186.1818181818182" y="926.818181818182" type="line"/>
      <point x="63.72727272727273" y="-107.18181818181819" type="line" smooth="yes"/>
      <point x="40.636363636363626" y="-296.90909090909093"/>
      <point x="-19.181818181818183" y="-400.9090909090909"/>
      <point x="-103.27272727272728" y="-400.9090909090909" type="curve" smooth="yes"/>
      <point x="-147.99999999999997" y="-400.9090909090909"/>
      <point x="-208.1818181818182" y="-375.1818181818182"/>
      <point x="-240.63636363636363" y="-353.2727272727273" type="curve"/>
      <point x="-282.3636363636364" y="-478.0909090909091" type="line"/>
      <point x="-245.8181818181818" y="-489.27272727272725"/>
      <point x="-190.2727272727273" y="-502.6363636363637"/>
      <point x="-126.63636363636364" y="-502.6363636363636" type="curve" smooth="yes"/>
      <point x="204.72727272727275" y="-502.6363636363636"/>
      <point x="364.6363636363637" y="-256.90909090909093"/>
      <point x="413.45454545454544" y="158.36363636363637" type="curve" smooth="yes"/>
      <point x="504.3636363636364" y="926.818181818182" type="line"/>
      <point x="666.0" y="926.818181818182" type="line"/>
      <point x="684.1818181818182" y="1043.5454545454545" type="line"/>
      <point x="520.9999999999999" y="1043.5454545454545" type="line"/>
      <point x="548.1818181818181" y="1264.7272727272725" type="line" smooth="yes"/>
      <point x="571.2727272727273" y="1457.090909090909"/>
      <point x="621.3636363636364" y="1528.0"/>
      <point x="704.0000000000001" y="1528.0" type="curve" smooth="yes"/>
      <point x="766.7272727272727" y="1528.0000000000002"/>
      <point x="795.3636363636364" y="1501.9090909090905"/>
      <point x="827.0" y="1470.5454545454545" type="curve"/>
      <point x="873.3636363636363" y="1603.4545454545453" type="line"/>
      <point x="826.090909090909" y="1620.909090909091"/>
      <point x="767.7272727272727" y="1630.0"/>
      <point x="703.5454545454545" y="1630.0" type="curve" smooth="yes"/>
      <point x="421.2727272727273" y="1630.0"/>
      <point x="257.54545454545456" y="1394.818181818182"/>
    </contour>
  </outline>
</glyph>
<glyph name="g" format="2">
  <advance width="1119.6363636363635"/>
  <unicode hex="0067"/>
  <anchor x="432.6363636363636" y="0.0" name="bottom"/>
  <anchor x="747.9482727272728" y="580.0" name="tbar"/>
  <anchor x="692.9999999999999" y="1109.4545454545455" name="top"/>
  <outline>
    <contour>
      <point x="943.0" y="-31.454545454545453" type="curve" smooth="yes"/>
      <point x="1098.0909090909092" y="1063.4545454545455" type="line"/>
      <point x="914.0000000000001" y="1023.8181818181819" type="line"/>
      <point x="856.6363636363637" y="1045.818181818182"/>
      <point x="777.0" y="1066.6363636363637"/>
      <point x="693.7272727272726" y="1066.6363636363637" type="curve" smooth="yes"/>
      <point x="259.3636363636364" y="1066.6363636363637"/>
      <point x="34.54545454545454" y="740.7272727272727"/>
      <point x="34.54545454545454" y="371.0" type="curve" smooth="yes"/>
      <point x="34.54545454545454" y="117.09090909090912"/>
      <point x="177.90909090909093" y="-21.90909090909091"/>
      <point x="369.0909090909091" y="-21.90909090909091" type="curve" smooth="yes"/>
      <point x="512.3636363636364" y="-21.90909090909091"/>
      <point x="599.6363636363636" y="61.54545454545455"/>
      <point x="650.1818181818181" y="148.45454545454547" type="curve"/>
      <point x="610.2727272727273" y="-133.0909090909091" type="line" smooth="yes"/>
      <point x="583.909090909091" y="-319.7272727272727"/>
      <point x="514.7272727272726" y="-417.45454545454544"/>
      <point x="385.9090909090909" y="-417.45454545454544" type="curve" smooth="yes"/>
      <point x="266.7272727272727" y="-417.45454545454544"/>
      <point x="136.36363636363635" y="-321.0"/>
      <point x="92.18181818181819" y="-201.8181818181818" type="curve"/>
      <point x="7.81818181818182" y="-414.27272727272725" type="line"/>
      <point x="79.54545454545455" y="-467.90909090909093"/>
      <point x="197.36363636363637" y="-504.0909090909091"/>
      <point x="361.99999999999994" y="-504.0909090909091" type="curve" smooth="yes"/>
      <point x="625.8181818181819" y="-504.0909090909091"/>
      <point x="893.909090909091" y="-375.27272727272725"/>
    </contour>
    <contour>
      <point x="764.2727272727273" y="954.2727272727271" type="curve"/>
      <point x="666.2727272727273" y="287.63636363636357" type="line"/>
      <point x="637.8181818181819" y="215.72727272727272"/>
      <point x="566.0909090909091" y="122.54545454545453"/>
      <point x="498.00000000000006" y="122.54545454545453" type="curve" smooth="yes"/>
      <point x="436.0" y="122.54545454545453"/>
      <point x="377.45454545454544" y="172.72727272727275"/>
      <point x="377.45454545454544" y="335.90909090909093" type="curve" smooth="yes"/>
      <point x="377.45454545454544" y="585.7272727272727"/>
      <point x="440.0" y="987.9999999999999"/>
      <point x="681.2727272727271" y="987.9999999999999" type="curve" smooth="yes"/>
      <point x="726.6363636363636" y="987.9999999999999"/>
      <point x="751.6363636363636" y="970.5454545454544"/>
    </contour>
  </outline>
</glyph>
<glyph name="h" format="2">
  <advance width="1197.818181818182"/>
  <unicode hex="0068"/>
  <anchor x="551.6363636363635" y="0.0" name="bottom"/>
  <anchor x="1033.7272727272725" y="0.0" name="bottomright"/>
  <anchor x="215.0909090909091" y="1814.0" name="cap"/>
  <anchor x="367.82672727272734" y="1292.0" name="tbar"/>
  <anchor x="420.0909090909091" y="1574.0" name="top"/>
  <outline>
    <contour>
      <point x="469.4545454545454" y="730.090909090909" type="curve"/>
      <point x="592.5454545454545" y="1604.090909090909" type="line"/>
      <point x="544.4545454545455" y="1634.0" type="line"/>
      <point x="131.1818181818182" y="1584.3636363636363" type="line"/>
      <point x="122.18181818181817" y="1534.0000000000002" type="line"/>
      <point x="258.72727272727275" y="1492.6363636363637" type="line"/>
      <point x="41.63636363636365" y="0.0" type="line"/>
      <point x="362.6363636363636" y="0.0" type="line"/>
      <point x="448.3636363636364" y="586.5454545454545" type="line"/>
      <point x="502.81818181818176" y="715.909090909091"/>
      <point x="617.0" y="866.3636363636364"/>
      <point x="700.9090909090909" y="866.3636363636364" type="curve" smooth="yes"/>
      <point x="750.7272727272726" y="866.3636363636364"/>
      <point x="763.9090909090909" y="836.4545454545455"/>
      <point x="764.6363636363636" y="759.9090909090909" type="curve" smooth="yes"/>
      <point x="765.3636363636364" y="689.1818181818182"/>
      <point x="743.090909090909" y="556.1818181818181"/>
      <point x="725.090909090909" y="433.2727272727273" type="curve" smooth="yes"/>
      <point x="708.2727272727273" y="325.2727272727273"/>
      <point x="681.6363636363636" y="165.72727272727275"/>
      <point x="681.6363636363636" y="114.72727272727273" type="curve" smooth="yes"/>
      <point x="681.6363636363636" y="26.909090909090917"/>
      <point x="736.8181818181819" y="-22.545454545454547"/>
      <point x="836.0" y="-22.545454545454547" type="curve" smooth="yes"/>
      <point x="1018.8181818181818" y="-22.545454545454547"/>
      <point x="1126.9090909090908" y="76.72727272727273"/>
      <point x="1167.6363636363635" y="121.63636363636364" type="curve"/>
      <point x="1142.5454545454545" y="177.63636363636363" type="line"/>
      <point x="1104.4545454545455" y="144.54545454545456"/>
      <point x="1075.5454545454545" y="133.27272727272728"/>
      <point x="1053.5454545454545" y="133.27272727272728" type="curve" smooth="yes"/>
      <point x="1035.5454545454545" y="133.27272727272728"/>
      <point x="1016.1818181818182" y="142.8181818181818"/>
      <point x="1016.1818181818182" y="190.8181818181818" type="curve" smooth="yes"/>
      <point x="1022.2727272727274" y="259.6363636363636"/>
      <point x="1045.090909090909" y="395.2727272727273"/>
      <point x="1059.1818181818182" y="494.0" type="curve" smooth="yes"/>
      <point x="1075.2727272727273" y="602.0"/>
      <point x="1098.909090909091" y="729.4545454545454"/>
      <point x="1098.909090909091" y="826.0" type="curve" smooth="yes"/>
      <point x="1098.909090909091" y="975.9999999999999"/>
      <point x="1017.9999999999999" y="1069.1818181818182"/>
      <point x="866.6363636363636" y="1069.1818181818182" type="curve" smooth="yes"/>
      <point x="682.5454545454546" y="1069.1818181818182"/>
      <point x="536.7272727272727" y="883.6363636363636"/>
    </contour>
  </outline>
</glyph>
<glyph name="k" format="2">
  <advance width="1109.5454545454545"/>
  <unicode hex="006B"/>
  <anchor x="498.5454545454545" y="0.0" name="bottom"/>
  <anchor x="363.46309090909097" y="1292.0" name="tbar"/>
  <anchor x="798.9090909090908" y="1462.0" name="top"/>
  <outline>
    <contour>
      <point x="546.6363636363636" y="1633.6363636363635" type="line"/>
      <point x="131.5454545454546" y="1584.3636363636365" type="line"/>
      <point x="122.18181818181817" y="1533.6363636363635" type="line"/>
      <point x="259.0909090909091" y="1492.2727272727273" type="line"/>
      <point x="40.636363636363654" y="0.0" type="line"/>
      <point x="362.27272727272725" y="0.0" type="line"/>
      <point x="593.6363636363636" y="1604.3636363636365" type="line"/>
    </contour>
    <contour>
      <point x="783.7272727272727" y="-21.181818181818183" type="curve" smooth="yes"/>
      <point x="964.2727272727273" y="-21.181818181818183"/>
      <point x="1085.3636363636363" y="81.72727272727273"/>
      <point x="1133.1818181818178" y="135.45454545454544" type="curve"/>
      <point x="1103.7272727272727" y="189.45454545454544" type="line"/>
      <point x="1069.5454545454545" y="157.27272727272728"/>
      <point x="1029.3636363636363" y="144.18181818181816"/>
      <point x="1004.0909090909089" y="144.18181818181816" type="curve" smooth="yes"/>
      <point x="963.1818181818182" y="144.18181818181816"/>
      <point x="937.8181818181818" y="168.45454545454544"/>
      <point x="904.5454545454546" y="240.54545454545456" type="curve" smooth="yes"/>
      <point x="708.3636363636364" y="673.2727272727273" type="line"/>
      <point x="555.4545454545455" y="564.2727272727273" type="line"/>
      <point x="689.6363636363636" y="611.2727272727273"/>
      <point x="880.9999999999999" y="711.9090909090909"/>
      <point x="957.3636363636364" y="785.2727272727274" type="curve" smooth="yes"/>
      <point x="1012.0909090909091" y="830.1818181818182"/>
      <point x="1059.181818181818" y="889.0909090909091"/>
      <point x="1058.8181818181815" y="968.3636363636364" type="curve" smooth="yes"/>
      <point x="1058.8181818181815" y="1023.9090909090909"/>
      <point x="1025.3636363636365" y="1075.5454545454545"/>
      <point x="932.1818181818181" y="1075.5454545454545" type="curve" smooth="yes"/>
      <point x="856.9999999999999" y="1075.5454545454545"/>
      <point x="777.9999999999999" y="1029.4545454545453"/>
      <point x="773.5454545454546" y="928.0" type="curve" smooth="yes"/>
      <point x="770.3636363636363" y="860.9090909090909"/>
      <point x="754.3636363636365" y="774.5454545454545"/>
      <point x="691.0" y="717.0" type="curve" smooth="yes"/>
      <point x="609.3636363636364" y="630.2727272727273"/>
      <point x="538.0" y="593.6363636363636"/>
      <point x="452.3636363636364" y="553.3636363636364" type="curve"/>
      <point x="593.3636363636364" y="152.09090909090912" type="line" smooth="yes"/>
      <point x="636.5454545454545" y="24.545454545454547"/>
      <point x="684.7272727272727" y="-21.181818181818183"/>
    </contour>
  </outline>
</glyph>
<glyph name="l" format="2">
  <advance width="575.2727272727273"/>
  <unicode hex="006C"/>
  <anchor x="241.54545454545453" y="0.0" name="bottom"/>
  <anchor x="702.3636363636363" y="1618.727272727273" name="caron"/>
  <anchor x="431.3636363636364" y="1620.909090909091" name="top"/>
  <outline>
    <contour>
      <point x="390.7272727272727" y="197.72727272727275" type="curve" smooth="yes"/>
      <point x="597.0909090909091" y="1604.0909090909092" type="line"/>
      <point x="551.5454545454545" y="1634.0" type="line"/>
      <point x="140.0909090909091" y="1584.3636363636365" type="line"/>
      <point x="129.63636363636363" y="1533.6363636363637" type="line"/>
      <point x="262.1818181818182" y="1493.0000000000002" type="line"/>
      <point x="71.27272727272727" y="201.63636363636363" type="line" smooth="yes"/>
      <point x="66.72727272727272" y="172.0"/>
      <point x="60.72727272727273" y="131.1818181818182"/>
      <point x="60.72727272727273" y="112.0" type="curve" smooth="yes"/>
      <point x="60.72727272727272" y="16.0"/>
      <point x="132.72727272727272" y="-22.545454545454547"/>
      <point x="213.9090909090909" y="-22.545454545454547" type="curve" smooth="yes"/>
      <point x="371.27272727272725" y="-22.545454545454547"/>
      <point x="476.81818181818176" y="48.727272727272734"/>
      <point x="538.2727272727273" y="121.36363636363636" type="curve"/>
      <point x="512.909090909091" y="177.63636363636365" type="line"/>
      <point x="473.0" y="142.45454545454544"/>
      <point x="445.45454545454544" y="133.27272727272728"/>
      <point x="424.1818181818182" y="133.27272727272728" type="curve" smooth="yes"/>
      <point x="399.8181818181818" y="133.27272727272728"/>
      <point x="388.18181818181813" y="149.81818181818184"/>
    </contour>
  </outline>
</glyph>
<glyph name="m" format="2">
  <advance width="1813.9090909090908"/>
  <unicode hex="006D"/>
  <anchor x="832.9090909090909" y="0.0" name="bottom"/>
  <anchor x="1656.5454545454545" y="0.0" name="bottomright"/>
  <anchor x="1034.6363636363635" y="1108.7272727272727" name="top"/>
  <outline>
    <contour>
      <point x="512.6363636363636" y="1035.6363636363635" type="line"/>
      <point x="467.0" y="1069.181818181818" type="line"/>
      <point x="81.27272727272728" y="1005.7272727272727" type="line"/>
      <point x="72.2727272727273" y="953.1818181818181" type="line"/>
      <point x="178.1818181818182" y="902.1818181818181" type="line"/>
      <point x="55.909090909090914" y="0.0" type="line"/>
      <point x="376.4545454545455" y="0.0" type="line"/>
      <point x="458.90909090909093" y="602.4545454545454" type="line"/>
      <point x="512.6363636363636" y="725.9999999999999"/>
      <point x="623.5454545454545" y="866.3636363636364"/>
      <point x="702.7272727272727" y="866.3636363636364" type="curve" smooth="yes"/>
      <point x="754.909090909091" y="866.3636363636364"/>
      <point x="768.5454545454546" y="839.3636363636364"/>
      <point x="770.0" y="757.7272727272727" type="curve" smooth="yes"/>
      <point x="770.3636363636364" y="687.7272727272727"/>
      <point x="751.7272727272727" y="556.909090909091"/>
      <point x="735.1818181818182" y="433.27272727272725" type="curve" smooth="yes"/>
      <point x="677.2727272727273" y="0.0" type="line"/>
      <point x="998.9090909090909" y="0.0" type="line"/>
      <point x="1063.909090909091" y="493.99999999999994" type="line" smooth="yes"/>
      <point x="1075.3636363636363" y="577.8181818181819"/>
      <point x="1079.6363636363637" y="629.8181818181819"/>
      <point x="1086.3636363636363" y="710.3636363636364" type="curve"/>
      <point x="1039.3636363636363" y="521.909090909091" type="line"/>
      <point x="1092.9090909090908" y="703.3636363636365"/>
      <point x="1223.0909090909092" y="866.3636363636364"/>
      <point x="1318.2727272727275" y="866.3636363636364" type="curve" smooth="yes"/>
      <point x="1366.818181818182" y="866.3636363636364"/>
      <point x="1379.3636363636363" y="836.4545454545454"/>
      <point x="1380.090909090909" y="759.909090909091" type="curve" smooth="yes"/>
      <point x="1380.8181818181818" y="689.1818181818182"/>
      <point x="1358.5454545454545" y="556.1818181818181"/>
      <point x="1340.5454545454547" y="433.6363636363636" type="curve" smooth="yes"/>
      <point x="1324.090909090909" y="324.90909090909093"/>
      <point x="1297.7272727272727" y="165.72727272727272"/>
      <point x="1297.7272727272727" y="114.72727272727272" type="curve" smooth="yes"/>
      <point x="1297.7272727272727" y="30.545454545454543"/>
      <point x="1352.181818181818" y="-22.545454545454547"/>
      <point x="1451.3636363636365" y="-22.545454545454547" type="curve" smooth="yes"/>
      <point x="1634.909090909091" y="-22.545454545454547"/>
      <point x="1742.6363636363637" y="76.72727272727272"/>
      <point x="1783.7272727272727" y="122.0" type="curve"/>
      <point x="1758.2727272727275" y="177.63636363636363" type="line"/>
      <point x="1720.5454545454545" y="144.54545454545453"/>
      <point x="1691.6363636363635" y="133.27272727272728"/>
      <point x="1669.6363636363637" y="133.27272727272728" type="curve" smooth="yes"/>
      <point x="1650.9090909090908" y="133.27272727272728"/>
      <point x="1632.272727272727" y="142.8181818181818"/>
      <point x="1632.2727272727273" y="190.8181818181818" type="curve" smooth="yes"/>
      <point x="1637.3636363636363" y="259.6363636363637"/>
      <point x="1659.4545454545453" y="395.27272727272725"/>
      <point x="1674.2727272727273" y="494.0" type="curve" smooth="yes"/>
      <point x="1690.090909090909" y="602.0"/>
      <point x="1713.3636363636363" y="729.4545454545455"/>
      <point x="1713.3636363636363" y="826.0" type="curve" smooth="yes"/>
      <point x="1713.3636363636363" y="976.0"/>
      <point x="1631.090909090909" y="1069.1818181818182"/>
      <point x="1483.9999999999998" y="1069.1818181818182" type="curve" smooth="yes"/>
      <point x="1288.4545454545455" y="1069.1818181818182"/>
      <point x="1126.0909090909092" y="899.1818181818181"/>
      <point x="1039.6363636363637" y="631.9090909090908" type="curve"/>
      <point x="1076.2727272727275" y="645.9999999999999" type="line"/>
      <point x="1082.818181818182" y="680.3636363636365"/>
      <point x="1088.6363636363635" y="734.6363636363636"/>
      <point x="1090.4545454545455" y="764.8181818181818" type="curve" smooth="yes"/>
      <point x="1102.0" y="955.0000000000001"/>
      <point x="1035.4545454545453" y="1069.1818181818182"/>
      <point x="875.7272727272727" y="1069.1818181818182" type="curve" smooth="yes"/>
      <point x="694.1818181818181" y="1069.1818181818182"/>
      <point x="542.9090909090908" y="888.6363636363636"/>
      <point x="477.8181818181818" y="740.1818181818181" type="curve"/>
    </contour>
  </outline>
</glyph>
<glyph name="n" format="2">
  <advance width="1196.9090909090908"/>
  <unicode hex="006E"/>
  <anchor x="579.7272727272727" y="0.0" name="bottom"/>
  <anchor x="1043.1818181818182" y="0.0" name="bottomright"/>
  <anchor x="705.7272727272727" y="1108.7272727272727" name="top"/>
  <outline>
    <contour>
      <point x="477.81818181818187" y="740.9090909090909" type="curve"/>
      <point x="512.6363636363637" y="1035.6363636363635" type="line"/>
      <point x="467.72727272727275" y="1069.181818181818" type="line"/>
      <point x="81.27272727272727" y="1005.7272727272727" type="line"/>
      <point x="72.2727272727273" y="953.1818181818181" type="line"/>
      <point x="178.18181818181816" y="902.1818181818181" type="line"/>
      <point x="56.63636363636365" y="0.0" type="line"/>
      <point x="376.81818181818187" y="0.0" type="line"/>
      <point x="458.54545454545456" y="595.5454545454545" type="line"/>
      <point x="511.90909090909093" y="722.3636363636364"/>
      <point x="619.1818181818181" y="866.3636363636364"/>
      <point x="701.2727272727274" y="866.3636363636364" type="curve" smooth="yes"/>
      <point x="750.1818181818184" y="866.3636363636364"/>
      <point x="762.7272727272727" y="836.4545454545455"/>
      <point x="763.4545454545455" y="759.9090909090909" type="curve" smooth="yes"/>
      <point x="764.1818181818182" y="689.1818181818182"/>
      <point x="741.909090909091" y="556.1818181818182"/>
      <point x="723.9090909090909" y="433.27272727272725" type="curve" smooth="yes"/>
      <point x="707.8181818181818" y="325.2727272727273"/>
      <point x="680.7272727272727" y="165.72727272727272"/>
      <point x="680.7272727272726" y="114.72727272727273" type="curve" smooth="yes"/>
      <point x="680.7272727272727" y="30.545454545454554"/>
      <point x="736.2727272727274" y="-22.545454545454547"/>
      <point x="834.3636363636364" y="-22.545454545454547" type="curve" smooth="yes"/>
      <point x="1017.9090909090909" y="-22.545454545454547"/>
      <point x="1126.0" y="76.36363636363637"/>
      <point x="1166.7272727272727" y="121.63636363636364" type="curve"/>
      <point x="1141.6363636363637" y="177.27272727272728" type="line"/>
      <point x="1103.9090909090908" y="144.54545454545453"/>
      <point x="1074.6363636363635" y="133.27272727272728"/>
      <point x="1052.6363636363637" y="133.27272727272728" type="curve" smooth="yes"/>
      <point x="1034.6363636363637" y="133.27272727272728"/>
      <point x="1015.6363636363636" y="142.8181818181818"/>
      <point x="1015.6363636363636" y="190.8181818181818" type="curve" smooth="yes"/>
      <point x="1021.3636363636364" y="259.6363636363636"/>
      <point x="1043.5454545454545" y="395.27272727272725"/>
      <point x="1057.6363636363635" y="494.0" type="curve" smooth="yes"/>
      <point x="1072.7272727272727" y="602.0"/>
      <point x="1096.7272727272727" y="729.4545454545455"/>
      <point x="1096.7272727272727" y="826.0" type="curve" smooth="yes"/>
      <point x="1096.7272727272727" y="975.9999999999999"/>
      <point x="1016.4545454545455" y="1069.1818181818182"/>
      <point x="867.0" y="1069.1818181818182" type="curve" smooth="yes"/>
      <point x="684.3636363636365" y="1069.1818181818182"/>
      <point x="545.090909090909" y="891.5454545454545"/>
    </contour>
  </outline>
</glyph>
<glyph name="o" format="2">
  <advance width="1115.8181818181818"/>
  <unicode hex="006F"/>
  <anchor x="477.7272727272727" y="-27.0" name="bottom"/>
  <anchor x="557.2727272727274" y="522.9090909090909" name="center"/>
  <anchor x="632.5454545454545" y="7.272727272727273" name="ogonek"/>
  <anchor x="645.2727272727274" y="1110.0" name="top"/>
  <anchor x="821.4545454545454" y="1043.1818181818182" name="topright"/>
  <outline>
    <contour>
      <point x="637.0" y="1073.090909090909" type="curve" smooth="yes"/>
      <point x="255.6363636363636" y="1073.090909090909"/>
      <point x="34.27272727272728" y="777.6363636363636"/>
      <point x="38.63636363636364" y="403.6363636363636" type="curve" smooth="yes"/>
      <point x="41.909090909090914" y="140.90909090909088"/>
      <point x="176.1818181818182" y="-28.0"/>
      <point x="472.1818181818182" y="-28.0" type="curve" smooth="yes"/>
      <point x="856.0909090909092" y="-28.0"/>
      <point x="1081.909090909091" y="274.09090909090907"/>
      <point x="1077.5454545454547" y="638.4545454545455" type="curve" smooth="yes"/>
      <point x="1074.2727272727273" y="909.4545454545454"/>
      <point x="934.1818181818182" y="1073.090909090909"/>
    </contour>
    <contour>
      <point x="616.9090909090909" y="992.9090909090909" type="curve" smooth="yes"/>
      <point x="706.4545454545454" y="992.9090909090909"/>
      <point x="727.4545454545455" y="889.3636363636365"/>
      <point x="729.6363636363637" y="715.6363636363637" type="curve" smooth="yes"/>
      <point x="732.1818181818182" y="453.6363636363637"/>
      <point x="671.7272727272727" y="51.81818181818182"/>
      <point x="498.45454545454544" y="51.81818181818182" type="curve" smooth="yes"/>
      <point x="403.8181818181818" y="51.81818181818182"/>
      <point x="387.54545454545456" y="173.0909090909091"/>
      <point x="384.6363636363636" y="334.7272727272727" type="curve" smooth="yes"/>
      <point x="381.3636363636364" y="595.4545454545455"/>
      <point x="443.6363636363636" y="992.9090909090909"/>
    </contour>
  </outline>
</glyph>
<glyph name="p" format="2">
  <advance width="1160.6363636363635"/>
  <unicode hex="0070"/>
  <anchor x="704.1818181818181" y="92.0" name="tick"/>
  <anchor x="686.1818181818182" y="1108.7272727272727" name="top"/>
  <outline>
    <contour>
      <point x="-20.36363636363636" y="-508.0" type="line"/>
      <point x="296.09090909090907" y="-508.0" type="line"/>
      <point x="369.9090909090909" y="-14.454545454545453" type="line"/>
      <point x="399.0909090909091" y="-19.181818181818183"/>
      <point x="430.2727272727273" y="-22.545454545454547"/>
      <point x="457.1818181818182" y="-22.545454545454547" type="curve" smooth="yes"/>
      <point x="881.9090909090909" y="-22.545454545454547"/>
      <point x="1117.3636363636363" y="311.99999999999994"/>
      <point x="1117.3636363636363" y="676.3636363636364" type="curve" smooth="yes"/>
      <point x="1117.3636363636363" y="944.7272727272729"/>
      <point x="988.0909090909089" y="1071.090909090909"/>
      <point x="802.8181818181818" y="1071.090909090909" type="curve" smooth="yes"/>
      <point x="669.3636363636364" y="1071.090909090909"/>
      <point x="553.6363636363636" y="987.6363636363636"/>
      <point x="497.36363636363643" y="895.0000000000001" type="curve"/>
      <point x="515.0" y="1035.6363636363635" type="line"/>
      <point x="470.45454545454544" y="1069.181818181818" type="line"/>
      <point x="80.9090909090909" y="1005.7272727272727" type="line"/>
      <point x="71.9090909090909" y="953.1818181818181" type="line"/>
      <point x="178.54545454545453" y="902.5454545454545" type="line"/>
    </contour>
    <contour>
      <point x="384.8181818181818" y="93.0909090909091" type="curve"/>
      <point x="479.27272727272725" y="753.1818181818181" type="line"/>
      <point x="506.8181818181818" y="827.0909090909091"/>
      <point x="587.9999999999999" y="932.2727272727273"/>
      <point x="669.4545454545455" y="932.2727272727273" type="curve" smooth="yes"/>
      <point x="748.0909090909091" y="932.2727272727273"/>
      <point x="774.5454545454545" y="845.4545454545455"/>
      <point x="774.5454545454545" y="706.909090909091" type="curve" smooth="yes"/>
      <point x="774.5454545454545" y="420.8181818181818"/>
      <point x="695.5454545454545" y="61.54545454545455"/>
      <point x="475.5454545454545" y="61.54545454545455" type="curve" smooth="yes"/>
      <point x="432.81818181818187" y="61.54545454545455"/>
      <point x="403.6363636363636" y="74.45454545454545"/>
    </contour>
  </outline>
</glyph>
<glyph name="q" format="2">
  <advance width="1126.8181818181818"/>
  <unicode hex="0071"/>
  <anchor x="497.5454545454545" y="1580.0" name="cr"/>
  <anchor x="688.2727272727273" y="1150.909090909091" name="top"/>
  <outline>
    <contour>
      <point x="906.4545454545455" y="-284.99999999999994" type="curve" smooth="yes"/>
      <point x="1096.272727272727" y="1063.0909090909092" type="line"/>
      <point x="913.5454545454545" y="1023.0909090909091" type="line"/>
      <point x="854.3636363636363" y="1045.090909090909"/>
      <point x="774.4545454545454" y="1066.6363636363635"/>
      <point x="697.090909090909" y="1066.6363636363635" type="curve" smooth="yes"/>
      <point x="246.09090909090912" y="1066.6363636363635"/>
      <point x="34.90909090909091" y="733.7272727272727"/>
      <point x="34.90909090909091" y="368.45454545454544" type="curve" smooth="yes"/>
      <point x="34.90909090909091" y="117.0909090909091"/>
      <point x="174.63636363636363" y="-22.636363636363637"/>
      <point x="367.0909090909091" y="-22.636363636363637" type="curve" smooth="yes"/>
      <point x="518.4545454545454" y="-22.636363636363637"/>
      <point x="601.4545454545456" y="61.45454545454545"/>
      <point x="652.2727272727273" y="153.36363636363635" type="curve"/>
      <point x="580.2727272727273" y="-336.18181818181813" type="line" smooth="yes"/>
      <point x="566.7272727272727" y="-428.3636363636364"/>
      <point x="606.6363636363636" y="-502.81818181818187"/>
      <point x="741.4545454545455" y="-502.81818181818187" type="curve" smooth="yes"/>
      <point x="897.0" y="-502.81818181818187"/>
      <point x="1005.0909090909091" y="-422.6363636363636"/>
      <point x="1054.7272727272727" y="-359.2727272727272" type="curve"/>
      <point x="1029.0" y="-301.9090909090909" type="line"/>
      <point x="993.9999999999999" y="-334.3636363636364"/>
      <point x="962.6363636363636" y="-348.2727272727273"/>
      <point x="938.7272727272727" y="-348.2727272727273" type="curve" smooth="yes"/>
      <point x="918.8181818181818" y="-348.2727272727273"/>
      <point x="900.5454545454544" y="-330.4545454545455"/>
    </contour>
    <contour>
      <point x="763.4545454545454" y="952.8181818181818" type="curve"/>
      <point x="668.5454545454546" y="296.6363636363636" type="line"/>
      <point x="641.7272727272729" y="221.45454545454544"/>
      <point x="566.1818181818181" y="122.54545454545455"/>
      <point x="494.0909090909091" y="122.54545454545455" type="curve" smooth="yes"/>
      <point x="433.0" y="122.54545454545455"/>
      <point x="375.27272727272725" y="172.36363636363635"/>
      <point x="375.27272727272725" y="335.90909090909093" type="curve" smooth="yes"/>
      <point x="375.27272727272725" y="598.4545454545454"/>
      <point x="439.54545454545456" y="987.6363636363636"/>
      <point x="680.8181818181818" y="987.6363636363635" type="curve" smooth="yes"/>
      <point x="718.9090909090909" y="987.6363636363635"/>
      <point x="748.3636363636365" y="974.0909090909091"/>
    </contour>
  </outline>
</glyph>
<glyph name="r" format="2">
  <advance width="789.3636363636364"/>
  <unicode hex="0072"/>
  <anchor x="219.1818181818182" y="0.0" name="bottom"/>
  <anchor x="511.5454545454545" y="1109.3636363636365" name="top"/>
  <outline>
    <contour>
      <point x="466.90909090909093" y="748.6363636363637" type="curve"/>
      <point x="478.9090909090908" y="850.9090909090909" type="line"/>
      <point x="497.81818181818187" y="1032.6363636363637" type="line"/>
      <point x="452.1818181818182" y="1069.181818181818" type="line"/>
      <point x="81.27272727272727" y="1005.7272727272727" type="line"/>
      <point x="72.2727272727273" y="953.1818181818181" type="line"/>
      <point x="178.1818181818182" y="902.1818181818182" type="line"/>
      <point x="56.0" y="0.0" type="line"/>
      <point x="375.8181818181818" y="0.0" type="line"/>
      <point x="471.1818181818182" y="688.6363636363636" type="line"/>
      <point x="510.1818181818182" y="725.5454545454546"/>
      <point x="577.3636363636364" y="743.9999999999999"/>
      <point x="651.6363636363637" y="743.9999999999999" type="curve" smooth="yes"/>
      <point x="712.0909090909091" y="743.9999999999999"/>
      <point x="764.7272727272726" y="717.1818181818181"/>
      <point x="772.7272727272727" y="707.1818181818181" type="curve"/>
      <point x="840.3636363636364" y="1051.7272727272727" type="line"/>
      <point x="830.3636363636364" y="1059.090909090909"/>
      <point x="807.6363636363635" y="1069.1818181818182"/>
      <point x="771.7272727272727" y="1069.1818181818182" type="curve" smooth="yes"/>
      <point x="621.6363636363635" y="1069.1818181818182"/>
      <point x="517.9090909090908" y="898.4545454545455"/>
    </contour>
  </outline>
</glyph>
<glyph name="s" format="2">
  <advance width="833.9090909090909"/>
  <unicode hex="0073"/>
  <anchor x="291.2727272727273" y="0.0" name="bottom"/>
  <anchor x="483.2727272727273" y="1108.7272727272727" name="top"/>
  <outline>
    <contour>
      <point x="753.090909090909" y="812.1818181818181" type="line"/>
      <point x="795.9999999999999" y="1033.1818181818182" type="line"/>
      <point x="767.1818181818181" y="1046.5454545454545"/>
      <point x="646.1818181818181" y="1066.0"/>
      <point x="552.1818181818181" y="1066.0" type="curve" smooth="yes"/>
      <point x="256.9090909090909" y="1066.0"/>
      <point x="76.18181818181819" y="943.6363636363637"/>
      <point x="76.18181818181819" y="733.5454545454545" type="curve" smooth="yes"/>
      <point x="76.18181818181819" y="576.8181818181818"/>
      <point x="173.27272727272728" y="486.6363636363636"/>
      <point x="282.45454545454544" y="414.3636363636364" type="curve" smooth="yes"/>
      <point x="401.6363636363637" y="335.54545454545456"/>
      <point x="459.8181818181818" y="289.81818181818187"/>
      <point x="459.8181818181818" y="203.81818181818184" type="curve" smooth="yes"/>
      <point x="459.8181818181818" y="121.72727272727272"/>
      <point x="392.6363636363636" y="71.0909090909091"/>
      <point x="314.6363636363636" y="71.0909090909091" type="curve" smooth="yes"/>
      <point x="194.0" y="71.0909090909091"/>
      <point x="112.54545454545453" y="174.6363636363636"/>
      <point x="83.72727272727272" y="268.72727272727275" type="curve"/>
      <point x="36.18181818181818" y="268.72727272727275" type="line"/>
      <point x="-17.545454545454543" y="44.18181818181818" type="line"/>
      <point x="16.636363636363637" y="16.090909090909093"/>
      <point x="164.7272727272727" y="-23.18181818181818"/>
      <point x="296.7272727272727" y="-23.18181818181818" type="curve" smooth="yes"/>
      <point x="585.6363636363636" y="-23.18181818181818"/>
      <point x="765.9090909090909" y="99.81818181818181"/>
      <point x="765.9090909090909" y="332.90909090909093" type="curve" smooth="yes"/>
      <point x="765.9090909090909" y="484.8181818181818"/>
      <point x="679.1818181818181" y="562.6363636363636"/>
      <point x="558.0" y="643.9090909090908" type="curve" smooth="yes"/>
      <point x="454.3636363636364" y="713.5454545454545"/>
      <point x="382.0909090909091" y="769.8181818181819"/>
      <point x="382.0909090909091" y="861.5454545454544" type="curve" smooth="yes"/>
      <point x="382.0909090909091" y="943.090909090909"/>
      <point x="451.27272727272725" y="976.0"/>
      <point x="523.5454545454545" y="976.0" type="curve" smooth="yes"/>
      <point x="626.1818181818181" y="976.0"/>
      <point x="690.0" y="893.3636363636364"/>
      <point x="703.6363636363635" y="812.1818181818181" type="curve"/>
    </contour>
  </outline>
</glyph>
<glyph name="t" format="2">
  <advance width="662.5454545454544"/>
  <unicode hex="0074"/>
  <anchor x="262.1818181818182" y="0.0" name="bottom"/>
  <anchor x="734.2727272727273" y="1258.090909090909" name="car"/>
  <anchor x="682.4545454545455" y="1609.7272727272727" name="caron"/>
  <anchor x="251.0361818181818" y="580.0" name="tbar"/>
  <anchor x="490.0" y="1362.0" name="top"/>
  <outline>
    <contour>
      <point x="429.4545454545455" y="379.0" type="curve" smooth="yes"/>
      <point x="504.2727272727273" y="930.0909090909091" type="line"/>
      <point x="683.5454545454545" y="930.0909090909091" type="line"/>
      <point x="700.4545454545455" y="1043.1818181818182" type="line"/>
      <point x="521.1818181818181" y="1043.1818181818182" type="line"/>
      <point x="565.1818181818181" y="1341.9090909090908" type="line"/>
      <point x="404.18181818181813" y="1341.9090909090908" type="line"/>
      <point x="364.1818181818182" y="1245.909090909091"/>
      <point x="286.3636363636364" y="1112.6363636363637"/>
      <point x="219.8181818181818" y="1051.909090909091" type="curve"/>
      <point x="86.27272727272728" y="992.5454545454545" type="line"/>
      <point x="73.45454545454544" y="930.0909090909091" type="line"/>
      <point x="179.1818181818182" y="930.0909090909091" type="line"/>
      <point x="105.63636363636364" y="384.0" type="line" smooth="yes"/>
      <point x="83.54545454545453" y="218.54545454545456"/>
      <point x="74.54545454545455" y="165.54545454545453"/>
      <point x="72.63636363636364" y="144.54545454545453" type="curve" smooth="yes"/>
      <point x="65.0" y="34.72727272727273"/>
      <point x="145.8181818181818" y="-22.545454545454547"/>
      <point x="259.3636363636364" y="-22.545454545454547" type="curve" smooth="yes"/>
      <point x="428.6363636363636" y="-22.545454545454547"/>
      <point x="567.909090909091" y="48.45454545454547"/>
      <point x="644.0" y="139.1818181818182" type="curve"/>
      <point x="619.3636363636364" y="201.9090909090909" type="line"/>
      <point x="578.0" y="161.1818181818182"/>
      <point x="520.9090909090909" y="139.18181818181816"/>
      <point x="471.4545454545455" y="139.18181818181816" type="curve" smooth="yes"/>
      <point x="436.81818181818176" y="139.18181818181816"/>
      <point x="407.72727272727275" y="156.9090909090909"/>
      <point x="407.72727272727275" y="195.0" type="curve" smooth="yes"/>
      <point x="407.72727272727275" y="224.1818181818182"/>
      <point x="417.6363636363637" y="291.4545454545455"/>
    </contour>
  </outline>
</glyph>
<glyph name="u" format="2">
  <advance width="1159.9090909090908"/>
  <unicode hex="0075"/>
  <anchor x="491.3636363636364" y="0.0" name="bottom"/>
  <anchor x="1008.4545454545455" y="0.0" name="bottomright"/>
  <anchor x="923.4545454545454" y="7.272727272727273" name="ogonek"/>
  <anchor x="654.8181818181819" y="1110.0" name="top"/>
  <anchor x="978.1818181818182" y="1048.6363636363635" name="topright"/>
  <outline>
    <contour>
      <point x="317.5454545454545" y="-23.81818181818182" type="curve" smooth="yes"/>
      <point x="498.4545454545455" y="-23.81818181818182"/>
      <point x="617.5454545454545" y="125.18181818181819"/>
      <point x="678.4545454545454" y="266.1818181818182" type="curve"/>
      <point x="682.4545454545454" y="265.45454545454544" type="line"/>
      <point x="672.0909090909091" y="201.54545454545456"/>
      <point x="661.2727272727273" y="124.8181818181818"/>
      <point x="662.7272727272727" y="98.0" type="curve" smooth="yes"/>
      <point x="667.8181818181819" y="23.18181818181818"/>
      <point x="719.2727272727273" y="-21.90909090909091"/>
      <point x="828.5454545454546" y="-21.90909090909091" type="curve" smooth="yes"/>
      <point x="965.3636363636364" y="-21.90909090909091"/>
      <point x="1079.2727272727275" y="56.81818181818182"/>
      <point x="1129.1818181818182" y="121.36363636363637" type="curve"/>
      <point x="1103.090909090909" y="177.90909090909093" type="line"/>
      <point x="1067.7272727272727" y="145.72727272727272"/>
      <point x="1039.0" y="133.27272727272728"/>
      <point x="1015.0909090909092" y="133.27272727272728" type="curve" smooth="yes"/>
      <point x="992.0909090909091" y="133.27272727272728"/>
      <point x="971.0" y="150.8181818181818"/>
      <point x="977.0000000000001" y="195.8181818181818" type="curve" smooth="yes"/>
      <point x="1101.0909090909092" y="1049.7272727272727" type="line"/>
      <point x="780.090909090909" y="1049.7272727272727" type="line"/>
      <point x="682.3636363636364" y="385.90909090909093" type="line"/>
      <point x="637.5454545454546" y="288.0"/>
      <point x="558.0909090909091" y="168.0909090909091"/>
      <point x="476.9090909090909" y="168.0909090909091" type="curve" smooth="yes"/>
      <point x="423.6363636363636" y="168.0909090909091"/>
      <point x="409.0" y="201.63636363636363"/>
      <point x="409.0" y="267.0909090909091" type="curve" smooth="yes"/>
      <point x="409.0" y="308.54545454545456"/>
      <point x="429.6363636363636" y="458.72727272727275"/>
      <point x="445.0" y="572.8181818181819" type="curve" smooth="yes"/>
      <point x="504.6363636363637" y="1035.6363636363635" type="line"/>
      <point x="459.72727272727275" y="1069.181818181818" type="line"/>
      <point x="69.81818181818181" y="1013.0000000000001" type="line"/>
      <point x="60.81818181818183" y="960.090909090909" type="line"/>
      <point x="172.0909090909091" y="902.5454545454546" type="line"/>
      <point x="114.90909090909089" y="537.5454545454545" type="line" smooth="yes"/>
      <point x="98.9090909090909" y="427.6363636363636"/>
      <point x="77.45454545454547" y="288.27272727272725"/>
      <point x="77.45454545454547" y="202.63636363636365" type="curve" smooth="yes"/>
      <point x="78.90909090909092" y="64.27272727272728"/>
      <point x="179.72727272727272" y="-23.81818181818182"/>
    </contour>
  </outline>
</glyph>
<glyph name="v" format="2">
  <advance width="1004.2727272727274"/>
  <unicode hex="0076"/>
  <anchor x="590.2727272727271" y="1108.7272727272727" name="top"/>
  <outline>
    <contour>
      <point x="109.54545454545453" y="866.2727272727273" type="curve" smooth="yes"/>
      <point x="227.27272727272725" y="305.90909090909093" type="line"/>
      <point x="295.0" y="-20.0" type="line"/>
      <point x="506.27272727272725" y="-6.0" type="line"/>
      <point x="628.2727272727273" y="153.54545454545456" type="line" smooth="yes"/>
      <point x="883.8181818181819" y="484.27272727272725"/>
      <point x="1008.2727272727271" y="702.7272727272729"/>
      <point x="1006.8181818181816" y="867.7272727272727" type="curve" smooth="yes"/>
      <point x="1006.4545454545454" y="966.0909090909091"/>
      <point x="973.9090909090909" y="1075.5454545454545"/>
      <point x="840.9090909090908" y="1075.5454545454545" type="curve" smooth="yes"/>
      <point x="756.090909090909" y="1075.5454545454545"/>
      <point x="700.3636363636364" y="1012.5454545454545"/>
      <point x="700.3636363636364" y="939.3636363636364" type="curve" smooth="yes"/>
      <point x="700.3636363636364" y="856.9999999999999"/>
      <point x="772.9090909090909" y="782.2727272727273"/>
      <point x="772.9090909090909" y="696.7272727272727" type="curve" smooth="yes"/>
      <point x="772.9090909090909" y="571.5454545454545"/>
      <point x="724.3636363636363" y="432.3636363636364"/>
      <point x="635.8181818181818" y="297.90909090909093" type="curve" smooth="yes"/>
      <point x="489.9090909090909" y="76.9090909090909" type="line"/>
      <point x="564.6363636363635" y="123.63636363636364" type="line"/>
      <point x="526.4545454545455" y="372.9090909090909" type="line"/>
      <point x="443.0909090909091" y="892.5454545454545" type="line" smooth="yes"/>
      <point x="424.0" y="1011.6363636363637"/>
      <point x="377.3636363636364" y="1074.909090909091"/>
      <point x="261.6363636363636" y="1074.909090909091" type="curve" smooth="yes"/>
      <point x="129.27272727272728" y="1074.909090909091"/>
      <point x="35.18181818181818" y="1003.1818181818181"/>
      <point x="-10.818181818181813" y="956.4545454545455" type="curve"/>
      <point x="13.454545454545457" y="900.5454545454545" type="line"/>
      <point x="32.54545454545455" y="914.9090909090909"/>
      <point x="47.45454545454546" y="922.5454545454544"/>
      <point x="66.27272727272727" y="922.5454545454544" type="curve" smooth="yes"/>
      <point x="87.54545454545453" y="922.5454545454544"/>
      <point x="100.9090909090909" y="908.1818181818182"/>
    </contour>
  </outline>
</glyph>
<glyph name="w" format="2">
  <advance width="1582.7272727272725"/>
  <unicode hex="0077"/>
  <anchor x="900.909090909091" y="1108.7272727272727" name="top"/>
  <outline>
    <contour>
      <point x="281.72727272727275" y="-20.0" type="line"/>
      <point x="548.0" y="-2.7272727272727275" type="line"/>
      <point x="669.3636363636364" y="364.9090909090909" type="line"/>
      <point x="748.1818181818182" y="621.6363636363637" type="line"/>
      <point x="800.0909090909091" y="822.3636363636365" type="line"/>
      <point x="813.2727272727273" y="621.6363636363637" type="line"/>
      <point x="855.0" y="277.54545454545456" type="line"/>
      <point x="890.6363636363635" y="-19.272727272727273" type="line"/>
      <point x="1095.0909090909088" y="-5.454545454545455" type="line"/>
      <point x="1283.2727272727273" y="236.90909090909093" type="line" smooth="yes"/>
      <point x="1449.5454545454543" y="447.0909090909091"/>
      <point x="1594.7272727272725" y="710.0"/>
      <point x="1593.2727272727273" y="869.5454545454546" type="curve" smooth="yes"/>
      <point x="1592.5454545454545" y="967.6363636363637"/>
      <point x="1560.7272727272727" y="1077.727272727273"/>
      <point x="1427.0" y="1077.727272727273" type="curve" smooth="yes"/>
      <point x="1341.090909090909" y="1077.727272727273"/>
      <point x="1284.6363636363635" y="1014.0"/>
      <point x="1284.6363636363635" y="940.8181818181818" type="curve" smooth="yes"/>
      <point x="1284.6363636363635" y="851.4545454545454"/>
      <point x="1358.6363636363635" y="775.6363636363637"/>
      <point x="1358.6363636363635" y="685.4545454545454" type="curve" smooth="yes"/>
      <point x="1358.6363636363635" y="576.5454545454544"/>
      <point x="1325.4545454545455" y="460.18181818181824"/>
      <point x="1236.5454545454545" y="317.45454545454544" type="curve" smooth="yes"/>
      <point x="1087.3636363636363" y="64.27272727272727" type="line"/>
      <point x="1165.5454545454547" y="127.54545454545453" type="line"/>
      <point x="1138.7272727272727" y="376.2727272727273" type="line"/>
      <point x="1058.909090909091" y="1046.7272727272727" type="line"/>
      <point x="771.909090909091" y="1046.7272727272727" type="line"/>
      <point x="592.5454545454545" y="416.27272727272725" type="line"/>
      <point x="492.2727272727273" y="71.45454545454547" type="line"/>
      <point x="538.0909090909091" y="91.54545454545453" type="line"/>
      <point x="504.5454545454545" y="373.0909090909091" type="line"/>
      <point x="446.9090909090909" y="888.7272727272726" type="line" smooth="yes"/>
      <point x="432.27272727272725" y="1011.6363636363635"/>
      <point x="379.27272727272725" y="1074.909090909091"/>
      <point x="260.99999999999994" y="1074.909090909091" type="curve" smooth="yes"/>
      <point x="137.09090909090907" y="1074.909090909091"/>
      <point x="40.27272727272727" y="1004.6363636363636"/>
      <point x="-5.363636363636363" y="956.4545454545455" type="curve"/>
      <point x="18.545454545454543" y="900.5454545454545" type="line"/>
      <point x="38.72727272727273" y="914.9090909090909"/>
      <point x="51.81818181818183" y="922.5454545454545"/>
      <point x="71.36363636363636" y="922.5454545454544" type="curve" smooth="yes"/>
      <point x="92.63636363636364" y="922.5454545454544"/>
      <point x="106.9090909090909" y="908.5454545454546"/>
      <point x="115.27272727272725" y="863.0909090909091" type="curve" smooth="yes"/>
      <point x="220.54545454545453" y="288.3636363636364" type="line"/>
    </contour>
  </outline>
</glyph>
<glyph name="x" format="2">
  <advance width="1002.3636363636364"/>
  <unicode hex="0078"/>
  <anchor x="874.1818181818181" y="0.0" name="bottomright"/>
  <anchor x="491.54545454545456" y="524.2727272727273" name="center"/>
  <anchor x="598.0909090909091" y="1150.909090909091" name="top"/>
  <outline>
    <contour>
      <point x="692.4545454545455" y="-21.909090909090907" type="curve" smooth="yes"/>
      <point x="839.7272727272727" y="-21.909090909090907"/>
      <point x="931.3636363636364" y="46.63636363636364"/>
      <point x="986.9090909090909" y="111.18181818181817" type="curve"/>
      <point x="954.9999999999999" y="168.36363636363635" type="line"/>
      <point x="919.0" y="138.36363636363637"/>
      <point x="905.8181818181818" y="134.45454545454547"/>
      <point x="882.9090909090909" y="134.45454545454547" type="curve" smooth="yes"/>
      <point x="848.7272727272729" y="134.45454545454547"/>
      <point x="830.3636363636364" y="165.8181818181818"/>
      <point x="803.9090909090909" y="219.00000000000003" type="curve" smooth="yes"/>
      <point x="596.4545454545455" y="638.3636363636364" type="line"/>
      <point x="562.5454545454545" y="509.9090909090909" type="line"/>
      <point x="1062.7272727272727" y="1043.1818181818182" type="line"/>
      <point x="764.3636363636364" y="1043.1818181818182" type="line"/>
      <point x="539.1818181818181" y="594.2727272727271" type="line"/>
      <point x="596.5454545454546" y="583.909090909091" type="line"/>
      <point x="506.54545454545456" y="906.4545454545455" type="line" smooth="yes"/>
      <point x="471.1818181818182" y="1024.8181818181818"/>
      <point x="408.7272727272727" y="1070.4545454545455"/>
      <point x="301.9090909090909" y="1070.4545454545455" type="curve" smooth="yes"/>
      <point x="152.36363636363637" y="1070.4545454545455"/>
      <point x="53.18181818181818" y="995.1818181818181"/>
      <point x="12.0" y="948.909090909091" type="curve"/>
      <point x="42.0" y="894.0" type="line"/>
      <point x="62.27272727272727" y="911.9090909090908"/>
      <point x="77.36363636363636" y="919.3636363636364"/>
      <point x="106.36363636363636" y="919.3636363636364" type="curve" smooth="yes"/>
      <point x="137.72727272727272" y="919.3636363636364"/>
      <point x="158.63636363636363" y="890.3636363636364"/>
      <point x="181.72727272727272" y="840.9999999999999" type="curve" smooth="yes"/>
      <point x="379.18181818181824" y="422.1818181818182" type="line"/>
      <point x="408.3636363636363" y="543.0909090909092" type="line"/>
      <point x="-78.36363636363637" y="-1.2727272727272727" type="line"/>
      <point x="232.8181818181818" y="0.0" type="line"/>
      <point x="439.45454545454544" y="473.0" type="line"/>
      <point x="369.3636363636364" y="508.0" type="line"/>
      <point x="490.54545454545456" y="143.18181818181816" type="line" smooth="yes"/>
      <point x="539.2727272727271" y="11.18181818181818"/>
      <point x="597.909090909091" y="-21.909090909090907"/>
    </contour>
  </outline>
</glyph>
<glyph name="y" format="2">
  <advance width="1015.9090909090908"/>
  <unicode hex="0079"/>
  <anchor x="901.0000000000001" y="0.0" name="bottom"/>
  <anchor x="588.2727272727274" y="1108.7272727272727" name="top"/>
  <outline>
    <contour>
      <point x="114.0" y="866.2727272727274" type="curve" smooth="yes"/>
      <point x="308.90909090909093" y="-37.54545454545455" type="line"/>
      <point x="502.4545454545455" y="-37.54545454545455" type="line"/>
      <point x="401.2727272727273" y="-193.72727272727275"/>
      <point x="337.18181818181813" y="-309.3636363636364"/>
      <point x="198.27272727272725" y="-309.3636363636364" type="curve" smooth="yes"/>
      <point x="121.18181818181819" y="-309.3636363636364"/>
      <point x="51.36363636363637" y="-259.0909090909091"/>
      <point x="23.63636363636363" y="-234.8181818181818" type="curve"/>
      <point x="-51.36363636363636" y="-451.8181818181818" type="line"/>
      <point x="-12.090909090909086" y="-472.45454545454544"/>
      <point x="47.81818181818183" y="-493.90909090909093"/>
      <point x="115.99999999999999" y="-493.90909090909093" type="curve" smooth="yes"/>
      <point x="263.72727272727275" y="-493.90909090909093"/>
      <point x="372.90909090909093" y="-382.54545454545456"/>
      <point x="500.3636363636363" y="-187.54545454545453" type="curve" smooth="yes"/>
      <point x="639.6363636363635" y="17.36363636363636"/>
      <point x="724.9090909090909" y="172.90909090909093"/>
      <point x="825.7272727272727" y="354.090909090909" type="curve" smooth="yes"/>
      <point x="929.181818181818" y="536.7272727272726"/>
      <point x="1010.090909090909" y="702.3636363636365"/>
      <point x="1010.090909090909" y="882.1818181818181" type="curve" smooth="yes"/>
      <point x="1010.0909090909091" y="976.2727272727273"/>
      <point x="961.2727272727271" y="1075.5454545454545"/>
      <point x="839.8181818181816" y="1075.5454545454545" type="curve" smooth="yes"/>
      <point x="757.5454545454544" y="1075.5454545454545"/>
      <point x="700.8181818181819" y="1018.4545454545455"/>
      <point x="700.8181818181819" y="939.2727272727273" type="curve" smooth="yes"/>
      <point x="700.8181818181819" y="837.4545454545455"/>
      <point x="780.5454545454545" y="776.7272727272729"/>
      <point x="781.8181818181818" y="657.2727272727273" type="curve" smooth="yes"/>
      <point x="782.4545454545454" y="544.1818181818181"/>
      <point x="740.3636363636364" y="407.81818181818187"/>
      <point x="667.8181818181819" y="261.1818181818182" type="curve" smooth="yes"/>
      <point x="574.9090909090909" y="79.45454545454547" type="line"/>
      <point x="546.9090909090909" y="252.81818181818184" type="line"/>
      <point x="515.1818181818181" y="444.8181818181818"/>
      <point x="472.6363636363636" y="731.2727272727273"/>
      <point x="446.27272727272725" y="892.5454545454545" type="curve" smooth="yes"/>
      <point x="425.90909090909093" y="1012.909090909091"/>
      <point x="379.2727272727273" y="1074.909090909091"/>
      <point x="261.6363636363636" y="1074.909090909091" type="curve" smooth="yes"/>
      <point x="133.9090909090909" y="1074.909090909091"/>
      <point x="36.81818181818182" y="1009.090909090909"/>
      <point x="-8.272727272727273" y="956.4545454545454" type="curve"/>
      <point x="14.999999999999996" y="899.9090909090909" type="line"/>
      <point x="35.18181818181819" y="915.6363636363635"/>
      <point x="51.18181818181818" y="922.5454545454545"/>
      <point x="70.72727272727272" y="922.5454545454545" type="curve" smooth="yes"/>
      <point x="89.45454545454545" y="922.5454545454545"/>
      <point x="104.63636363636364" y="908.5454545454546"/>
    </contour>
  </outline>
</glyph>
<glyph name="z" format="2">
  <advance width="910.1818181818181"/>
  <unicode hex="007A"/>
  <anchor x="426.7272727272727" y="0.0" name="bottom"/>
  <anchor x="564.4545454545455" y="1108.7272727272727" name="top"/>
  <outline>
    <contour>
      <point x="654.4545454545455" y="785.1818181818181" type="curve"/>
      <point x="587.5454545454546" y="721.1818181818182" type="line"/>
      <point x="-48.18181818181819" y="11.272727272727273" type="line"/>
      <point x="-3.7272727272727284" y="-30.90909090909091" type="line"/>
      <point x="19.63636363636364" y="-6.909090909090909"/>
      <point x="50.00000000000001" y="3.6363636363636367"/>
      <point x="88.18181818181817" y="3.6363636363636367" type="curve" smooth="yes"/>
      <point x="208.9090909090909" y="3.6363636363636367"/>
      <point x="513.5454545454546" y="-25.18181818181818"/>
      <point x="657.6363636363636" y="-25.18181818181818" type="curve" smooth="yes"/>
      <point x="728.0" y="-25.18181818181818"/>
      <point x="764.0" y="-15.90909090909091"/>
      <point x="783.1818181818181" y="7.545454545454545" type="curve" smooth="yes"/>
      <point x="846.0000000000001" y="77.36363636363637"/>
      <point x="854.1818181818182" y="310.1818181818182"/>
      <point x="847.0000000000001" y="420.36363636363643" type="curve"/>
      <point x="785.0" y="420.36363636363643" type="line"/>
      <point x="771.5454545454545" y="336.4545454545455"/>
      <point x="721.4545454545455" y="264.4545454545455"/>
      <point x="624.1818181818182" y="264.45454545454544" type="curve" smooth="yes"/>
      <point x="513.1818181818182" y="264.4545454545455"/>
      <point x="379.27272727272725" y="265.09090909090907"/>
      <point x="280.27272727272725" y="265.0909090909091" type="curve"/>
      <point x="347.63636363636357" y="337.3636363636363" type="line"/>
      <point x="974.2727272727273" y="1031.4545454545453" type="line"/>
      <point x="933.0909090909091" y="1074.909090909091" type="line"/>
      <point x="903.2727272727273" y="1049.6363636363637"/>
      <point x="880.0" y="1040.2727272727273"/>
      <point x="825.9090909090909" y="1040.2727272727273" type="curve" smooth="yes"/>
      <point x="705.7272727272726" y="1040.2727272727273"/>
      <point x="441.0" y="1073.6363636363637"/>
      <point x="296.54545454545456" y="1073.6363636363637" type="curve" smooth="yes"/>
      <point x="251.09090909090912" y="1073.6363636363637"/>
      <point x="213.54545454545456" y="1059.0000000000002"/>
      <point x="200.1818181818182" y="1051.6363636363637" type="curve" smooth="yes"/>
      <point x="104.54545454545453" y="1000.4545454545454"/>
      <point x="101.63636363636364" y="725.909090909091"/>
      <point x="111.9090909090909" y="641.6363636363636" type="curve"/>
      <point x="174.0" y="641.6363636363636" type="line"/>
      <point x="183.81818181818184" y="718.9090909090909"/>
      <point x="225.6363636363636" y="785.9090909090908"/>
      <point x="328.0" y="785.909090909091" type="curve" smooth="yes"/>
      <point x="429.7272727272727" y="785.9090909090909"/>
      <point x="562.1818181818182" y="785.1818181818181"/>
    </contour>
  </outline>
</glyph>
<glyph name="braceleft" format="2">
  <advance width="941.8181818181818"/>
  <unicode hex="007B"/>
  <outline>
    <contour>
      <point x="436.6363636363636" y="-282.6363636363637" type="curve" smooth="yes"/>
      <point x="534.8181818181819" y="-282.6363636363637"/>
      <point x="622.5454545454545" y="-260.54545454545456"/>
      <point x="703.2727272727273" y="-238.63636363636363" type="curve"/>
      <point x="714.3636363636364" y="-166.0909090909091" type="line"/>
      <point x="676.6363636363636" y="-167.0909090909091"/>
      <point x="637.2727272727273" y="-168.0909090909091"/>
      <point x="600.4545454545455" y="-168.0909090909091" type="curve" smooth="yes"/>
      <point x="513.2727272727273" y="-168.0909090909091"/>
      <point x="445.99999999999994" y="-128.81818181818184"/>
      <point x="465.72727272727275" y="-1.8181818181818166" type="curve" smooth="yes"/>
      <point x="483.09090909090907" y="109.1818181818182"/>
      <point x="574.7272727272727" y="306.8181818181818"/>
      <point x="594.7272727272727" y="439.8181818181818" type="curve" smooth="yes"/>
      <point x="620.8181818181818" y="613.6363636363636"/>
      <point x="478.9090909090909" y="671.9090909090908"/>
      <point x="322.5454545454546" y="693.909090909091" type="curve"/>
      <point x="485.27272727272725" y="716.9090909090909"/>
      <point x="645.0909090909091" y="766.1818181818181"/>
      <point x="672.1818181818182" y="940.0" type="curve" smooth="yes"/>
      <point x="693.1818181818181" y="1074.9999999999998"/>
      <point x="660.4545454545454" y="1289.909090909091"/>
      <point x="677.1818181818181" y="1399.909090909091" type="curve" smooth="yes"/>
      <point x="697.1818181818181" y="1524.9090909090908"/>
      <point x="772.4545454545455" y="1566.1818181818182"/>
      <point x="860.2727272727273" y="1566.1818181818182" type="curve" smooth="yes"/>
      <point x="898.0" y="1566.1818181818182"/>
      <point x="939.9090909090909" y="1565.5454545454545"/>
      <point x="976.9999999999999" y="1564.5454545454545" type="curve"/>
      <point x="987.7272727272726" y="1632.7272727272727" type="line"/>
      <point x="908.5454545454546" y="1656.5454545454547"/>
      <point x="835.8181818181818" y="1676.7272727272727"/>
      <point x="737.6363636363636" y="1676.7272727272727" type="curve" smooth="yes"/>
      <point x="506.6363636363636" y="1676.7272727272727"/>
      <point x="391.27272727272725" y="1575.7272727272727"/>
      <point x="365.9090909090909" y="1407.7272727272727" type="curve" smooth="yes"/>
      <point x="337.909090909091" y="1224.7272727272727"/>
      <point x="426.54545454545456" y="1046.181818181818"/>
      <point x="403.09090909090907" y="895.6363636363637" type="curve" smooth="yes"/>
      <point x="388.81818181818187" y="804.6363636363636"/>
      <point x="346.27272727272725" y="746.6363636363636"/>
      <point x="156.09090909090907" y="746.6363636363636" type="curve"/>
      <point x="142.1818181818182" y="653.1818181818181" type="line"/>
      <point x="331.09090909090907" y="653.1818181818181"/>
      <point x="353.4545454545454" y="575.3636363636364"/>
      <point x="338.81818181818176" y="482.72727272727275" type="curve" smooth="yes"/>
      <point x="314.6363636363636" y="332.8181818181818"/>
      <point x="178.90909090909093" y="167.36363636363637"/>
      <point x="151.1818181818182" y="-14.636363636363637" type="curve" smooth="yes"/>
      <point x="125.45454545454547" y="-181.63636363636363"/>
      <point x="205.9090909090909" y="-282.6363636363637"/>
    </contour>
  </outline>
</glyph>
<glyph name="asciitilde" format="2">
  <advance width="1196.7272727272725"/>
  <unicode hex="007E"/>
  <outline>
    <contour>
      <point x="169.72727272727275" y="642.090909090909" type="curve"/>
      <point x="216.72727272727272" y="564.3636363636364" type="line"/>
      <point x="277.3636363636364" y="647.0"/>
      <point x="345.63636363636357" y="688.0"/>
      <point x="425.72727272727275" y="688.0" type="curve" smooth="yes"/>
      <point x="568.7272727272727" y="688.0"/>
      <point x="598.8181818181819" y="497.8181818181818"/>
      <point x="786.0909090909092" y="497.8181818181818" type="curve" smooth="yes"/>
      <point x="908.0" y="497.8181818181818"/>
      <point x="1030.090909090909" y="578.909090909091"/>
      <point x="1065.090909090909" y="680.7272727272727" type="curve"/>
      <point x="1008.090909090909" y="763.2727272727273" type="line"/>
      <point x="951.2727272727271" y="678.0909090909091"/>
      <point x="889.5454545454546" y="633.4545454545455"/>
      <point x="804.1818181818182" y="633.4545454545455" type="curve" smooth="yes"/>
      <point x="660.6363636363637" y="633.4545454545455"/>
      <point x="629.7272727272727" y="820.0"/>
      <point x="445.7272727272727" y="820.0" type="curve" smooth="yes"/>
      <point x="323.8181818181818" y="820.0"/>
      <point x="205.45454545454544" y="741.8181818181818"/>
    </contour>
  </outline>
</glyph>
<glyph name="cent" format="2">
  <advance width="1016.1818181818182"/>
  <unicode hex="00A2"/>
  <outline>
    <contour>
      <point x="352.00000000000006" y="-287.0" type="line"/>
      <point x="460.09090909090907" y="-287.0" type="line"/>
      <point x="516.3636363636364" y="-21.181818181818183" type="line"/>
      <point x="717.5454545454545" y="-10.272727272727273"/>
      <point x="851.8181818181819" y="101.72727272727272"/>
      <point x="912.6363636363635" y="190.27272727272728" type="curve"/>
      <point x="873.2727272727274" y="254.9090909090909" type="line"/>
      <point x="826.6363636363635" y="195.8181818181818"/>
      <point x="732.4545454545456" y="127.72727272727272"/>
      <point x="629.3636363636364" y="127.09090909090907" type="curve" smooth="yes"/>
      <point x="529.0" y="126.45454545454545"/>
      <point x="457.5454545454545" y="201.0"/>
      <point x="456.09090909090907" y="423.90909090909093" type="curve" smooth="yes"/>
      <point x="453.9090909090909" y="749.7272727272726"/>
      <point x="580.2727272727271" y="976.0"/>
      <point x="682.6363636363635" y="976.0" type="curve" smooth="yes"/>
      <point x="757.7272727272727" y="976.0"/>
      <point x="782.4545454545455" y="904.9090909090909"/>
      <point x="828.4545454545455" y="741.5454545454545" type="curve"/>
      <point x="916.2727272727274" y="741.5454545454546" type="line"/>
      <point x="994.0909090909091" y="1032.0909090909092" type="line"/>
      <point x="930.7272727272729" y="1054.181818181818"/>
      <point x="827.9999999999999" y="1067.818181818182"/>
      <point x="735.0909090909091" y="1068.5454545454545" type="curve"/>
      <point x="794.8181818181818" y="1346.5454545454545" type="line"/>
      <point x="686.7272727272727" y="1346.5454545454545" type="line"/>
      <point x="624.9090909090909" y="1059.6363636363637" type="line"/>
      <point x="275.1818181818182" y="1006.9090909090909"/>
      <point x="100.45454545454545" y="702.4545454545455"/>
      <point x="102.27272727272728" y="405.909090909091" type="curve" smooth="yes"/>
      <point x="103.72727272727273" y="161.63636363636363"/>
      <point x="219.81818181818184" y="16.09090909090909"/>
      <point x="409.6363636363637" y="-15.636363636363637" type="curve"/>
    </contour>
  </outline>
</glyph>
<glyph name="sterling" format="2">
  <advance width="1492.727272727273"/>
  <unicode hex="00A3"/>
  <outline>
    <contour>
      <point x="871.1818181818181" y="-16.181818181818183" type="curve" smooth="yes"/>
      <point x="1192.1818181818182" y="-16.181818181818183"/>
      <point x="1409.7272727272725" y="161.8181818181818"/>
      <point x="1409.727272727273" y="393.27272727272725" type="curve" smooth="yes"/>
      <point x="1409.727272727273" y="490.54545454545456"/>
      <point x="1359.727272727273" y="550.5454545454546"/>
      <point x="1313.0909090909092" y="585.3636363636364" type="curve"/>
      <point x="1037.0909090909088" y="522.8181818181819" type="line"/>
      <point x="1070.8181818181818" y="484.6363636363636"/>
      <point x="1101.181818181818" y="421.6363636363637"/>
      <point x="1101.181818181818" y="351.09090909090907" type="curve" smooth="yes"/>
      <point x="1101.181818181818" y="211.4545454545455"/>
      <point x="1016.3636363636364" y="81.45454545454545"/>
      <point x="817.0909090909091" y="81.45454545454545" type="curve" smooth="yes"/>
      <point x="698.909090909091" y="81.45454545454545"/>
      <point x="608.6363636363637" y="140.27272727272725"/>
      <point x="478.9090909090909" y="188.0909090909091" type="curve"/>
      <point x="601.1818181818182" y="288.4545454545455"/>
      <point x="658.0909090909091" y="448.90909090909093"/>
      <point x="684.8181818181819" y="612.1818181818181" type="curve" smooth="yes"/>
      <point x="691.5454545454546" y="657.3636363636364"/>
      <point x="699.0" y="702.9090909090909"/>
      <point x="705.7272727272726" y="748.4545454545454" type="curve"/>
      <point x="989.0" y="748.4545454545454" type="line"/>
      <point x="1001.1818181818182" y="861.3636363636364" type="line"/>
      <point x="723.3636363636364" y="861.3636363636364" type="line"/>
      <point x="736.6363636363636" y="951.1818181818181"/>
      <point x="749.8181818181819" y="1042.090909090909"/>
      <point x="763.090909090909" y="1131.909090909091" type="curve" smooth="yes"/>
      <point x="795.1818181818182" y="1337.1818181818185"/>
      <point x="870.9090909090911" y="1415.7272727272727"/>
      <point x="969.1818181818182" y="1415.7272727272727" type="curve" smooth="yes"/>
      <point x="1091.818181818182" y="1415.7272727272727"/>
      <point x="1186.9090909090908" y="1302.2727272727273"/>
      <point x="1218.181818181818" y="1193.909090909091" type="curve"/>
      <point x="1364.1818181818182" y="1401.1818181818182" type="line"/>
      <point x="1280.2727272727273" y="1470.8181818181818"/>
      <point x="1165.5454545454545" y="1509.0"/>
      <point x="1005.1818181818182" y="1509.0" type="curve" smooth="yes"/>
      <point x="687.9090909090909" y="1509.0"/>
      <point x="458.7272727272727" y="1300.0"/>
      <point x="412.5454545454545" y="996.8181818181819" type="curve" smooth="yes"/>
      <point x="405.9090909090909" y="951.9090909090909"/>
      <point x="398.54545454545456" y="906.2727272727274"/>
      <point x="391.9090909090909" y="861.3636363636364" type="curve"/>
      <point x="208.0" y="861.3636363636364" type="line"/>
      <point x="195.0909090909091" y="748.4545454545454" type="line"/>
      <point x="374.6363636363637" y="748.4545454545454" type="line"/>
      <point x="355.3636363636364" y="622.4545454545454"/>
      <point x="349.45454545454544" y="495.81818181818176"/>
      <point x="330.1818181818182" y="370.1818181818182" type="curve" smooth="yes"/>
      <point x="316.09090909090907" y="279.0"/>
      <point x="305.6363636363636" y="246.1818181818182"/>
      <point x="285.9090909090909" y="224.36363636363637" type="curve"/>
      <point x="148.63636363636363" y="217.00000000000003"/>
      <point x="29.454545454545453" y="159.63636363636365"/>
      <point x="29.454545454545453" y="73.45454545454547" type="curve" smooth="yes"/>
      <point x="29.454545454545453" y="26.454545454545453"/>
      <point x="63.90909090909092" y="-6.90909090909091"/>
      <point x="133.0909090909091" y="-6.90909090909091" type="curve" smooth="yes"/>
      <point x="224.09090909090912" y="-6.90909090909091"/>
      <point x="289.3636363636363" y="25.72727272727272"/>
      <point x="371.8181818181818" y="103.45454545454545" type="curve"/>
      <point x="481.8181818181818" y="83.45454545454545"/>
      <point x="635.2727272727273" y="-16.181818181818183"/>
    </contour>
  </outline>
</glyph>
<glyph name="currency" format="2">
  <advance width="1560.4545454545455"/>
  <unicode hex="00A4"/>
  <outline>
    <contour>
      <point x="255.00000000000003" y="236.7272727272727" type="line"/>
      <point x="339.4545454545455" y="150.63636363636365" type="line"/>
      <point x="556.2727272727273" y="368.72727272727275" type="line"/>
      <point x="627.2727272727273" y="313.8181818181818"/>
      <point x="716.0" y="284.8181818181818"/>
      <point x="807.1818181818182" y="284.8181818181818" type="curve" smooth="yes"/>
      <point x="893.6363636363637" y="284.8181818181818"/>
      <point x="979.6363636363636" y="311.3636363636364"/>
      <point x="1050.090909090909" y="363.8181818181818" type="curve"/>
      <point x="1267.8181818181818" y="144.45454545454544" type="line"/>
      <point x="1369.181818181818" y="247.09090909090907" type="line"/>
      <point x="1152.3636363636363" y="461.6363636363636" type="line"/>
      <point x="1214.7272727272727" y="542.2727272727274"/>
      <point x="1248.6363636363635" y="636.4545454545454"/>
      <point x="1248.6363636363635" y="731.909090909091" type="curve" smooth="yes"/>
      <point x="1248.6363636363635" y="826.5454545454546"/>
      <point x="1215.7272727272725" y="918.7272727272727"/>
      <point x="1152.5454545454545" y="995.4545454545454" type="curve"/>
      <point x="1367.3636363636363" y="1208.0" type="line"/>
      <point x="1281.3636363636363" y="1294.7272727272727" type="line"/>
      <point x="1063.8181818181818" y="1080.090909090909" type="line"/>
      <point x="986.5454545454545" y="1136.4545454545455"/>
      <point x="897.6363636363636" y="1166.2727272727273"/>
      <point x="807.1818181818182" y="1166.2727272727273" type="curve" smooth="yes"/>
      <point x="719.0909090909091" y="1166.2727272727273"/>
      <point x="636.0909090909091" y="1139.7272727272727"/>
      <point x="566.2727272727273" y="1089.2727272727273" type="curve"/>
      <point x="346.9090909090909" y="1309.3636363636363" type="line"/>
      <point x="247.1818181818182" y="1206.0" type="line"/>
      <point x="462.90909090909093" y="990.2727272727273" type="line"/>
      <point x="401.8181818181818" y="911.4545454545455"/>
      <point x="369.54545454545456" y="816.5454545454546"/>
      <point x="369.54545454545456" y="719.1818181818181" type="curve" smooth="yes"/>
      <point x="369.54545454545456" y="623.6363636363636"/>
      <point x="403.1818181818182" y="528.6363636363637"/>
      <point x="467.45454545454544" y="448.54545454545456" type="curve"/>
    </contour>
    <contour>
      <point x="600.5454545454545" y="721.7272727272727" type="curve" smooth="yes"/>
      <point x="600.5454545454545" y="840.3636363636364"/>
      <point x="679.1818181818182" y="943.6363636363636"/>
      <point x="803.3636363636364" y="943.6363636363636" type="curve" smooth="yes"/>
      <point x="913.5454545454545" y="943.6363636363636"/>
      <point x="1010.1818181818181" y="851.1818181818181"/>
      <point x="1010.1818181818181" y="723.0" type="curve" smooth="yes"/>
      <point x="1010.1818181818181" y="605.0"/>
      <point x="935.1818181818182" y="506.7272727272727"/>
      <point x="805.9090909090909" y="506.7272727272727" type="curve" smooth="yes"/>
      <point x="694.4545454545455" y="506.7272727272727"/>
      <point x="600.5454545454545" y="603.7272727272727"/>
    </contour>
  </outline>
</glyph>
